<?xml version="1.0" encoding="utf-8"?>
<svg id="master-artboard" height="1872px" version="1.1" y="0px" viewBox="0 0 2272 1872" xmlns="http://www.w3.org/2000/svg" x="0px" width="2272px" enable-background="new 0 0 2272 1872">
<path fill="#ADD65C" stroke="#6D5C49" stroke-width="10.3324" stroke-linecap="round" stroke-linejoin="round" stroke-miterlimit="10" d="&#10;&#9;&#9;M487.1,733.9c-77,0-205.3-23.6-205.2-78.1c0.1-54.1,103.3-70,128.1-73.3c2.1-7.7-23.3-7-23.3-23.7c0-21.5,61.7-28.2,157.5-28.2&#10;&#9;&#9;c84.4,0,170.3,7.4,174.9,45.3c3.6,29.1-55.1,27.5-48.4,41c9.7,19.7,62.2,13.6,62.2,50C733,730.3,537.4,733.9,487.1,733.9z" transform="matrix(0.9999999999999999, 0, 0, 0.9999999999999999, -2.2737367544323206e-13, 0)"/><path fill="#87DBEC" stroke="#6D5C49" stroke-width="10.3324" stroke-linecap="round" stroke-linejoin="round" stroke-miterlimit="10" d="&#10;&#9;&#9;M579.2,603.1c48.5-2.3,84.4-10.3,84.4-19.8c0-11.3-50.4-20.4-112.7-20.4c-62.2,0-112.7,9.2-112.7,20.4c0,5.2,10.5,9.9,27.9,13.5&#10;&#9;&#9;c-87.5,3.5-154.9,25.4-154.9,51.9c0,28.9,80.3,52.4,179.4,52.4s179.4-23.4,179.4-52.4C670.1,629.1,633.5,612.1,579.2,603.1z" transform="matrix(0.9999999999999999, 0, 0, 0.9999999999999999, -2.2737367544323206e-13, 0)"/><path d="M 461.500008 647.400024 A 44.900002 7.7 0 0 1 416.600006 655.100024 A 44.900002 7.7 0 0 1 371.700005 647.400024 A 44.900002 7.7 0 0 1 416.600006 639.700025 A 44.900002 7.7 0 0 1 461.500008 647.400024 Z" fill="#ADD65C" stroke="#6D5C49" stroke-width="10.3324" stroke-linecap="round" stroke-linejoin="round" stroke-miterlimit="10" transform="matrix(0.9999999999999999, 0, 0, 0.9999999999999999, -2.2737367544323206e-13, 0)"/><path d="M 596.699989 662.799988 A 44.900002 7.7 0 0 1 551.799988 670.499988 A 44.900002 7.7 0 0 1 506.899986 662.799988 A 44.900002 7.7 0 0 1 551.799988 655.099988 A 44.900002 7.7 0 0 1 596.699989 662.799988 Z" fill="#ADD65C" stroke="#6D5C49" stroke-width="10.3324" stroke-linecap="round" stroke-linejoin="round" stroke-miterlimit="10" transform="matrix(0.9999999999999999, 0, 0, 0.9999999999999999, -2.2737367544323206e-13, 0)"/><path d="M 551.899975 613.400024 A 34.799999 6 0 0 1 517.099976 619.400024 A 34.799999 6 0 0 1 482.299976 613.400024 A 34.799999 6 0 0 1 517.099976 607.400024 A 34.799999 6 0 0 1 551.899975 613.400024 Z" fill="#ADD65C" stroke="#6D5C49" stroke-width="10.3324" stroke-linecap="round" stroke-linejoin="round" stroke-miterlimit="10" transform="matrix(0.9999999999999999, 0, 0, 0.9999999999999999, -2.2737367544323206e-13, 0)"/><path d="M 482.299988 584.599976 L 490.700012 513.400024 L 507.5 584.599976" fill="#ADD65C" stroke="#6D5C49" stroke-width="10.3324" stroke-linecap="round" stroke-linejoin="round" stroke-miterlimit="10" transform="matrix(0.9999999999999999, 0, 0, 0.9999999999999999, -2.2737367544323206e-13, 0)"/><path d="M 568.5 589.5 L 574.299988 519 L 591.599976 589.5" fill="#ADD65C" stroke="#6D5C49" stroke-width="10.3324" stroke-linecap="round" stroke-linejoin="round" stroke-miterlimit="10" transform="matrix(0.9999999999999999, 0, 0, 0.9999999999999999, -2.2737367544323206e-13, 0)"/><path d="M 338.899994 660.099976 L 344.700012 589.5 L 362 660.099976" fill="#ADD65C" stroke="#6D5C49" stroke-width="10.3324" stroke-linecap="round" stroke-linejoin="round" stroke-miterlimit="10" transform="matrix(0.9999999999999999, 0, 0, 0.9999999999999999, -2.2737367544323206e-13, 0)"/><path d="M 647.799988 642.700012 L 642 572.200012 L 624.799988 642.700012" fill="#ADD65C" stroke="#6D5C49" stroke-width="10.3324" stroke-linecap="round" stroke-linejoin="round" stroke-miterlimit="10" transform="matrix(0.9999999999999999, 0, 0, 0.9999999999999999, -2.2737367544323206e-13, 0)"/><path d="M 614.599976 636 L 608.799988 565.400024 L 591.599976 636" fill="#ADD65C" stroke="#6D5C49" stroke-width="10.3324" stroke-linecap="round" stroke-linejoin="round" stroke-miterlimit="10" transform="matrix(0.9999999999999999, 0, 0, 0.9999999999999999, -2.2737367544323206e-13, 0)"/><path d="M 507.5 587.099976 L 513.299988 516.5 L 530.5 587.099976" fill="#ADD65C" stroke="#6D5C49" stroke-width="10.3324" stroke-linecap="round" stroke-linejoin="round" stroke-miterlimit="10" transform="matrix(0.9999999999999999, 0, 0, 0.9999999999999999, -2.2737367544323206e-13, 0)"/><path d="M 540.299988 596.299988 L 546.099976 525.700012 L 563.299988 596.299988" fill="#ADD65C" stroke="#6D5C49" stroke-width="10.3324" stroke-linecap="round" stroke-linejoin="round" stroke-miterlimit="10" transform="matrix(0.9999999999999999, 0, 0, 0.9999999999999999, -2.2737367544323206e-13, 0)"/><path fill="none" stroke="#C3EDF5" stroke-width="10.3324" stroke-linecap="round" stroke-linejoin="round" stroke-miterlimit="10" d="&#10;&#9;&#9;M425,622.7c11.8,0.3,25.6,2.4,36.5,8.6" transform="matrix(0.9999999999999999, 0, 0, 0.9999999999999999, -2.2737367544323206e-13, 0)"/><path fill="none" stroke="#C3EDF5" stroke-width="10.3324" stroke-linecap="round" stroke-linejoin="round" stroke-miterlimit="10" d="&#10;&#9;&#9;M399.7,624.3c0,0,3.4-0.6,8.7-1.1" transform="matrix(0.9999999999999999, 0, 0, 0.9999999999999999, -2.2737367544323206e-13, 0)"/><path fill="none" stroke="#C3EDF5" stroke-width="10.3324" stroke-linecap="round" stroke-linejoin="round" stroke-miterlimit="10" d="&#10;&#9;&#9;M458.9,671.1c0,0,24.5,2.3,33.4,11.2" transform="matrix(0.9999999999999999, 0, 0, 0.9999999999999999, -2.2737367544323206e-13, 0)"/><path fill="none" stroke="#C3EDF5" stroke-width="10.3324" stroke-linecap="round" stroke-linejoin="round" stroke-miterlimit="10" d="&#10;&#9;&#9;M540.3,639.6c0,0,16-3.6,28.2-3.6" transform="matrix(0.9999999999999999, 0, 0, 0.9999999999999999, -2.2737367544323206e-13, 0)"/><path fill="none" stroke="#C3EDF5" stroke-width="10.3324" stroke-linecap="round" stroke-linejoin="round" stroke-miterlimit="10" d="&#10;&#9;&#9;M380.9,670.5c0,0,18.4,6.2,26,6.2" transform="matrix(0.9999999999999999, 0, 0, 0.9999999999999999, -2.2737367544323206e-13, 0)"/><path fill="none" stroke="#C3EDF5" stroke-width="10.3324" stroke-linecap="round" stroke-linejoin="round" stroke-miterlimit="10" d="&#10;&#9;&#9;M488.6,636c0,0,0,3.6,12,3.6" transform="matrix(0.9999999999999999, 0, 0, 0.9999999999999999, -2.2737367544323206e-13, 0)"/><path fill="none" stroke="#C3EDF5" stroke-width="10.3324" stroke-linecap="round" stroke-linejoin="round" stroke-miterlimit="10" d="&#10;&#9;&#9;M624.8,662.8c0,0-8.9,7.7-13.3,7.7" transform="matrix(0.9999999999999999, 0, 0, 0.9999999999999999, -2.2737367544323206e-13, 0)"/><path fill="#ADD65C" stroke="#6D5C49" stroke-width="10.3324" stroke-linecap="round" stroke-linejoin="round" stroke-miterlimit="10" d="&#10;&#9;&#9;M680.5,673.6c0,0-5.3,15.1-44.2,22.8" transform="matrix(0.9999999999999999, 0, 0, 0.9999999999999999, -2.2737367544323206e-13, 0)"/><path fill="#ADD65C" stroke="#6D5C49" stroke-width="10.3324" stroke-linecap="round" stroke-linejoin="round" stroke-miterlimit="10" d="&#10;&#9;&#9;M709.9,660.1c0,0,7,7.5-7.7,22.2" transform="matrix(0.9999999999999999, 0, 0, 0.9999999999999999, -2.2737367544323206e-13, 0)"/><path fill="#ADD65C" stroke="#6D5C49" stroke-width="10.3324" stroke-linecap="round" stroke-linejoin="round" stroke-miterlimit="10" d="&#10;&#9;&#9;M661.3,561c0,0,27.5,5.6,30.7,16.5" transform="matrix(0.9999999999999999, 0, 0, 0.9999999999999999, -2.2737367544323206e-13, 0)"/><path fill="#ADD65C" stroke="#EBF5D6" stroke-width="10.3324" stroke-linecap="round" stroke-linejoin="round" stroke-miterlimit="10" d="&#10;&#9;&#9;M420.9,558.6c-0.8,1.3-0.6,2.7,0.9,4.2" transform="matrix(0.9999999999999999, 0, 0, 0.9999999999999999, -2.2737367544323206e-13, 0)"/><path fill="#ADD65C" stroke="#EBF5D6" stroke-width="10.3324" stroke-linecap="round" stroke-linejoin="round" stroke-miterlimit="10" d="&#10;&#9;&#9;M454.4,549c0,0-10.4,1.1-19.6,3.3" transform="matrix(0.9999999999999999, 0, 0, 0.9999999999999999, -2.2737367544323206e-13, 0)"/><path fill="#ADD65C" stroke="#6D5C49" stroke-width="10.3324" stroke-linecap="round" stroke-linejoin="round" stroke-miterlimit="10" d="&#10;&#9;&#9;M563.3,547c0,0,39.5-1,54.8,2" transform="matrix(0.9999999999999999, 0, 0, 0.9999999999999999, -2.2737367544323206e-13, 0)"/><path fill="none" stroke="#EBF5D6" stroke-width="10.3324" stroke-linecap="round" stroke-linejoin="round" stroke-miterlimit="10" d="&#10;&#9;&#9;M316.6,680.6c8.1,5.2,19,11.3,31,15.8" transform="matrix(0.9999999999999999, 0, 0, 0.9999999999999999, -2.2737367544323206e-13, 0)"/><path fill="none" stroke="#EBF5D6" stroke-width="10.3324" stroke-linecap="round" stroke-linejoin="round" stroke-miterlimit="10" d="&#10;&#9;&#9;M302.3,670.5c0,0,1.5,1.2,4.1,3.1" transform="matrix(0.9999999999999999, 0, 0, 0.9999999999999999, -2.2737367544323206e-13, 0)"/><path fill="#ADD65C" stroke="#6D5C49" stroke-width="10.3324" stroke-linecap="round" stroke-linejoin="round" stroke-miterlimit="10" d="&#10;&#9;&#9;M437.4,717.3c0,0,21.1,3.5,44.9,3.5" transform="matrix(0.9999999999999999, 0, 0, 0.9999999999999999, -2.2737367544323206e-13, 0)"/>
<g transform="matrix(0.9999999999999999, 0, 0, 0.9999999999999999, -2.2737367544323206e-13, 0)">
		
			<path fill="#ADD65C" stroke="#6D5C49" stroke-width="10.3324" stroke-linecap="round" stroke-linejoin="round" stroke-miterlimit="10" d="&#10;&#9;&#9;&#9;M1177.5,861.3l172,30.3c-40.6,12.7-104.4,20.1-172,20.1c-118.1,0-215.3-22.8-215.3-50.5c0-27.7,97.2-50.5,215.3-50.5&#10;&#9;&#9;&#9;c94.9,0,179.2,14.7,206.3,36L1177.5,861.3z"/>
		
			<path fill="none" stroke="#6D5C49" stroke-width="10.3324" stroke-linecap="round" stroke-linejoin="round" stroke-miterlimit="10" d="&#10;&#9;&#9;&#9;M1015.4,811.2c-23.5,5.6-51.2,15.5-68.5,32.8"/>
		
			<path fill="none" stroke="#6D5C49" stroke-width="10.3324" stroke-linecap="round" stroke-linejoin="round" stroke-miterlimit="10" d="&#10;&#9;&#9;&#9;M1059.6,804.3c0,0-7.6,0.4-19.1,2.1"/>
		
			<path fill="none" stroke="#6D5C49" stroke-width="10.3324" stroke-linecap="round" stroke-linejoin="round" stroke-miterlimit="10" d="&#10;&#9;&#9;&#9;M1082.4,923.6c0,0,132,19.1,217-3.8"/>
		
			<path d="M 1296.400024 866.400024 L 1343.300049 863.5" fill="none" stroke="#6D5C49" stroke-width="10.3324" stroke-linecap="round" stroke-linejoin="round" stroke-miterlimit="10"/>
		
			<path fill="none" stroke="#6D5C49" stroke-width="10.3324" stroke-linecap="round" stroke-linejoin="round" stroke-miterlimit="10" d="&#10;&#9;&#9;&#9;M1232.2,793.8c0,0,91.8,5.5,128.4,23.7"/>
		
			<path fill="#ADD65C" stroke="#6D5C49" stroke-width="10.3324" stroke-linecap="round" stroke-linejoin="round" stroke-miterlimit="10" d="&#10;&#9;&#9;&#9;M1177.5,861.3c0,0,47.7-136.3,9.7-245.9l10.3-6.6C1197.5,608.8,1251.3,720.8,1177.5,861.3z"/>
		<g>
			
				<path fill="#FDB1AE" stroke="#6D5C49" stroke-width="10.3324" stroke-linecap="round" stroke-linejoin="round" stroke-miterlimit="10" d="&#10;&#9;&#9;&#9;&#9;M1151.4,618.9c0-4.1-25-54.1-3.9-105.5c0,0,29.2,7,64.3,45.1S1151.4,618.9,1151.4,618.9z"/>
			
				<path fill="#FDB1AE" stroke="#6D5C49" stroke-width="10.3324" stroke-linecap="round" stroke-linejoin="round" stroke-miterlimit="10" d="&#10;&#9;&#9;&#9;&#9;M1119.9,558.5c0,0,8.9,99.6,75.5,99.6c35.5,0,36.8-37,18.8-52C1196.3,591,1155.8,590.3,1119.9,558.5z"/>
			
				<path fill="#FDB1AE" stroke="#6D5C49" stroke-width="10.3324" stroke-linecap="round" stroke-linejoin="round" stroke-miterlimit="10" d="&#10;&#9;&#9;&#9;&#9;M1200.3,657.9c27.4,0,64-17.1,2.2-126.4c0,0-17.7,57.7-28.5,74.6C1163.1,622.9,1164.8,657.9,1200.3,657.9z"/>
		</g>
	</g><path fill="none" stroke="#EBF5D6" stroke-width="10.3324" stroke-linecap="round" stroke-linejoin="round" stroke-miterlimit="10" d="&#10;&#9;&#9;M1019,851.3c0,0,22.8-15.4,70-15.4" transform="matrix(0.9999999999999999, 0, 0, 0.9999999999999999, -2.2737367544323206e-13, 0)"/><path d="M 1119.900024 834.099976 L 1134.400024 834.099976" fill="none" stroke="#EBF5D6" stroke-width="10.3324" stroke-linecap="round" stroke-linejoin="round" stroke-miterlimit="10" transform="matrix(0.9999999999999999, 0, 0, 0.9999999999999999, -2.2737367544323206e-13, 0)"/><path fill="none" stroke="#FED8D7" stroke-width="10.3324" stroke-linecap="round" stroke-linejoin="round" stroke-miterlimit="10" d="&#10;&#9;&#9;M1194.5,608.2c0,0-12.1,12-4.6,19.4" transform="matrix(0.9999999999999999, 0, 0, 0.9999999999999999, -2.2737367544323206e-13, 0)"/><path d="M 1143.599976 594.900024 L 1144.599976 598.400024" fill="none" stroke="#FED8D7" stroke-width="10.3324" stroke-linecap="round" stroke-linejoin="round" stroke-miterlimit="10" transform="matrix(0.9999999999999999, 0, 0, 0.9999999999999999, -2.2737367544323206e-13, 0)"/><path d="M 1156.5 537.5 L 1155.199951 546.5" fill="none" stroke="#FED8D7" stroke-width="10.3324" stroke-linecap="round" stroke-linejoin="round" stroke-miterlimit="10" transform="matrix(0.9999999999999999, 0, 0, 0.9999999999999999, -2.2737367544323206e-13, 0)"/>
<g transform="matrix(0.9999999999999999, 0, 0, 0.9999999999999999, -2.2737367544323206e-13, 0)">
		<g>
			
				<path fill="#A28B6D" stroke="#6D5C49" stroke-width="10.3324" stroke-linecap="round" stroke-linejoin="round" stroke-miterlimit="10" d="&#10;&#9;&#9;&#9;&#9;M1886.8,752.1c-3.9-22.8-14.8-114.2-103.2-144.1c-75.2-25.4-165.7,18-158,36.9c9.4,23,208.4,76.1,215.9,103.8"/>
			
				<path fill="#FFFFFF" stroke="#6D5C49" stroke-width="10.3324" stroke-linecap="round" stroke-linejoin="round" stroke-miterlimit="10" d="&#10;&#9;&#9;&#9;&#9;M1650.7,661.7c0,0,44.2-4.1,80.4-25.9"/>
			
				<path fill="#FFFFFF" stroke="#6D5C49" stroke-width="10.3324" stroke-linecap="round" stroke-linejoin="round" stroke-miterlimit="10" d="&#10;&#9;&#9;&#9;&#9;M1725.7,691.7c0,0,51.6-13.5,65.2-34.5"/>
			
				<path fill="#FFFFFF" stroke="#6D5C49" stroke-width="10.3324" stroke-linecap="round" stroke-linejoin="round" stroke-miterlimit="10" d="&#10;&#9;&#9;&#9;&#9;M1797,719.9c0,0,38.4-7.7,44.9-27.7"/>
		</g>
		
			<path fill="#A28B6D" stroke="#6D5C49" stroke-width="10.3324" stroke-linecap="round" stroke-linejoin="round" stroke-miterlimit="10" d="&#10;&#9;&#9;&#9;M1903.2,714.2c-35.6-11-87-65.8-164.8-15c-78.1,51-102.7,9.1-102.7,9.1s16,114.8,130,114.8c25.4,0,68.5,0,110.8,0&#10;&#9;&#9;&#9;c42.2,0,80.8-14.9,89.2-64.3c11.7-68.7-122.6-135.4-74.3-183.8c38.6-38.6,81.9,32.9,100.4,27.9c18.6-5.1-21.5-27-21.5-45.2&#10;&#9;&#9;&#9;c0-18.1-21.7-63.6-67.7-35c-20.1,12.5-54.4,32.8-51.4,71.7C1856.1,658.1,1935.6,724.2,1903.2,714.2z"/>
		
			<path fill="#4D4D4D" stroke="#6D5C49" stroke-width="10.3324" stroke-linecap="round" stroke-linejoin="round" stroke-miterlimit="10" d="&#10;&#9;&#9;&#9;M1957.7,582.6c0,0-3.6-21.2-19.1-36.7c-15.5-15.5,17.1,21,31.2,11.7C1969.7,557.7,1953.9,569.1,1957.7,582.6z"/>
		<g>
			
				<path fill="#A28B6D" stroke="#6D5C49" stroke-width="10.3324" stroke-linecap="round" stroke-linejoin="round" stroke-miterlimit="10" d="&#10;&#9;&#9;&#9;&#9;M1892.3,722.1c-3.9-22.8-14.8-114.2-103.2-144.1c-75.2-25.4-165.7,18-158,36.9c9.4,23,208.4,76.1,215.9,103.8"/>
			
				<path fill="none" stroke="#6D5C49" stroke-width="10.3324" stroke-linecap="round" stroke-linejoin="round" stroke-miterlimit="10" d="&#10;&#9;&#9;&#9;&#9;M1656.2,631.7c0,0,44.2-4.1,80.4-25.9"/>
			
				<path fill="none" stroke="#6D5C49" stroke-width="10.3324" stroke-linecap="round" stroke-linejoin="round" stroke-miterlimit="10" d="&#10;&#9;&#9;&#9;&#9;M1731.2,661.7c0,0,51.6-13.5,65.2-34.5"/>
			
				<path fill="none" stroke="#6D5C49" stroke-width="10.3324" stroke-linecap="round" stroke-linejoin="round" stroke-miterlimit="10" d="&#10;&#9;&#9;&#9;&#9;M1802.5,689.9c0,0,38.4-7.7,44.9-27.7"/>
		</g>
		
			<path fill="#FFCE47" stroke="#6D5C49" stroke-width="10.3324" stroke-linecap="round" stroke-linejoin="round" stroke-miterlimit="10" d="&#10;&#9;&#9;&#9;M1957.7,582.6c14.3,11,26.4,22.3,34.1,20.2c18.6-5.1-21.5-27-21.5-45.2C1970.3,557.7,1954.3,567.9,1957.7,582.6z"/>
	</g><path fill="none" stroke="#D6B990" stroke-width="10.3324" stroke-linecap="round" stroke-linejoin="round" stroke-miterlimit="10" d="&#10;&#9;&#9;M1677.1,600.1c0,0,3.1-3.1,16.9-6.3" transform="matrix(0.9999999999999999, 0, 0, 0.9999999999999999, -2.2737367544323206e-13, 0)"/><path d="M 1716.400024 589.5 L 1725.699951 588.400024" fill="none" stroke="#D6B990" stroke-width="10.3324" stroke-linecap="round" stroke-linejoin="round" stroke-miterlimit="10" transform="matrix(0.9999999999999999, 0, 0, 0.9999999999999999, -2.2737367544323206e-13, 0)"/><path d="M 1883.5 553.200012 L 1890.599976 547.900024" fill="none" stroke="#D6B990" stroke-width="7.4335" stroke-linecap="round" stroke-linejoin="round" stroke-miterlimit="10" transform="matrix(0.9999999999999999, 0, 0, 0.9999999999999999, -2.2737367544323206e-13, 0)"/><path d="M 1902.099976 542 L 1907.099976 539.200012" fill="none" stroke="#D6B990" stroke-width="7.4335" stroke-linecap="round" stroke-linejoin="round" stroke-miterlimit="10" transform="matrix(0.9999999999999999, 0, 0, 0.9999999999999999, -2.2737367544323206e-13, 0)"/><path fill="none" stroke="#D6B990" stroke-width="10.3324" stroke-linecap="round" stroke-linejoin="round" stroke-miterlimit="10" d="&#10;&#9;&#9;M1666.1,741.5c0,0,13.5,3.6,26.9-2.8" transform="matrix(0.9999999999999999, 0, 0, 0.9999999999999999, -2.2737367544323206e-13, 0)"/><path d="M 1704.699951 733.700012 L 1708.800049 731.700012" fill="none" stroke="#D6B990" stroke-width="10.3324" stroke-linecap="round" stroke-linejoin="round" stroke-miterlimit="10" transform="matrix(0.9999999999999999, 0, 0, 0.9999999999999999, -2.2737367544323206e-13, 0)"/>
<path fill="#A5E4F1" stroke="#6D5C49" stroke-width="10.3324" stroke-linecap="round" stroke-linejoin="round" stroke-miterlimit="10" d="&#10;&#9;&#9;M1746.5,1320.1c0,23.1,51.8,11.3,38.2,24.8c-13.6,13.6,97.3,22.2,97.3,0s-43.6-15.4-18.4-22.2c25.3-6.9,69.4-25,8.5-34.2&#10;&#9;&#9;c-60.9-9.2-116.4,1.2-104.9,12.8C1778.9,1312.8,1746.5,1308.6,1746.5,1320.1z" transform="matrix(0.9999999999999999, 0, 0, 0.9999999999999999, -2.2737367544323206e-13, 0)"/><path fill="none" stroke="#E1F6FA" stroke-width="10.3324" stroke-linecap="round" stroke-linejoin="round" stroke-miterlimit="10" d="&#10;&#9;&#9;M1781.4,1303.1c0,0,2.1-2.6,7.3-3.8" transform="matrix(0.9999999999999999, 0, 0, 0.9999999999999999, -2.2737367544323206e-13, 0)"/><path fill="#ADD65C" stroke="#6D5C49" stroke-width="10.3324" stroke-linecap="round" stroke-linejoin="round" stroke-miterlimit="10" d="&#10;&#9;&#9;M1816.2,1320.1c0,0-14.7-271,77.1-287.8c0,0-65.4,57.4-65.4,287.8H1816.2z" transform="matrix(0.9999999999999999, 0, 0, 0.9999999999999999, -2.2737367544323206e-13, 0)"/><path fill="#ADD65C" stroke="#6D5C49" stroke-width="10.3324" stroke-linecap="round" stroke-linejoin="round" stroke-miterlimit="10" d="&#10;&#9;&#9;M1824.8,1320.1c0,0,14.7-264.2-77.1-281c0,0,65.4,50.6,65.4,281H1824.8z" transform="matrix(0.9999999999999999, 0, 0, 0.9999999999999999, -2.2737367544323206e-13, 0)"/><path fill="#ADD65C" stroke="#6D5C49" stroke-width="10.3324" stroke-linecap="round" stroke-linejoin="round" stroke-miterlimit="10" d="&#10;&#9;&#9;&#9;M1824.8,1320.1c0.3,4.4-0.3-64.1-22.1-127.6c-11.9-34.7-30.3-67.9-58.3-86.8l-6.4,9.9C1738,1115.6,1815.9,1171,1824.8,1320.1z" transform="matrix(0.9999999999999999, 0, 0, 0.9999999999999999, -2.2737367544323206e-13, 0)"/><path fill="#DD6966" stroke="#6D5C49" stroke-width="10.3324" stroke-linecap="round" stroke-linejoin="round" stroke-miterlimit="10" d="&#10;&#9;&#9;&#9;&#9;M1765.4,1152.9c-6,0-12-2.7-15.9-7.9c-37.8-50.2-77.2-81.4-117-92.8c-10.6-3-16.7-14-13.7-24.6c3-10.6,14-16.7,24.6-13.7&#10;&#9;&#9;&#9;&#9;c48.4,13.8,94.7,49.8,137.9,107.1c6.6,8.8,4.9,21.2-3.9,27.9C1773.8,1151.6,1769.6,1152.9,1765.4,1152.9z" transform="matrix(0.9999999999999999, 0, 0, 0.9999999999999999, -2.2737367544323206e-13, 0)"/><path d="M 1647.400024 1023.5 L 1659.300049 1028.5" fill="none" stroke="#F0B4B3" stroke-width="10.3324" stroke-linecap="round" stroke-linejoin="round" stroke-miterlimit="10" transform="matrix(0.9999999999999999, 0, 0, 0.9999999999999999, -2.2737367544323206e-13, 0)"/><path fill="none" stroke="#F0B4B3" stroke-width="10.3324" stroke-linecap="round" stroke-linejoin="round" stroke-miterlimit="10" d="&#10;&#9;&#9;&#9;M1668.8,1032.3c0,0,12.9,4.9,30.5,19.2" transform="matrix(0.9999999999999999, 0, 0, 0.9999999999999999, -2.2737367544323206e-13, 0)"/><path fill="#ADD65C" stroke="#6D5C49" stroke-width="10.3324" stroke-linecap="round" stroke-linejoin="round" stroke-miterlimit="10" d="&#10;&#9;&#9;&#9;M1820.6,1254.6c0.8,4.4-15.4-62.2-9.7-129.1c3.1-36.6,12.7-73.3,35.3-98.4l8.6,8.1C1854.8,1035.1,1792.8,1107.9,1820.6,1254.6z" transform="matrix(0.9999999999999999, 0, 0, 0.9999999999999999, -2.2737367544323206e-13, 0)"/><path fill="#DD6966" stroke="#6D5C49" stroke-width="10.3324" stroke-linecap="round" stroke-linejoin="round" stroke-miterlimit="10" d="&#10;&#9;&#9;&#9;&#9;M1837.3,1078c5.9-1.5,11-5.6,13.5-11.6c24.4-57.9,55-97.8,90.8-118.6c9.5-5.5,12.8-17.7,7.2-27.2c-5.5-9.5-17.7-12.8-27.2-7.2&#10;&#9;&#9;&#9;&#9;c-43.5,25.2-79.7,71.5-107.5,137.5c-4.3,10.1,0.5,21.8,10.6,26.1C1828.9,1078.8,1833.3,1079,1837.3,1078z" transform="matrix(0.9999999999999999, 0, 0, 0.9999999999999999, -2.2737367544323206e-13, 0)"/><path d="M 1920.199951 923.700012 L 1909.900024 931.5" fill="none" stroke="#F0B4B3" stroke-width="10.3324" stroke-linecap="round" stroke-linejoin="round" stroke-miterlimit="10" transform="matrix(0.9999999999999999, 0, 0, 0.9999999999999999, -2.2737367544323206e-13, 0)"/><path fill="none" stroke="#F0B4B3" stroke-width="10.3324" stroke-linecap="round" stroke-linejoin="round" stroke-miterlimit="10" d="&#10;&#9;&#9;&#9;M1901.6,937.4c0,0-11.3,7.9-24.9,26.1" transform="matrix(0.9999999999999999, 0, 0, 0.9999999999999999, -2.2737367544323206e-13, 0)"/><path fill="#ADD65C" stroke="#6D5C49" stroke-width="10.3324" stroke-linecap="round" stroke-linejoin="round" stroke-miterlimit="10" d="&#10;&#9;&#9;&#9;M1824.9,1305.1c0.5,3.6-9.5-51.7-1.6-106.1c4.3-29.8,14-59.3,33.7-78.8l6.7,7C1863.7,1127.1,1809.4,1183.6,1824.9,1305.1z" transform="matrix(0.9999999999999999, 0, 0, 0.9999999999999999, -2.2737367544323206e-13, 0)"/><path fill="#DD6966" stroke="#6D5C49" stroke-width="10.3324" stroke-linecap="round" stroke-linejoin="round" stroke-miterlimit="10" d="&#10;&#9;&#9;&#9;&#9;M1847.3,1161.3c4.9-0.9,9.2-4,11.6-8.8c22.8-46.2,49.8-77.3,80.1-92.6c8-4,11.3-13.8,7.3-21.9c-4-8-13.8-11.3-21.9-7.3&#10;&#9;&#9;&#9;&#9;c-36.8,18.5-68.7,54.6-94.7,107.3c-4,8.1-0.7,17.9,7.4,21.8C1840.3,1161.6,1843.9,1162,1847.3,1161.3z" transform="matrix(0.9999999999999999, 0, 0, 0.9999999999999999, -2.2737367544323206e-13, 0)"/><path d="M 1922.599976 1039.099976 L 1913.800049 1045" fill="none" stroke="#F0B4B3" stroke-width="10.3324" stroke-linecap="round" stroke-linejoin="round" stroke-miterlimit="10" transform="matrix(0.9999999999999999, 0, 0, 0.9999999999999999, -2.2737367544323206e-13, 0)"/><path fill="none" stroke="#F0B4B3" stroke-width="10.3324" stroke-linecap="round" stroke-linejoin="round" stroke-miterlimit="10" d="&#10;&#9;&#9;&#9;M1906.8,1049.5c0,0-9.6,5.9-21.6,20.1" transform="matrix(0.9999999999999999, 0, 0, 0.9999999999999999, -2.2737367544323206e-13, 0)"/><path fill="#ADD65C" stroke="#6D5C49" stroke-width="10.3324" stroke-linecap="round" stroke-linejoin="round" stroke-miterlimit="10" d="&#10;&#9;&#9;M1824.8,1320.1c0,0,14.7-135.2-77.1-152c0,0,65.4,52.8,65.4,152H1824.8z" transform="matrix(0.9999999999999999, 0, 0, 0.9999999999999999, -2.2737367544323206e-13, 0)"/><path fill="#ADD65C" stroke="#6D5C49" stroke-width="10.3324" stroke-linecap="round" stroke-linejoin="round" stroke-miterlimit="10" d="&#10;&#9;&#9;M1816.2,1320.1c0,0-14.7-135.2,77.1-152c0,0-65.4,52.8-65.4,152H1816.2z" transform="matrix(0.9999999999999999, 0, 0, 0.9999999999999999, -2.2737367544323206e-13, 0)"/><path fill="none" stroke="#E1F6FA" stroke-width="10.3324" stroke-linecap="round" stroke-linejoin="round" stroke-miterlimit="10" d="&#10;&#9;&#9;M1788.7,1314.6c0,0-23.9,4.9-4.9,11.5" transform="matrix(0.9999999999999999, 0, 0, 0.9999999999999999, -2.2737367544323206e-13, 0)"/><path fill="none" stroke="#E1F6FA" stroke-width="10.3324" stroke-linecap="round" stroke-linejoin="round" stroke-miterlimit="10" d="&#10;&#9;&#9;M1848.1,1295.7c0,0,10.1-0.1,15.6,2.3" transform="matrix(0.9999999999999999, 0, 0, 0.9999999999999999, -2.2737367544323206e-13, 0)"/><path fill="none" stroke="#E1F6FA" stroke-width="10.3324" stroke-linecap="round" stroke-linejoin="round" stroke-miterlimit="10" d="&#10;&#9;&#9;M1819,1344.4c1,0,13,4.8,29.1,1" transform="matrix(0.9999999999999999, 0, 0, 0.9999999999999999, -2.2737367544323206e-13, 0)"/><path d="M 1797.400024 1297 L 1798.599976 1296.5" fill="none" stroke="#E1F6FA" stroke-width="10.3324" stroke-linecap="round" stroke-linejoin="round" stroke-miterlimit="10" transform="matrix(0.9999999999999999, 0, 0, 0.9999999999999999, -2.2737367544323206e-13, 0)"/><path d="M 1803.800049 1320.599976 L 1836.300049 1320.599976" fill="#ADD65C" stroke="#6D5C49" stroke-width="10.3324" stroke-linecap="round" stroke-linejoin="round" stroke-miterlimit="10" transform="matrix(0.9999999999999999, 0, 0, 0.9999999999999999, -2.2737367544323206e-13, 0)"/>
<path fill="#A5E4F1" stroke="#6D5C49" stroke-width="10.3324" stroke-linecap="round" stroke-linejoin="round" stroke-miterlimit="10" d="&#10;&#9;&#9;M878.6,1268.1c8.5,48.5,93.1,21.2,93.1,69.8s156-17.2,216.7,11.1c60.7,28.3,183.2-12.3,127.5-45.8&#10;&#9;&#9;c-55.7-33.5,117.4-39.2,106.3-90.9c-11.1-51.6-99.2,15.8-155.9-30.6c-56.7-46.4-169.7-86-213.3-42.3&#10;&#9;&#9;c-43.6,43.6-41.2,101.9-94.1,93.5S873.6,1239.3,878.6,1268.1z" transform="matrix(0.9999999999999999, 0, 0, 0.9999999999999999, -2.2737367544323206e-13, 0)"/><g transform="matrix(0.9999999999999999, 0, 0, 0.9999999999999999, -2.2737367544323206e-13, 0)">
			
				<path fill="#ADD65C" stroke="#6D5C49" stroke-width="10.3324" stroke-linecap="round" stroke-linejoin="round" stroke-miterlimit="10" d="&#10;&#9;&#9;&#9;&#9;M1350.9,1252.1c13.5-5-234.4,240.4-388.5-104.9C962.4,1147.2,1198.7,1309,1350.9,1252.1z"/>
			
				<path fill="#ADD65C" stroke="#6D5C49" stroke-width="10.3324" stroke-linecap="round" stroke-linejoin="round" stroke-miterlimit="10" d="&#10;&#9;&#9;&#9;&#9;M1350.9,1252.1c0,0-147.9-86.9-388.5-104.9C962.4,1147.2,1192.9,1306.7,1350.9,1252.1z"/>
			
				<path fill="none" stroke="#6D5C49" stroke-width="10.3324" stroke-linecap="round" stroke-linejoin="round" stroke-miterlimit="10" d="&#10;&#9;&#9;&#9;&#9;M1090.8,1218.3c0,0-35.7,19.9-65.5,34.1"/>
			
				<path fill="none" stroke="#6D5C49" stroke-width="10.3324" stroke-linecap="round" stroke-linejoin="round" stroke-miterlimit="10" d="&#10;&#9;&#9;&#9;&#9;M1098.1,1312.9c0,0,63.6-26.5,94.1-60.2"/>
			
				<path fill="none" stroke="#6D5C49" stroke-width="10.3324" stroke-linecap="round" stroke-linejoin="round" stroke-miterlimit="10" d="&#10;&#9;&#9;&#9;&#9;M1222.5,1326.7c0,0,20.2-6.7,52-63.3"/>
			
				<path fill="none" stroke="#6D5C49" stroke-width="10.3324" stroke-linecap="round" stroke-linejoin="round" stroke-miterlimit="10" d="&#10;&#9;&#9;&#9;&#9;M1109.5,1167.9c0,0,29.5,60.7,31.9,69.3"/>
			
				<path fill="none" stroke="#6D5C49" stroke-width="10.3324" stroke-linecap="round" stroke-linejoin="round" stroke-miterlimit="10" d="&#10;&#9;&#9;&#9;&#9;M1212.8,1194.9c0,0,22,51.3,26.1,66"/>
			
				<path fill="none" stroke="#6D5C49" stroke-width="10.3324" stroke-linecap="round" stroke-linejoin="round" stroke-miterlimit="10" d="&#10;&#9;&#9;&#9;&#9;M1035.7,1155.8c0,0,14.9,30.9,18.4,43.2"/>
			
				<path fill="#E8BC91" stroke="#6D5C49" stroke-width="10.3324" stroke-linecap="round" stroke-linejoin="round" stroke-miterlimit="10" d="&#10;&#9;&#9;&#9;&#9;M1346.3,1253.7c0,0,84.8-27.2,102.3-39.1l5,17.9C1453.7,1232.5,1394.9,1258.5,1346.3,1253.7z"/>
		</g><path d="M 1007.200012 1198.900024 L 1010.599976 1205.300049" fill="none" stroke="#EBF5D6" stroke-width="10.3324" stroke-linecap="round" stroke-linejoin="round" stroke-miterlimit="10" transform="matrix(0.9999999999999999, 0, 0, 0.9999999999999999, -2.2737367544323206e-13, 0)"/><path d="M 1018.200012 1217.400024 L 1029.800049 1234.5" fill="none" stroke="#EBF5D6" stroke-width="10.3324" stroke-linecap="round" stroke-linejoin="round" stroke-miterlimit="10" transform="matrix(0.9999999999999999, 0, 0, 0.9999999999999999, -2.2737367544323206e-13, 0)"/><path fill="none" stroke="#E1F6FA" stroke-width="10.3324" stroke-linecap="round" stroke-linejoin="round" stroke-miterlimit="10" d="&#10;&#9;&#9;M900.2,1255.4c0,0,13-11.6,36.3-8.2" transform="matrix(0.9999999999999999, 0, 0, 0.9999999999999999, -2.2737367544323206e-13, 0)"/><path d="M 952.200012 1247.199951 L 959.700012 1247.199951" fill="none" stroke="#E1F6FA" stroke-width="10.3324" stroke-linecap="round" stroke-linejoin="round" stroke-miterlimit="10" transform="matrix(0.9999999999999999, 0, 0, 0.9999999999999999, -2.2737367544323206e-13, 0)"/><path fill="none" stroke="#E1F6FA" stroke-width="10.3324" stroke-linecap="round" stroke-linejoin="round" stroke-miterlimit="10" d="&#10;&#9;&#9;M1090.8,1138.2c0,0,10.8-3.1,22.9-3.1" transform="matrix(0.9999999999999999, 0, 0, 0.9999999999999999, -2.2737367544323206e-13, 0)"/><path fill="none" stroke="#E1F6FA" stroke-width="10.3324" stroke-linecap="round" stroke-linejoin="round" stroke-miterlimit="10" d="&#10;&#9;&#9;M1134.9,1138.2c0,0,39.9,6.2,57.2,23.5" transform="matrix(0.9999999999999999, 0, 0, 0.9999999999999999, -2.2737367544323206e-13, 0)"/><path fill="none" stroke="#E1F6FA" stroke-width="10.3324" stroke-linecap="round" stroke-linejoin="round" stroke-miterlimit="10" d="&#10;&#9;&#9;M1018.2,1339.5c0,0,45.4-7.5,55.6-7.5" transform="matrix(0.9999999999999999, 0, 0, 0.9999999999999999, -2.2737367544323206e-13, 0)"/><path d="M 1090.800049 1332 L 1105.800049 1332" fill="none" stroke="#E1F6FA" stroke-width="10.3324" stroke-linecap="round" stroke-linejoin="round" stroke-miterlimit="10" transform="matrix(0.9999999999999999, 0, 0, 0.9999999999999999, -2.2737367544323206e-13, 0)"/><path d="M 1008.900024 1260.900024 L 1018.200012 1270.800049" fill="none" stroke="#6D5C49" stroke-width="10.3324" stroke-linecap="round" stroke-linejoin="round" stroke-miterlimit="10" transform="matrix(0.9999999999999999, 0, 0, 0.9999999999999999, -2.2737367544323206e-13, 0)"/><path fill="none" stroke="#6D5C49" stroke-width="10.3324" stroke-linecap="round" stroke-linejoin="round" stroke-miterlimit="10" d="&#10;&#9;&#9;M1029.8,1282.8c0,0,21,29.4,34.5,34.5" transform="matrix(0.9999999999999999, 0, 0, 0.9999999999999999, -2.2737367544323206e-13, 0)"/>
<path fill="#A5E4F1" stroke="#6D5C49" stroke-width="10.3324" stroke-linecap="round" stroke-linejoin="round" stroke-miterlimit="10" d="&#10;&#9;&#9;M381.6,1314.8c0,33.8,32.8,22.8,32.8,38.5c0,15.7,73-9.4,94.2,0s95-19.6,65.2-32.2c-29.8-12.6,36.1,3.9,30.6-29.4s-88-0.9-88-16.3&#10;&#9;&#9;c0-15.5-94.2-21.8-94.2,6.5S381.6,1285.7,381.6,1314.8z" transform="matrix(0.9999999999999999, 0, 0, 0.9999999999999999, -2.2737367544323206e-13, 0)"/><path d="M 451.600006 1126.599976 L 459.100006 1318.199951 L 463 1132.400024" fill="#FFDA75" stroke="#6D5C49" stroke-width="10.3324" stroke-linecap="round" stroke-linejoin="round" stroke-miterlimit="10" transform="matrix(0.9999999999999999, 0, 0, 0.9999999999999999, -2.2737367544323206e-13, 0)"/><path d="M 481.899994 1126.599976 L 489.399994 1318.199951 L 493.200012 1132.400024" fill="#FFDA75" stroke="#6D5C49" stroke-width="10.3324" stroke-linecap="round" stroke-linejoin="round" stroke-miterlimit="10" transform="matrix(0.9999999999999999, 0, 0, 0.9999999999999999, -2.2737367544323206e-13, 0)"/><path fill="#F7E9D0" stroke="#6D5C49" stroke-width="10.3324" stroke-linecap="round" stroke-linejoin="round" stroke-miterlimit="10" d="&#10;&#9;&#9;&#9;M390.8,1067.7c2.5-49.9,89.2-96.5,52.5-149.8c-31.6-46-94.1,0-94.1,0l-72.9,66l57.5-80.9c0,0,2.1-72.1,59.5-28.1&#10;&#9;&#9;&#9;c0,0,124.4-1.5,53.4,152.1" transform="matrix(0.9999999999999999, 0, 0, 0.9999999999999999, -2.2737367544323206e-13, 0)"/><path fill="#F7E9D0" stroke="#6D5C49" stroke-width="10.3324" stroke-linecap="round" stroke-linejoin="round" stroke-miterlimit="10" d="&#10;&#9;&#9;&#9;M412.9,1038.4c-72.1,47,44,125.3,182.8,141.5C595.7,1179.9,495.5,984.5,412.9,1038.4z" transform="matrix(0.9999999999999999, 0, 0, 0.9999999999999999, -2.2737367544323206e-13, 0)"/><path fill="#9C968F" stroke="#6D5C49" stroke-width="10.3324" stroke-linecap="round" stroke-linejoin="round" stroke-miterlimit="10" d="&#10;&#9;&#9;&#9;M412.9,1038.4c-12.3,8.3,23.8,87.1,173.4,100.8C586.2,1139.2,492.8,984.5,412.9,1038.4z" transform="matrix(0.9999999999999999, 0, 0, 0.9999999999999999, -2.2737367544323206e-13, 0)"/><path fill="#FFDA75" stroke="#6D5C49" stroke-width="10.3324" stroke-linecap="round" stroke-linejoin="round" stroke-miterlimit="10" d="&#10;&#9;&#9;M276.3,983.9l72.9-66c0,0,0.7-0.5,2.1-1.4c-5.8-4.8-12.2-8.7-19.1-11.3L276.3,983.9z" transform="matrix(0.9999999999999999, 0, 0, 0.9999999999999999, -2.2737367544323206e-13, 0)"/><path fill="none" stroke="#E1F6FA" stroke-width="10.3324" stroke-linecap="round" stroke-linejoin="round" stroke-miterlimit="10" d="&#10;&#9;&#9;M415.1,1306.6c0,0,14.5-3.1,15.7-11.3" transform="matrix(0.9999999999999999, 0, 0, 0.9999999999999999, -2.2737367544323206e-13, 0)"/><path d="M 432.399994 1284.599976 L 432.399994 1283.5" fill="none" stroke="#E1F6FA" stroke-width="10.3324" stroke-linecap="round" stroke-linejoin="round" stroke-miterlimit="10" transform="matrix(0.9999999999999999, 0, 0, 0.9999999999999999, -2.2737367544323206e-13, 0)"/><path d="M 448.700012 1345 L 466.399994 1341.199951" fill="none" stroke="#E1F6FA" stroke-width="10.3324" stroke-linecap="round" stroke-linejoin="round" stroke-miterlimit="10" transform="matrix(0.9999999999999999, 0, 0, 0.9999999999999999, -2.2737367544323206e-13, 0)"/><path d="M 478.899994 1339.800049 L 487.600006 1339.800049" fill="none" stroke="#E1F6FA" stroke-width="10.3324" stroke-linecap="round" stroke-linejoin="round" stroke-miterlimit="10" transform="matrix(0.9999999999999999, 0, 0, 0.9999999999999999, -2.2737367544323206e-13, 0)"/><path fill="none" stroke="#E1F6FA" stroke-width="10.3324" stroke-linecap="round" stroke-linejoin="round" stroke-miterlimit="10" d="&#10;&#9;&#9;M510.4,1290.1c0,0-1.7,7.9,32.6,0" transform="matrix(0.9999999999999999, 0, 0, 0.9999999999999999, -2.2737367544323206e-13, 0)"/><path d="M 555.799988 1287.099976 L 558.299988 1287.099976" fill="none" stroke="#E1F6FA" stroke-width="10.3324" stroke-linecap="round" stroke-linejoin="round" stroke-miterlimit="10" transform="matrix(0.9999999999999999, 0, 0, 0.9999999999999999, -2.2737367544323206e-13, 0)"/><path fill="#9C968F" stroke="#6D5C49" stroke-width="10.3324" stroke-linecap="round" stroke-linejoin="round" stroke-miterlimit="10" d="&#10;&#9;&#9;M498.4,1120.4c-1.9-0.7-41.1-52.7-41.1-52.7" transform="matrix(0.9999999999999999, 0, 0, 0.9999999999999999, -2.2737367544323206e-13, 0)"/><path fill="#9C968F" stroke="#6D5C49" stroke-width="10.3324" stroke-linecap="round" stroke-linejoin="round" stroke-miterlimit="10" d="&#10;&#9;&#9;M498.4,1070.6c0,0,41.6,57,58.9,64.9" transform="matrix(0.9999999999999999, 0, 0, 0.9999999999999999, -2.2737367544323206e-13, 0)"/><path fill="none" stroke="#DFDDDA" stroke-width="10.3324" stroke-linecap="round" stroke-linejoin="round" stroke-miterlimit="10" d="&#10;&#9;&#9;M429.3,1042.6c0,0,12.4-4.3,22.3-4.3" transform="matrix(0.9999999999999999, 0, 0, 0.9999999999999999, -2.2737367544323206e-13, 0)"/><path d="M 463 1038.400024 L 468.600006 1040.5" fill="none" stroke="#DFDDDA" stroke-width="10.3324" stroke-linecap="round" stroke-linejoin="round" stroke-miterlimit="10" transform="matrix(0.9999999999999999, 0, 0, 0.9999999999999999, -2.2737367544323206e-13, 0)"/><path d="M 347.299988 883.799988 L 351.299988 873.900024" fill="none" stroke="#FFFFFF" stroke-width="10.3324" stroke-linecap="round" stroke-linejoin="round" stroke-miterlimit="10" transform="matrix(0.9999999999999999, 0, 0, 0.9999999999999999, -2.2737367544323206e-13, 0)"/><path d="M 431.200012 1012.299988 L 438.299988 997.099976" fill="none" stroke="#FFFFFF" stroke-width="10.3324" stroke-linecap="round" stroke-linejoin="round" stroke-miterlimit="10" transform="matrix(0.9999999999999999, 0, 0, 0.9999999999999999, -2.2737367544323206e-13, 0)"/>
</svg>