<?xml version="1.0" encoding="utf-8"?>
<!-- Generator: Adobe Illustrator 21.0.0, SVG Export Plug-In . SVG Version: 6.00 Build 0)  -->
<svg version="1.1" xmlns="http://www.w3.org/2000/svg" xmlns:xlink="http://www.w3.org/1999/xlink" x="0px" y="0px"
	 viewBox="0 0 1400 1000" style="enable-background:new 0 0 1400 1000;" xml:space="preserve">
<style type="text/css">
	.st0{fill:#BDFFE9;}
	.st1{fill:#1D8C14;}
	.st2{fill:#1C6B18;}
	.st3{fill:#66C927;}
	.st4{fill:#3EA300;}
	.st5{fill:#08A046;}
	.st6{fill:#0FB251;}
	.st7{fill:#57B21D;}
	.st8{fill:#38B2A6;}
	.st9{fill:#526616;}
	.st10{fill:#5B450D;}
	.st11{fill:#775C18;}
	.st12{fill:#299B8D;}
	.st13{fill:#66CCC0;}
	.st14{fill:#22897A;}
	.st15{fill:#5CC617;}
	.st16{fill:#357C08;}
</style>
<g id="Layer_2">
	<rect class="st0" width="1400" height="1000"/>
</g>
<g id="Layer_1">
	<g>
		<path class="st1" d="M1341,243.2c-5,0-9.8,0.8-14.3,2.3c-6.1-34.9-36.6-61.5-73.2-61.5c-13,0-25.3,3.4-35.9,9.3
			c-14.4-40.6-53.1-69.7-98.6-69.7c-54,0-98.5,41-104,93.6c-29.3,2.8-52.3,27.6-52.3,57.6c0,32,25.9,57.9,57.9,57.9H1341
			c24.7,0,44.8-20,44.8-44.8S1365.8,243.2,1341,243.2z"/>
		<path class="st2" d="M1020.7,332.7h301.4c1.6-4.2,2.5-8.7,2.5-13.5c0-20.6-16.7-37.4-37.4-37.4c-4.2,0-8.2,0.7-11.9,1.9
			c-5.1-29.2-30.5-51.3-61.1-51.3c-10.9,0-21.1,2.8-30,7.7c-12-33.9-44.3-58.2-82.3-58.2c-45.1,0-82.3,34.2-86.8,78.2
			c-23.5,2.3-42.1,21.4-43.5,45.2C981.7,321.8,999.9,332.7,1020.7,332.7z"/>
	</g>
	
		<ellipse transform="matrix(0.6857 -0.7279 0.7279 0.6857 259.983 901.8221)" class="st3" cx="1174.3" cy="149.9" rx="5.4" ry="10.1"/>
	
		<ellipse transform="matrix(0.6857 -0.7279 0.7279 0.6857 255.1373 1009.0997)" class="st3" cx="1296.1" cy="209.1" rx="5.4" ry="10.1"/>
	
		<ellipse transform="matrix(0.7984 -0.6022 0.6022 0.7984 135.013 758.1088)" class="st3" cx="1199.5" cy="177.5" rx="5.4" ry="10.1"/>
	
		<ellipse transform="matrix(0.7984 -0.6022 0.6022 0.7984 124.226 836.8939)" class="st3" cx="1311.8" cy="233" rx="5.4" ry="10.1"/>
	
		<ellipse transform="matrix(0.7984 -0.6022 0.6022 0.7984 106.4198 885.7167)" class="st3" cx="1375.8" cy="284" rx="5.4" ry="10.1"/>
	
		<ellipse transform="matrix(0.3084 -0.9513 0.9513 0.3084 660.7646 1184.5505)" class="st3" cx="1145" cy="137.9" rx="5.4" ry="10.1"/>
	
		<ellipse transform="matrix(0.3084 -0.9513 0.9513 0.3084 690.8754 1342.9657)" class="st3" cx="1269" cy="196.4" rx="5.4" ry="10.1"/>
	
		<ellipse transform="matrix(0.3084 -0.9513 0.9513 0.3084 685.347 1449.8619)" class="st3" cx="1339.8" cy="253.6" rx="5.4" ry="10.1"/>
	
		<ellipse transform="matrix(0.3084 -0.9513 0.9513 0.3084 630.1364 1344.5935)" class="st3" cx="1239.8" cy="238.9" rx="5.4" ry="10.1"/>
	
		<ellipse transform="matrix(0.5089 -0.8608 0.8608 0.5089 434.2534 1070.964)" class="st3" cx="1155.7" cy="154.9" rx="5.4" ry="10.1"/>
	
		<ellipse transform="matrix(0.6857 -0.7279 0.7279 0.6857 242.9569 913.4492)" class="st3" cx="1179.2" cy="175.4" rx="5.4" ry="10.1"/>
	<ellipse transform="matrix(0.6857 -0.7279 0.7279 0.6857 223.49 898.3223)" class="st3" cx="1152" cy="190.4" rx="5.4" ry="10.1"/>
	
		<ellipse transform="matrix(0.6857 -0.7279 0.7279 0.6857 244.6682 1000.7951)" class="st3" cx="1281.2" cy="217.1" rx="5.4" ry="10.1"/>
	
		<ellipse transform="matrix(0.6857 -0.7279 0.7279 0.6857 225.9612 1069.9706)" class="st3" cx="1352" cy="273.3" rx="5.4" ry="10.1"/>
	
		<ellipse transform="matrix(0.6857 -0.7279 0.7279 0.6857 238.2851 1075.0122)" class="st3" cx="1364" cy="261.6" rx="5.4" ry="10.1"/>
	<g>
		<path class="st4" d="M537.4,128.7C527.2,67.1,473.6,20.1,409.1,20.1c-43.4,0-81.8,21.2-105.5,53.9c-7.8-2.4-16.1-3.7-24.7-3.7
			c-46.4,0-83.9,37.6-83.9,83.9c0,46.4,37.6,83.9,83.9,83.9c10.4,0,20.4-1.9,29.6-5.4c23.9,29,60.1,47.5,100.6,47.5
			c21.9,0,42.6-5.4,60.7-15c14.8,15.5,35.6,25.2,58.8,25.2c44.8,0,81.1-36.3,81.1-81.1C609.7,167.6,578.1,133.2,537.4,128.7z"/>
		<path class="st1" d="M476.6,189.6c-10.2-61.6-63.8-108.6-128.4-108.6c-43.4,0-81.8,21.2-105.5,53.9c-7.8-2.4-16.1-3.7-24.7-3.7
			c-7.1,0-14,0.9-20.6,2.5c-1.7,6.6-2.5,13.5-2.5,20.6c0,46.4,37.6,83.9,83.9,83.9c10.4,0,20.4-1.9,29.6-5.4
			c23.9,29,60.1,47.5,100.6,47.5c21.9,0,42.6-5.4,60.7-15c14.8,15.5,35.6,25.2,58.8,25.2c6.3,0,12.4-0.7,18.3-2.1
			c1.4-5.9,2.1-12,2.1-18.3C548.9,228.4,517.3,194,476.6,189.6z"/>
	</g>
	<path class="st5" d="M1400,334.8c0,0-728.7-144-1400-165V831l1398.9-23L1400,334.8z"/>
	<path class="st6" d="M0,186.4c80,2.6,423.5,12.8,591.4,41.4c189.7,32.3,169,41.7,273.8,46c86.6,3.6,421,61.2,534.7,81.1l0-20.1
		c0,0-728.7-144-1400-165V186.4z"/>
	<path class="st1" d="M357.7,279c-6.2,0-12.1,1-17.7,2.9c-7.6-43.3-45.3-76.2-90.8-76.2c-16.2,0-31.4,4.2-44.6,11.5
		c-17.8-50.4-65.8-86.5-122.3-86.5c-31.3,0-59.9,11.1-82.3,29.5V390h357.7c30.7,0,55.5-24.9,55.5-55.5S388.4,279,357.7,279z"/>
	<path class="st2" d="M291,326.9c-5.2,0-10.1,0.9-14.8,2.4c-6.3-36.2-37.9-63.7-75.8-63.7c-13.5,0-26.2,3.5-37.2,9.6
		C148.3,233.2,108.2,203,61,203c-22.6,0-43.6,6.9-61,18.8V390h334.2c2-5.2,3.1-10.8,3.1-16.8C337.3,347.7,316.6,326.9,291,326.9z"/>
	
		<ellipse transform="matrix(0.6048 -0.7964 0.7964 0.6048 -66.7453 314.7429)" class="st7" cx="283.8" cy="224.6" rx="5.4" ry="10.1"/>
	
		<ellipse transform="matrix(0.6048 -0.7964 0.7964 0.6048 -79.7858 288.4633)" class="st7" cx="250.8" cy="224.6" rx="5.4" ry="10.1"/>
	
		<ellipse transform="matrix(0.6048 -0.7964 0.7964 0.6048 -95.5607 400.5052)" class="st7" cx="355.8" cy="296.5" rx="5.4" ry="10.1"/>
	
		<ellipse transform="matrix(0.6857 -0.7279 0.7279 0.6857 -82.9662 305.1483)" class="st7" cx="311.9" cy="248.6" rx="5.4" ry="10.1"/>
	
		<ellipse transform="matrix(0.6857 -0.7279 0.7279 0.6857 -95.5257 283.5161)" class="st7" cx="280.5" cy="252.4" rx="5.4" ry="10.1"/>
	
		<ellipse transform="matrix(0.8984 -0.4391 0.4391 0.8984 -89.9375 171.2411)" class="st7" cx="325.2" cy="280" rx="5.4" ry="10.1"/>
	
		<ellipse transform="matrix(0.6857 -0.7279 0.7279 0.6857 -121.3642 158.5573)" class="st7" cx="122.9" cy="219.8" rx="5.4" ry="10.1"/>
	
		<ellipse transform="matrix(0.6857 -0.7279 0.7279 0.6857 -126.5885 266.9094)" class="st7" cx="245.8" cy="280" rx="5.4" ry="10.1"/>
	
		<ellipse transform="matrix(0.6857 -0.7279 0.7279 0.6857 -95.0281 135.4333)" class="st7" cx="109.3" cy="177.8" rx="5.4" ry="10.1"/>
	
		<ellipse transform="matrix(0.6857 -0.7279 0.7279 0.6857 -94.7335 165.4487)" class="st7" cx="144.2" cy="192.4" rx="5.4" ry="10.1"/>
	
		<ellipse transform="matrix(0.6857 -0.7279 0.7279 0.6857 -92.8117 191.1347)" class="st7" cx="174.9" cy="203" rx="5.4" ry="10.1"/>
	<path class="st8" d="M0,575h770.3c15.7,0,28.5-10,28.5-22.3v-35c0-12.3-12.8-22.3-28.5-22.3h-41.8c-15.7,0-28.5-10-28.5-22.3v-23.5
		c0-12.3,12.8-22.3,28.5-22.3h356.7c15.7,0,28.5-10,28.5-22.3v0c0-12.3,12.8-22.3,28.5-22.3H1400V1000H0V575z"/>
	<g>
		<g>
			<path class="st9" d="M156.3,632.5c-1.6,0-3-1.3-3.1-2.9c-0.1-1.3-9.6-133.1-9.2-220.4c0.3-59.3,5.3-124.4,5.4-125
				c0.1-1.7,1.6-3,3.4-2.9c1.7,0.1,3,1.6,2.9,3.4c-0.1,0.6-5.1,65.6-5.3,124.6c-0.4,87,9.1,218.6,9.2,219.9c0.1,1.7-1.2,3.2-2.9,3.3
				C156.5,632.5,156.4,632.5,156.3,632.5z"/>
		</g>
		<g>
			<path class="st10" d="M147,425.9c-6.8-0.1-12.3-5.5-12.4-12.3c-0.6-44.2,3.5-102.2,3.7-104.6c0.5-6.9,6.4-12.1,13.4-11.6
				c6.9,0.5,12.1,6.5,11.6,13.4c0,0.6-4.2,59.3-3.6,102.5c0.1,6.9-5.4,12.6-12.3,12.7C147.2,425.9,147.1,425.9,147,425.9z"/>
		</g>
		<path class="st11" d="M153.3,297.6c-1.2,16.5-5.9,82.8-6.1,128.3c0.1,0,0.1,0,0.2,0c6.9-0.1,12.4-5.8,12.3-12.7
			c-0.6-43.1,3.6-101.9,3.6-102.5C163.7,304.4,159.3,298.9,153.3,297.6z"/>
	</g>
	<g>
		<g>
			<path class="st9" d="M46.2,668.5c-1.6,0-3-1.3-3.1-2.9c-0.1-1.3-9.6-133.1-9.2-220.4c0.3-59.3,5.3-124.4,5.4-125
				c0.1-1.7,1.6-3,3.4-2.9c1.7,0.1,3,1.6,2.9,3.4c-0.1,0.6-5.1,65.6-5.3,124.6c-0.4,87,9.1,218.6,9.2,219.9c0.1,1.7-1.2,3.2-2.9,3.3
				C46.3,668.5,46.2,668.5,46.2,668.5z"/>
		</g>
		<g>
			<path class="st10" d="M36.9,461.9c-6.8-0.1-12.3-5.5-12.4-12.3C23.9,405.4,28,347.4,28.2,345c0.5-6.9,6.4-12.1,13.4-11.6
				c6.9,0.5,12.1,6.5,11.6,13.4c0,0.6-4.2,59.3-3.6,102.5c0.1,6.9-5.4,12.6-12.3,12.7C37.1,461.9,37,461.9,36.9,461.9z"/>
		</g>
		<path class="st11" d="M43.1,333.7c-1.2,16.5-5.9,82.8-6.1,128.3c0.1,0,0.1,0,0.2,0c6.9-0.1,12.4-5.8,12.3-12.7
			c-0.6-43.1,3.6-101.9,3.6-102.5C53.6,340.4,49.2,334.9,43.1,333.7z"/>
	</g>
	<g>
		<g>
			<path class="st9" d="M292.1,704.1c-1.5-0.5-2.4-2.1-2-3.7c0.3-1.3,33.6-129.1,62-211.7c19.3-56,45-116.1,45.2-116.7
				c0.7-1.6,2.5-2.3,4.1-1.6c1.6,0.7,2.3,2.5,1.6,4.1c-0.3,0.6-25.8,60.5-45.1,116.3c-28.3,82.3-61.6,209.9-61.9,211.2
				c-0.4,1.7-2.1,2.7-3.8,2.2C292.2,704.2,292.2,704.2,292.1,704.1z"/>
		</g>
		<g>
			<path class="st10" d="M349.6,505.5c-6.4-2.2-9.9-9.2-7.8-15.6c13.6-42.1,36.1-95.6,37.1-97.9c2.7-6.4,10-9.4,16.4-6.7
				c6.4,2.7,9.3,10,6.7,16.4c-0.2,0.5-23.1,54.8-36.3,95.9c-2.1,6.6-9.2,10.2-15.7,8C349.8,505.5,349.7,505.5,349.6,505.5z"/>
		</g>
		<path class="st11" d="M396.7,386c-6.5,15.3-32.2,76.6-47,119.5c0.1,0,0.1,0,0.2,0.1c6.6,2.1,13.6-1.5,15.7-8
			c13.3-41,36.1-95.3,36.3-95.9C404.4,395.8,402.1,389.1,396.7,386z"/>
	</g>
	<g>
		<g>
			<path class="st9" d="M271.5,668.8c1.3-0.3,2.3-1.5,2.4-2.9c0-1.9,4.7-190.9-1.2-249.3c-5.9-58.7-29.8-111.5-30.1-112
				c-0.7-1.5-2.5-2.2-4.1-1.5c-1.5,0.7-2.2,2.5-1.5,4.1c0.2,0.5,23.8,52.5,29.5,110.1c5.8,58,1.2,246.6,1.1,248.5
				c0,1.7,1.3,3.1,3,3.2C271,668.9,271.2,668.9,271.5,668.8z"/>
		</g>
		<g>
			<path class="st11" d="M273.7,443.2c5.7-1.3,9.9-6.6,9.5-12.7c-2.8-48.4-19.6-92.7-20.4-94.5c-2.4-6.4-9.6-9.5-16-7.1
				c-6.4,2.4-9.5,9.6-7.1,16c0.3,0.7,16.2,42.8,18.8,87.1c0.4,6.8,6.2,12,13,11.6C272.3,443.4,273,443.3,273.7,443.2z"/>
		</g>
		<path class="st10" d="M239.8,344.8c-2.4-6.4,0.7-13.5,7.1-16c0.4-0.1,0.7-0.3,1.1-0.4c6.4,17.7,19.2,58.8,23.5,115
			c-6.7,0.3-12.5-4.9-12.9-11.6C256,387.6,240.1,345.5,239.8,344.8z"/>
	</g>
	<g>
		<g>
			<path class="st9" d="M84.1,648.8c1.3-0.3,2.3-1.5,2.4-2.9c0-1.9,4.7-190.9-1.2-249.3c-5.9-58.7-29.8-111.5-30.1-112
				c-0.7-1.5-2.5-2.2-4.1-1.5c-1.5,0.7-2.2,2.5-1.5,4.1c0.2,0.5,23.8,52.5,29.5,110.1c5.8,58,1.2,246.6,1.1,248.5
				c0,1.7,1.3,3.1,3,3.2C83.5,648.9,83.8,648.9,84.1,648.8z"/>
		</g>
		<g>
			<path class="st11" d="M86.2,423.1c5.7-1.3,9.9-6.6,9.5-12.7C93,362,76.1,317.7,75.4,315.9c-2.4-6.4-9.6-9.5-16-7.1
				c-6.4,2.4-9.5,9.6-7.1,16c0.3,0.7,16.2,42.8,18.8,87.1c0.4,6.8,6.2,12,13,11.6C84.9,423.4,85.6,423.3,86.2,423.1z"/>
		</g>
		<path class="st10" d="M52.3,324.7c-2.4-6.4,0.7-13.5,7.1-16c0.4-0.1,0.7-0.3,1.1-0.4c6.4,17.7,19.2,58.8,23.5,115
			c-6.7,0.3-12.5-4.9-12.9-11.6C68.6,367.6,52.6,325.4,52.3,324.7z"/>
	</g>
	<path class="st12" d="M1399.5,553.5h-328.7c-14.1,0-25.5,11.4-25.5,25.5v26.1c0,14.1,11.4,25.5,25.5,25.5h67.8
		c14.1,0,25.5,11.4,25.5,25.5v9.7c0,14.1-11.4,25.5-25.5,25.5H592.1c-14.1,0-25.5,11.4-25.5,25.5v18.9c0,14.1,11.4,25.5,25.5,25.5
		h373.6c14.1,0,25.5,11.4,25.5,25.5v9.4c0,14.1-11.4,25.5-25.5,25.5h-696c-14.1,0-25.5,11.4-25.5,25.5v35.5
		c0,14.1,11.4,25.5,25.5,25.5h898.6c14.1,0,25.5,11.4,25.5,25.5v0c0,14.1-11.4,25.5-25.5,25.5H487.1c-14.1,0-25.5,11.4-25.5,25.5
		v15.4h938.1C1399.7,1000,1393.4,547.4,1399.5,553.5z"/>
	<path class="st13" d="M1398.6,601.7v-12.6c0-4.2-3.4-7.6-7.6-7.6h-96.3c-4.2,0-7.6-3.4-7.6-7.6v-18.1c0-4.2,3.4-7.6,7.6-7.6h16.4
		c4.2,0,7.6-3.4,7.6-7.6v-12.6c0-4.2-3.4-7.6-7.6-7.6h-46.6c-4.2,0-7.6-3.4-7.6-7.6V502c0-4.2,3.4-7.6,7.6-7.6h75.1
		c4.2,0,7.6-3.4,7.6-7.6v-12.6c0-4.2-3.4-7.6-7.6-7.6h-128.1c-4.2,0-7.6,3.4-7.6,7.6v12.6c0,4.2,3.4,7.6,7.6,7.6h0
		c4.2,0,7.6,3.4,7.6,7.6v11.1c0,4.2-3.4,7.6-7.6,7.6h-137.9c-4.2,0-7.6,3.4-7.6,7.6v12.6c0,4.2,3.4,7.6,7.6,7.6h145.6
		c4.2,0,7.6,3.4,7.6,7.6V574c0,4.2-3.4,7.6-7.6,7.6h-36.1c-4.2,0-7.6,3.4-7.6,7.6v12.6c0,4.2,3.4,7.6,7.6,7.6h16.9
		c4.2,0,7.6,3.4,7.6,7.6v17.6c0,4.2-3.4,7.6-7.6,7.6h-80.3c-4.2,0-7.6,3.4-7.6,7.6v12.6c0,4.2,3.4,7.6,7.6,7.6h155.3
		c4.2,0,7.6-3.4,7.6-7.6v-12.6c0-4.2-3.4-7.6-7.6-7.6h-21.3c-4.2,0-7.6-3.4-7.6-7.6v-17.6c0-4.2,3.4-7.6,7.6-7.6H1391
		C1395.2,609.3,1398.6,605.9,1398.6,601.7z"/>
	<g>
		<path class="st14" d="M1238.1,438c0,0,7.5-0.2,5.2,4.2c-2.3,4.4-16.3,2.9-19.2,15.5c-2.9,12.7,12.7,31.6,46.9,27.2
			c34.2-4.4,35.5-8.6,35.5-8.6l-22.3-11.1l26.4,7.3c0,0,18.7-9.3,17.4-24.1c-1.3-14.8-43-28.2-55.2-28.2c-12.2,0-23.8,6.7-23.8,6.7
			s4.9-5.5,12-8c0,0-20.4-2.3-29.9,1.2C1221.6,423.6,1222.4,435.4,1238.1,438z"/>
		<path class="st4" d="M1239.9,434.9c0,0,7.5-0.2,5.2,4.2c-2.3,4.4-16.3,2.9-19.2,15.5c-2.9,12.7,12.7,31.6,46.9,27.2
			c34.2-4.4,35.5-8.6,35.5-8.6l-22.3-11.1l26.4,7.3c0,0,18.7-9.3,17.4-24.1c-1.3-14.8-43-28.2-55.2-28.2c-12.2,0-23.8,6.7-23.8,6.7
			s4.9-5.5,12-8c0,0-20.4-2.3-29.9,1.2C1223.4,420.5,1224.2,432.2,1239.9,434.9z"/>
		<g>
			<path class="st15" d="M1274.7,417.1c-12.2,0-23.8,6.7-23.8,6.7c-3.2,2.5-5.2,5.1-5.2,5.1s21.2-11.1,32.1-9.2
				c10.9,1.9,35.1,11.1,47.6,21.1c0,0-31.6-7.6-65.7-1.8c0,0,62.2,2.1,66.7,5.6c2.9,2.2-1.2,11.7-4.4,18.1
				c4.4-4.2,8.6-10.1,7.9-17.3C1328.6,430.6,1286.9,417.1,1274.7,417.1z"/>
			<path class="st15" d="M1227,422.7c3.4-1.1,10.8-3.3,16.8-3.6c5-0.2,9.8-0.2,12.8-0.1c1.8-1.2,3.9-2.3,6.2-3.1
				c0,0-20.4-2.3-29.9,1.2C1229.8,418.2,1227.7,420.3,1227,422.7z"/>
		</g>
	</g>
	<g>
		<g>
			<path class="st9" d="M1010.2,885.1c-1.9-0.2-3.3-1.9-3.2-3.8c0.1-1.5,6.4-156,18.3-257.4c8.1-68.8,22.6-143.9,22.7-144.6
				c0.4-2,2.3-3.2,4.3-2.9c2,0.4,3.3,2.3,2.9,4.3c-0.1,0.7-14.5,75.5-22.6,144.1c-11.9,101.1-18.2,255.3-18.3,256.8
				c-0.1,2-1.8,3.6-3.8,3.5C1010.4,885.1,1010.3,885.1,1010.2,885.1z"/>
		</g>
		<g>
			<path class="st10" d="M1026.6,643.7c-7.9-1-13.6-8-12.8-15.9c5.1-51.5,17.5-118.3,18.1-121.1c1.5-7.9,9.1-13.2,17-11.7
				c7.9,1.5,13.2,9.1,11.7,17c-0.1,0.7-12.7,68.4-17.7,118.6c-0.8,8-8,13.9-16,13.1C1026.8,643.7,1026.7,643.7,1026.6,643.7z"/>
		</g>
		<path class="st11" d="M1050.7,495.4c-3.6,19-17.8,95.5-24,148.3c0.1,0,0.1,0,0.2,0c8,0.8,15.2-5.1,16-13.1
			c5-50.2,17.6-118,17.7-118.6C1062,504.7,1057.6,497.6,1050.7,495.4z"/>
	</g>
	<g>
		<g>
			<path class="st9" d="M836.8,529.1c-1.2-0.1-2.1-1.2-2-2.4c0-1,4-98.5,11.6-162.5c5.1-43.5,14.2-90.8,14.3-91.3
				c0.2-1.2,1.5-2.1,2.7-1.8c1.3,0.2,2.1,1.5,1.8,2.7c-0.1,0.5-9.2,47.7-14.3,91c-7.5,63.9-11.5,161.2-11.5,162.1
				c-0.1,1.3-1.1,2.3-2.4,2.2C836.9,529.1,836.9,529.1,836.8,529.1z"/>
		</g>
		<g>
			<path class="st10" d="M847.2,376.7c-5-0.6-8.6-5.1-8.1-10.1c3.2-32.5,11.1-74.7,11.4-76.5c0.9-5,5.7-8.3,10.8-7.4
				c5,0.9,8.3,5.8,7.4,10.8c-0.1,0.4-8,43.2-11.2,74.9c-0.5,5.1-5,8.8-10.1,8.3C847.3,376.7,847.2,376.7,847.2,376.7z"/>
		</g>
		<path class="st11" d="M862.4,283.1c-2.3,12-11.2,60.3-15.2,93.6c0,0,0.1,0,0.1,0c5.1,0.5,9.6-3.2,10.1-8.3
			c3.1-31.7,11.1-74.5,11.2-74.9C869.5,289,866.8,284.5,862.4,283.1z"/>
	</g>
	<g>
		<g>
			<path class="st9" d="M1193.8,885.1c-1.9-0.2-3.3-1.9-3.2-3.8c0.1-1.5,6.4-156,18.3-257.4c8.1-68.8,22.6-143.9,22.7-144.6
				c0.4-2,2.3-3.2,4.3-2.9c2,0.4,3.3,2.3,2.9,4.3c-0.1,0.7-14.5,75.5-22.6,144.1c-11.9,101.1-18.2,255.3-18.3,256.8
				c-0.1,2-1.8,3.6-3.8,3.5C1194,885.1,1193.9,885.1,1193.8,885.1z"/>
		</g>
		<g>
			<path class="st10" d="M1210.2,643.7c-7.9-1-13.6-8-12.8-15.9c5.1-51.5,17.5-118.3,18.1-121.1c1.5-7.9,9.1-13.2,17-11.7
				c7.9,1.5,13.2,9.1,11.7,17c-0.1,0.7-12.7,68.4-17.7,118.6c-0.8,8-8,13.9-16,13.1C1210.4,643.7,1210.3,643.7,1210.2,643.7z"/>
		</g>
		<path class="st11" d="M1234.3,495.4c-3.6,19-17.8,95.5-24,148.3c0.1,0,0.1,0,0.2,0c8,0.8,15.2-5.1,16-13.1
			c5-50.2,17.6-118,17.7-118.6C1245.6,504.7,1241.2,497.6,1234.3,495.4z"/>
	</g>
	<g>
		<g>
			<path class="st9" d="M1153.8,890.8c1.7-0.4,2.9-1.9,3-3.7c0.1-2.4,5.8-238.2-1.5-311c-7.3-73.2-37.2-139.1-37.5-139.8
				c-0.9-1.9-3.2-2.8-5.1-1.9c-1.9,0.9-2.8,3.2-1.9,5.1c0.3,0.6,29.6,65.4,36.8,137.3c7.3,72.3,1.5,307.6,1.4,310
				c-0.1,2.1,1.6,3.9,3.8,3.9C1153.2,890.9,1153.5,890.8,1153.8,890.8z"/>
		</g>
		<g>
			<path class="st11" d="M1156.5,609.2c7.2-1.7,12.3-8.3,11.9-15.9c-3.5-60.3-24.5-115.6-25.4-117.9c-3.1-7.9-12-11.9-19.9-8.8
				c-7.9,3.1-11.9,12-8.8,19.9c0.3,0.9,20.2,53.4,23.4,108.6c0.5,8.5,7.8,15,16.3,14.5C1154.8,609.5,1155.7,609.4,1156.5,609.2z"/>
		</g>
		<path class="st10" d="M1114.2,486.5c-3.1-7.9,0.9-16.8,8.8-19.9c0.4-0.2,0.9-0.3,1.3-0.4c8,22.1,24,73.4,29.3,143.5
			c-8.4,0.4-15.6-6.1-16-14.5C1134.5,539.9,1114.6,487.3,1114.2,486.5z"/>
	</g>
	<g>
		<g>
			<path class="st9" d="M1315.3,793.5c-1.6-0.4-2.9-1.9-2.9-3.6c0-2.3-3.8-235.9,4.1-307.9c7.9-72.4,38-137.4,38.3-138.1
				c0.9-1.9,3.2-2.7,5.1-1.8c1.9,0.9,2.7,3.2,1.8,5.1c-0.3,0.6-29.9,64.5-37.6,135.7c-7.8,71.6-4.1,304.6-4,306.9
				c0,2.1-1.6,3.8-3.7,3.9C1315.9,793.7,1315.6,793.6,1315.3,793.5z"/>
		</g>
		<g>
			<path class="st10" d="M1314.9,514.7c-7.1-1.7-12.1-8.3-11.6-15.8c3.9-59.7,25.2-114.3,26.2-116.5c3.1-7.8,12-11.7,19.8-8.6
				c7.8,3.1,11.7,11.9,8.6,19.8c-0.3,0.9-20.5,52.7-24.1,107.4c-0.6,8.4-7.8,14.8-16.2,14.2C1316.6,515.1,1315.8,514.9,1314.9,514.7
				z"/>
		</g>
		<path class="st11" d="M1357.8,393.6c3.1-7.8-0.8-16.7-8.6-19.8c-0.4-0.2-0.9-0.3-1.3-0.4c-8.1,21.8-24.4,72.4-30.2,141.8
			c8.3,0.4,15.5-5.9,16-14.2C1337.4,446.3,1357.5,394.4,1357.8,393.6z"/>
	</g>
	<g>
		<g>
			<path class="st9" d="M946.6,993.3c-1.7,0-3.2-1.1-3.7-2.8c-0.6-2.3-59.1-227.7-68.4-299.4c-9.4-72,4.5-142.1,4.7-142.8
				c0.4-2.1,2.4-3.4,4.5-3c2.1,0.4,3.4,2.4,3,4.5c-0.1,0.7-13.8,69.6-4.6,140.3c9.3,71.2,67.6,296.2,68.2,298.4
				c0.5,2-0.7,4.1-2.7,4.6C947.2,993.3,946.9,993.3,946.6,993.3z"/>
		</g>
		<g>
			<path class="st10" d="M880.8,723.2c-7.3,0-13.7-5.2-15-12.6c-10.2-58.8-2.4-116.7-2-119.1c1.2-8.3,8.9-14.1,17.2-13
				c8.3,1.2,14.1,8.8,13,17.2c-0.1,0.9-7.5,55.9,1.9,109.7c1.4,8.3-4.1,16.1-12.4,17.6C882.5,723.1,881.6,723.2,880.8,723.2z"/>
		</g>
		<path class="st11" d="M893.9,595.6c1.2-8.3-4.7-16-13-17.2c-0.5-0.1-0.9-0.1-1.4-0.1c-2.8,23.1-6.6,75.9,4.1,144.5
			c8.2-1.5,13.6-9.3,12.2-17.5C886.4,651.6,893.7,596.6,893.9,595.6z"/>
	</g>
	<g>
		<g>
			<path class="st9" d="M828.2,534.4c-0.8,0-1.6-0.5-1.8-1.4c-0.3-1.1-28.6-110.3-33.1-145.1c-4.5-34.9,2.2-68.9,2.3-69.2
				c0.2-1,1.2-1.6,2.2-1.4c1,0.2,1.6,1.2,1.4,2.2c-0.1,0.3-6.7,33.7-2.2,68C801.5,422,829.7,531,830,532.1c0.3,1-0.3,2-1.3,2.2
				C828.6,534.4,828.4,534.4,828.2,534.4z"/>
		</g>
		<g>
			<path class="st10" d="M796.3,403.5c-3.5,0-6.6-2.5-7.3-6.1c-4.9-28.5-1.2-56.5-1-57.7c0.6-4,4.3-6.8,8.3-6.3
				c4,0.6,6.8,4.3,6.3,8.3c-0.1,0.4-3.6,27.1,0.9,53.2c0.7,4-2,7.8-6,8.5C797.2,403.5,796.8,403.5,796.3,403.5z"/>
		</g>
		<path class="st11" d="M802.7,341.8c0.6-4-2.3-7.8-6.3-8.3c-0.2,0-0.5,0-0.7-0.1c-1.3,11.2-3.2,36.8,2,70c4-0.7,6.6-4.5,5.9-8.5
			C799.1,368.9,802.6,342.2,802.7,341.8z"/>
	</g>
	<path class="st16" d="M1172.8,568.2c0,0,47.1,107.7,41.4,431.8h-33.6C1180.5,1000,1184.7,720.8,1172.8,568.2z"/>
	<path class="st16" d="M1370.5,421.3c0,0,33.3,144.4,29.2,578.7H1376C1376,1000,1378.9,625.9,1370.5,421.3z"/>
	<path class="st16" d="M1214.6,522c0,0,62.5,94,62.3,478h-23.7C1253.2,1000,1245.8,643,1214.6,522z"/>
	<path class="st16" d="M1252.2,522c0,0,62.5,94,62.3,478h-23.7C1290.8,1000,1283.4,643,1252.2,522z"/>
	<path class="st16" d="M937,522.4c0,0,89.9,130.5,108.3,477.6h-32C1013.3,1000,980.1,645.5,937,522.4z"/>
	<path class="st16" d="M1081.9,555c0,0,83.7,121.6,100.9,445H1153C1153,1000,1122,669.7,1081.9,555z"/>
	<path class="st4" d="M912.6,662.1c0,0,73.8,92.3,89,337.9h-26.3C975.3,1000,948,749.2,912.6,662.1z"/>
	<path class="st4" d="M1263.5,517c0,0,82.9,134,101.9,483h-26.3C1339.1,1000,1298.9,604.1,1263.5,517z"/>
	<path class="st4" d="M1232.4,517c0,0,82.9,134,101.9,483H1308C1308,1000,1267.8,604.1,1232.4,517z"/>
	<path class="st4" d="M914.6,616c0,0,130,0,153.2,384h-26.3C1041.4,1000,1020.6,665.5,914.6,616z"/>
	<path class="st4" d="M812.4,761.2c0,0,130,0,153.2,238.8h-26.3C939.3,1000,918.4,792,812.4,761.2z"/>
	<path class="st4" d="M1214.6,555c0,0-83.7,121.6-100.9,445h29.8C1143.5,1000,1174.5,669.7,1214.6,555z"/>
	<path class="st4" d="M1305.9,555c0,0-83.7,121.6-100.9,445h29.8C1234.8,1000,1265.8,669.7,1305.9,555z"/>
	<path class="st4" d="M1007,553.5c0,0,84,122,101.3,446.5h-29.9C1078.3,1000,1047.3,668.6,1007,553.5z"/>
	<path class="st16" d="M182,465.8c0,0-35,61.1-30.7,244.8h25C176.2,710.7,173.1,552.4,182,465.8z"/>
	<path class="st16" d="M35.1,382.5c0,0-24.7,81.9-21.7,328.1H31C31,710.7,28.8,498.5,35.1,382.5z"/>
	<path class="st16" d="M837.2,350.4c0,0-17.2,49.9-15.1,199.9h12.3C834.3,550.3,832.8,421.1,837.2,350.4z"/>
	<path class="st16" d="M150.9,439.6c0,0-46.4,53.3-46.3,271h17.6C122.2,710.7,127.7,508.2,150.9,439.6z"/>
	<path class="st16" d="M122.9,439.6c0,0-46.4,53.3-46.3,271h17.6C94.3,710.7,99.7,508.2,122.9,439.6z"/>
	<path class="st16" d="M357.2,439.9c0,0-66.8,74-80.5,270.8h23.8C300.5,710.7,325.2,509.7,357.2,439.9z"/>
	<path class="st16" d="M293.4,439.9c0,0-66.8,74-80.5,270.8h23.8C236.6,710.7,261.3,509.7,293.4,439.9z"/>
	<path class="st16" d="M888,387.7c0,0-40.1,44.4-48.3,162.6h14.3C853.9,550.3,868.7,429.6,888,387.7z"/>
	<path class="st16" d="M249.5,458.3c0,0-62.2,68.9-75,252.3h22.2C196.7,710.7,219.7,523.4,249.5,458.3z"/>
	<path class="st4" d="M375.3,519.1c0,0-54.9,52.3-66.1,191.6h19.5C328.7,710.7,349,568.4,375.3,519.1z"/>
	<path class="st4" d="M114.5,436.8c0,0-61.6,76-75.7,273.9h19.5C58.3,710.7,88.2,486.2,114.5,436.8z"/>
	<path class="st4" d="M137.6,436.8c0,0-61.6,76-75.7,273.9h19.5C81.5,710.7,111.3,486.2,137.6,436.8z"/>
	<path class="st4" d="M373.8,492.9c0,0-96.6,0-113.8,217.7h19.5C279.6,710.7,295.1,521,373.8,492.9z"/>
	<path class="st4" d="M925,408.6c0,0-62.9,0-74.1,141.7h12.7C863.7,550.3,873.7,426.9,925,408.6z"/>
	<path class="st4" d="M305.2,511.5c0,0-88.4,0-104.1,199.1h17.9C218.9,710.7,233.1,537.2,305.2,511.5z"/>
	<path class="st4" d="M449.8,575.3c0,0-96.6,0-113.8,135.4h19.5C355.5,710.7,371,592.7,449.8,575.3z"/>
	<path class="st4" d="M798.6,393.3c0,0,38.7,42.9,46.7,157h-13.8C831.4,550.3,817.1,433.8,798.6,393.3z"/>
	<path class="st4" d="M83,458.3c0,0,62.2,68.9,75,252.3h-22.2C135.8,710.7,112.8,523.4,83,458.3z"/>
	<path class="st4" d="M783.8,408.1c0,0,35.2,39,42.4,142.8h-12.5C813.6,550.8,800.6,444.9,783.8,408.1z"/>
	<path class="st4" d="M311.6,457.5c0,0-62.4,69.2-75.3,253.2h22.2C258.6,710.7,281.7,522.7,311.6,457.5z"/>
	<path class="st13" d="M761,809.5v-12c0-4-3.2-7.2-7.2-7.2h-91.9c-4,0-7.2-3.2-7.2-7.2v-17.2c0-4,3.2-7.2,7.2-7.2h15.7
		c4,0,7.2-3.2,7.2-7.2v-12c0-4-3.2-7.2-7.2-7.2h-44.4c-4,0-7.2-3.2-7.2-7.2v-10.5c0-4,3.2-7.2,7.2-7.2h71.7c4,0,7.2-3.2,7.2-7.2v-12
		c0-4-3.2-7.2-7.2-7.2H582.6c-4,0-7.2,3.2-7.2,7.2v12c0,4,3.2,7.2,7.2,7.2h0c4,0,7.2,3.2,7.2,7.2v10.5c0,4-3.2,7.2-7.2,7.2H451.1
		c-4,0-7.2,3.2-7.2,7.2v12c0,4,3.2,7.2,7.2,7.2H590c4,0,7.2,3.2,7.2,7.2V783c0,4-3.2,7.2-7.2,7.2h-34.5c-4,0-7.2,3.2-7.2,7.2v12
		c0,4,3.2,7.2,7.2,7.2h16.1c4,0,7.2,3.2,7.2,7.2v16.8c0,4-3.2,7.2-7.2,7.2H495c-4,0-7.2,3.2-7.2,7.2v12c0,4,3.2,7.2,7.2,7.2h148.2
		c4,0,7.2-3.2,7.2-7.2v-12c0-4-3.2-7.2-7.2-7.2h-20.4c-4,0-7.2-3.2-7.2-7.2v-16.8c0-4,3.2-7.2,7.2-7.2h131
		C757.7,816.7,761,813.4,761,809.5z"/>
	<path class="st13" d="M166.4,992.1c0-4-3.2-7.2-7.2-7.2H20.3c-4,0-7.2-3.2-7.2-7.2v-17.2c0-4,3.2-7.2,7.2-7.2h34.5
		c4,0,7.2-3.2,7.2-7.2v-12c0-4-3.2-7.2-7.2-7.2H38.7c-4,0-7.2-3.2-7.2-7.2v-16.8c0-4,3.2-7.2,7.2-7.2h76.6c4,0,7.2-3.2,7.2-7.2v-12
		c0-4-3.2-7.2-7.2-7.2H0V1000h166.4V992.1z"/>
	<g>
		<path class="st14" d="M134.7,851.3c0,0,18.4-0.5,12.7,10.3s-39.9,7-46.9,38c-7,31,31,77.3,114.7,66.5
			c83.6-10.8,86.8-20.9,86.8-20.9L247.6,918l64.6,17.7c0,0,45.6-22.8,42.4-58.9c-3.2-36.1-105.2-69-134.9-69s-58.3,16.5-58.3,16.5
			s11.9-13.5,29.5-19.6c0,0-49.9-5.7-73.2,2.9C94.4,816,96.2,844.8,134.7,851.3z"/>
		<path class="st4" d="M139.2,843.7c0,0,18.4-0.5,12.7,10.3c-5.7,10.8-39.9,7-46.9,38c-7,31,31,77.3,114.7,66.5s86.8-20.9,86.8-20.9
			L252,910.4l64.6,17.7c0,0,45.6-22.8,42.4-58.9c-3.2-36.1-105.2-69-134.9-69s-58.3,16.5-58.3,16.5s11.9-13.5,29.5-19.6
			c0,0-49.9-5.7-73.2,2.9C98.9,808.4,100.6,837.2,139.2,843.7z"/>
		<g>
			<path class="st15" d="M224.1,800.2c-29.8,0-58.3,16.5-58.3,16.5c-7.9,6-12.7,12.4-12.7,12.4s51.9-27.2,78.5-22.5
				c26.6,4.8,85.8,27,116.3,51.5c0,0-77.3-18.6-160.6-4.3c0,0,152,5.1,163.1,13.6c7.1,5.5-3,28.5-10.9,44.3
				c10.8-10.2,21-24.7,19.4-42.4C355.9,833.1,253.9,800.2,224.1,800.2z"/>
			<path class="st15" d="M107.6,813.7c8.4-2.8,26.4-8.1,41.1-8.8c12.2-0.6,24-0.5,31.4-0.3c4.3-2.8,9.4-5.6,15.2-7.7
				c0,0-49.9-5.7-73.2,2.9C114.3,802.7,109.3,807.9,107.6,813.7z"/>
		</g>
	</g>
	
		<ellipse transform="matrix(0.6857 -0.7279 0.7279 0.6857 67.8407 451.8302)" class="st3" cx="557.1" cy="147.4" rx="5.4" ry="10.1"/>
	
		<ellipse transform="matrix(0.6857 -0.7279 0.7279 0.6857 51.5154 458.8793)" class="st3" cx="557.1" cy="169.8" rx="5.4" ry="10.1"/>
	
		<ellipse transform="matrix(0.6857 -0.7279 0.7279 0.6857 110.3843 343.2166)" class="st3" cx="452.6" cy="43.8" rx="5.4" ry="10.1"/>
	
		<ellipse transform="matrix(0.6857 -0.7279 0.7279 0.6857 104.7508 377.1697)" class="st3" cx="489.1" cy="67.3" rx="5.4" ry="10.1"/>
	
		<ellipse transform="matrix(0.6857 -0.7279 0.7279 0.6857 94.4138 357.2299)" class="st3" cx="460.9" cy="69.3" rx="5.4" ry="10.1"/>
	
		<ellipse transform="matrix(0.6857 -0.7279 0.7279 0.6857 83.2145 379.3514)" class="st3" cx="480.9" cy="93.3" rx="5.4" ry="10.1"/>
	
		<ellipse transform="matrix(0.6857 -0.7279 0.7279 0.6857 86.446 402.7768)" class="st3" cx="509.6" cy="101.3" rx="5.4" ry="10.1"/>
	
		<ellipse transform="matrix(0.6857 -0.7279 0.7279 0.6857 59.6869 477.8039)" class="st3" cx="583.1" cy="169.8" rx="5.4" ry="10.1"/>
	
		<ellipse transform="matrix(0.6857 -0.7279 0.7279 0.6857 -99.6963 378.1318)" class="st7" cx="388" cy="304.5" rx="5.4" ry="10.1"/>
	
		<ellipse transform="matrix(0.6857 -0.7279 0.7279 0.6857 -116.7141 382.6013)" class="st7" cx="384.7" cy="326.5" rx="5.4" ry="10.1"/>
	
		<ellipse transform="matrix(0.6857 -0.7279 0.7279 0.6857 -75.0451 149.8301)" class="st7" cx="136" cy="161.8" rx="5.4" ry="10.1"/>
	
		<ellipse transform="matrix(0.6857 -0.7279 0.7279 0.6857 -85.9282 103.2921)" class="st7" cx="76.6" cy="151.1" rx="5.4" ry="10.1"/>
</g>
</svg>
