<?xml version="1.0" encoding="utf-8"?>
<!-- Generator: Adobe Illustrator 18.0.0, SVG Export Plug-In . SVG Version: 6.00 Build 0)  -->
<!DOCTYPE svg PUBLIC "-//W3C//DTD SVG 1.1//EN" "http://www.w3.org/Graphics/SVG/1.1/DTD/svg11.dtd" [
	<!ENTITY ns_flows "http://ns.adobe.com/Flows/1.0/">
	<!ENTITY ns_extend "http://ns.adobe.com/Extensibility/1.0/">
	<!ENTITY ns_ai "http://ns.adobe.com/AdobeIllustrator/10.0/">
	<!ENTITY ns_graphs "http://ns.adobe.com/Graphs/1.0/">
]>
<svg version="1.1" id="Layer_1" xmlns:x="&ns_extend;" xmlns:i="&ns_ai;" xmlns:graph="&ns_graphs;"
	 xmlns="http://www.w3.org/2000/svg" xmlns:xlink="http://www.w3.org/1999/xlink" xmlns:a="http://ns.adobe.com/AdobeSVGViewerExtensions/3.0/"
	 x="0px" y="0px" viewBox="0 0 2272 1872" enable-background="new 0 0 2272 1872" xml:space="preserve">
<g>
	<rect fill="#E1F4FD" width="2272" height="1872"/>
	<g>
		<path fill="#CDDAE3" d="M1946,1402.8c93.9-117.7,150-266.9,150-429.2c0-380.5-308.5-688.9-688.9-688.9
			c-49.3,0-97.5,5.2-143.9,15.1c-95.3-82.1-219.3-131.8-355-131.8c-300.4,0-544,243.6-544,544c0,0.4,0,0.7,0,1
			C249.6,803,176,942.8,176,1099.8c0,114.4,39.1,219.6,104.6,303.1H1946z"/>
		<circle fill="#FCEF53" cx="561.8" cy="823.8" r="99"/>
		<path fill="#E9F7FE" d="M333.3,1168.1h1205.9c27.3-45,46.5-95.4,55.8-149.3c-8.9,14.7-10.3,27.1-10.3,27.1s-14.7-45-25.6-46.6
			c-10.9-1.6-24.9,12.4-24.9,12.4s-2.3-52.8-22.5-66.8c-20.2-14-48.9-19.4-58.3-6.2c-6.7,9.5-8.6,12.5-9.1,13.5
			c1.2-2.5,16.2-33.4,0.5-44.6c-16.3-11.6-31.8,14-31.8,14s10.1-24.9,2.3-35.7c-7.8-10.9-38.8-17.1-39.6-6.2
			c-0.8,10.9-0.8,28.7-0.8,28.7s-2.3-50.5-32.6-73c-30.3-22.5-104.9-18.6-113.4-1.6c-8.5,17.1-8.5,17.1-8.5,17.1
			s-0.8-17.9-20.2-23.3c-19.4-5.4-39.6,8.5-39.6,18.6c0,10.1,0,10.1,0,10.1s-5.4-15.5-22.5-13.2c-17.1,2.3-17.9,38.1-17.9,38.1
			s-10.9-16.3-30.3-5.4c-19.4,10.9-17.1,45.8-17.1,45.8s-72.2-44.3-115.7-8.5c-43.5,35.7-49.7,87-49.7,87s-35.7-24.9-54.4-21.8
			c-18.6,3.1-46.6,18.6-51.3,48.2c-4.7,29.5-4.7,29.5-4.7,29.5s-17.1-20.2-38.8-14c-21.8,6.2-31.1,23.3-31.1,23.3
			s-31.1-15.5-66.8,1.6c-35.7,17.1-3.1-32.6-32.6-54.4c-29.5-21.7-74.6-3.1-74.6-3.1s29.5-111.8-41.9-144.5
			c-42.7-19.5-70.3-20.1-81.8-16.9c-0.4,4.4-0.8,7.2-0.8,7.2c-7.4-1.1-6.9-5,0.8-7.2c2.4-24.4,6.8-104.4-36.1-110.8
			c-50.5-7.6-59.8,33.6-59.8,33.7c2.6-11.6,3.2-22.9,2.1-33.8c0,0,0,0,0,0c-42.2,38.6-77.6,84.4-104.3,135.5c0,0,0,0,0,0.1
			c-3.1,6-6.1,12-9,18.1c0,0.1-0.1,0.1-0.1,0.2c-2.9,6.1-5.6,12.3-8.2,18.5c0,0.1-0.1,0.2-0.1,0.3c-2.6,6.2-5.1,12.5-7.4,18.8
			c0,0.1-0.1,0.2-0.1,0.3c-2.3,6.3-4.6,12.7-6.6,19.1c0,0.1-0.1,0.2-0.1,0.4c-2.1,6.4-4,12.9-5.9,19.5c0,0.1-0.1,0.3-0.1,0.4
			c-1.8,6.5-3.5,13.1-5,19.8c0,0.1-0.1,0.3-0.1,0.4c-1.5,6.7-2.9,13.4-4.2,20.1c0,0.1,0,0.3-0.1,0.4c-0.6,3.4-1.2,6.7-1.8,10.1
			c0,0,0,0,0,0c-4.3,26.2-6.6,53.2-6.6,80.7c0,68.6,14,133.8,39.4,193.1C278.9,1282.4,328,1231.2,333.3,1168.1z"/>
		<path fill="#E9F7FE" d="M246.8,1354.1h1734.7c72.3-109,114.5-239.8,114.5-380.4c0-6.7-0.1-13.4-0.3-20.1
			c-18.7-3.5-31.2,2.6-31.2,2.6s14.9-7.9-2.6-48.2c-17.5-40.3-61.4-16.7-61.4-16.7s3.5-22.8-12.3-29.8c-15.8-7-43.8,8.8-43.8,8.8
			c8.6-60.1-51.8-127.7-104.3-144.3c-97.8-30.8-240.5,59.4-214.8,174.1c0-0.2-10.6-47.3-68.4-38.6c-49,7.4-43.9,98.9-41.2,126.8
			c8.8,2.5,9.4,7,0.9,8.3c0,0-0.4-3.2-0.9-8.3c-13.1-3.7-44.7-3-93.5,19.3c-81.7,37.3-48,165.2-48,165.2s-51.5-21.3-85.3,3.5
			c-33.7,24.9,3.6,81.7-37.3,62.2c-40.9-19.5-76.4-1.8-76.4-1.8s-10.7-19.5-35.5-26.6c-24.9-7.1-44.4,16-44.4,16s0,0-5.3-33.7
			c-5.3-33.7-37.3-51.5-58.6-55.1c-21.3-3.5-62.2,24.9-62.2,24.9s-7.1-58.6-56.8-99.5c-49.7-40.9-132.3,9.8-132.3,9.8
			s2.7-40-19.5-52.4c-22.2-12.4-34.6,6.2-34.6,6.2s-0.9-40.9-20.4-43.5c-19.5-2.7-25.8,15.1-25.8,15.1s0,0,0-11.5
			c0-11.5-23.1-27.5-45.3-21.3c-22.2,6.2-23.1,26.6-23.1,26.6s0,0-9.8-19.5c-9.8-19.5-95-24-129.7,1.8
			c-34.6,25.8-37.3,83.5-37.3,83.5s0-20.4-0.9-32.9c-0.9-12.4-36.4-5.3-45.3,7.1c-8.9,12.4,2.7,40.9,2.7,40.9s-17.8-29.3-36.4-16
			c-17.9,12.8-0.8,48.1,0.6,51c-0.6-1.1-2.7-4.6-10.4-15.4c-10.7-15.1-43.5-8.9-66.6,7.1c-23.1,16-25.8,76.4-25.8,76.4
			s-16-16-28.4-14.2c-12.4,1.8-29.3,53.3-29.3,53.3s-1.5-14.2-11.7-31C193.6,1245,215.6,1302.6,246.8,1354.1z"/>
		<g>
			<path fill="#AD492D" d="M1880,1145.9c-0.8,0-6.1-2.4-6.1-2.4s-5.4,2.4-6.1,2.4l-1.5,106.4h7.7h7.7L1880,1145.9z"/>
			<g>
				<path fill="#86A037" d="M1880.2,979.2c-2.3-6-10.4-6-12.7,0c-18.8,48.8-39.7,118.6-39.7,166.5c0,26.7,11.5,40.3,23,47.3
					c14.2,8.6,31.9,8.6,46.1,0c11.5-7,23-20.6,23-47.3C1920,1097.8,1899.1,1028,1880.2,979.2z"/>
				<path fill="#92AE3D" d="M1871.5,986.3c-1-2.5-3-3.8-5.1-4.1c-18.5,48.6-38.6,116.6-38.6,163.5c0,12.2,2.4,21.7,6.2,29.1
					c3.2,3.8,6.8,6.7,10.4,8.9c13.1,7.9,29.4,7.9,42.6,0c10.6-6.4,21.3-19,21.3-43.7C1908.2,1095.8,1888.8,1031.3,1871.5,986.3z"/>
			</g>
		</g>
		<g>
			<path fill="#AD492D" d="M685.5,1145.9c-0.8,0-6.1-2.4-6.1-2.4s-5.4,2.4-6.1,2.4l-1.5,106.4h7.7h7.7L685.5,1145.9z"/>
			<g>
				<path fill="#86A037" d="M685.8,979.2c-2.3-6-10.4-6-12.7,0c-18.8,48.8-39.7,118.6-39.7,166.5c0,26.7,11.5,40.3,23,47.3
					c14.2,8.6,31.9,8.6,46.1,0c11.5-7,23-20.6,23-47.3C725.5,1097.8,704.6,1028,685.8,979.2z"/>
				<path fill="#92AE3D" d="M677,986.3c-1-2.5-3-3.8-5.1-4.1c-18.5,48.6-38.6,116.6-38.6,163.5c0,12.2,2.4,21.7,6.2,29.1
					c3.2,3.8,6.8,6.7,10.4,8.9c13.1,7.9,29.4,7.9,42.6,0c10.6-6.4,21.3-19,21.3-43.7C713.7,1095.8,694.4,1031.3,677,986.3z"/>
			</g>
		</g>
		<g>
			<g>
				<g>
					<g>
						<path fill="#964144" d="M1740.8,1167.1h-132.2l63.4-55.1l-33.4-28.9h71.6L1677,1112L1740.8,1167.1z M1617.5,1163.7h114.3
							l-57.4-49.5L1617.5,1163.7z M1647.5,1086.5l27,23.3l26.8-23.3H1647.5z"/>
						<path fill="#964144" d="M1764.3,1247.5c-1.6,0-3.1-1.1-3.8-2.8l-91.3-243.2c-0.9-2.3,0.1-5,2.2-6c2.1-1,4.5,0.1,5.3,2.4
							l91.3,243.2c0.9,2.3-0.1,5-2.2,6C1765.3,1247.4,1764.8,1247.5,1764.3,1247.5z"/>
						<path fill="#964144" d="M1583.8,1247.5c-0.5,0-1.1-0.1-1.6-0.4c-2.1-1-3.1-3.6-2.2-6l91.3-243.2c0.9-2.3,3.3-3.4,5.3-2.4
							c2.1,1,3.1,3.6,2.2,6l-91.3,243.2C1586.9,1246.4,1585.4,1247.5,1583.8,1247.5z"/>
					</g>
				</g>
				<g>
					<polygon fill-rule="evenodd" clip-rule="evenodd" fill="#A4774E" points="1674.2,999.1 1674.2,888.9 1705.5,875.2 
						1705.5,911.7 					"/>
					<polygon fill-rule="evenodd" clip-rule="evenodd" fill="#926A44" points="1705.5,875.2 1682.7,902.8 1674.2,999.1 
						1674.2,888.9 					"/>
					<polygon fill-rule="evenodd" clip-rule="evenodd" fill="#A4774E" points="1673.7,999.2 1588.2,944.1 1593.2,907 1621.5,925.3 
											"/>
					<polygon fill-rule="evenodd" clip-rule="evenodd" fill="#926A44" points="1593.2,907 1603.2,942.8 1673.7,999.2 1588.2,944.1 
											"/>
					<polygon fill-rule="evenodd" clip-rule="evenodd" fill="#A4774E" points="1673.5,999.8 1588,1054.9 1561.7,1031.5 1590,1013.2 
											"/>
					<polygon fill-rule="evenodd" clip-rule="evenodd" fill="#926A44" points="1561.7,1031.5 1594.5,1039.8 1673.5,999.8 
						1588,1054.9 					"/>
					<polygon fill-rule="evenodd" clip-rule="evenodd" fill="#A4774E" points="1673.9,1000.3 1673.9,1110.5 1642.5,1124.2 
						1642.5,1087.7 					"/>
					<polygon fill-rule="evenodd" clip-rule="evenodd" fill="#926A44" points="1642.5,1124.2 1665.3,1096.6 1673.9,1000.3 
						1673.9,1110.5 					"/>
					<polygon fill-rule="evenodd" clip-rule="evenodd" fill="#A4774E" points="1674.4,1000.1 1759.9,1055.3 1754.9,1092.4 
						1726.5,1074.1 					"/>
					<polygon fill-rule="evenodd" clip-rule="evenodd" fill="#926A44" points="1754.9,1092.4 1744.9,1056.5 1674.4,1000.1 
						1759.9,1055.3 					"/>
					<polygon fill-rule="evenodd" clip-rule="evenodd" fill="#A4774E" points="1674.6,999.6 1760.1,944.5 1786.4,967.9 1758,986.1 
											"/>
					<polygon fill-rule="evenodd" clip-rule="evenodd" fill="#926A44" points="1786.4,967.9 1753.6,959.6 1674.6,999.6 
						1760.1,944.5 					"/>
				</g>
				<g>
					<ellipse fill-rule="evenodd" clip-rule="evenodd" fill="#8B3B3E" cx="1674" cy="999.7" rx="17.9" ry="20"/>
					<ellipse fill-rule="evenodd" clip-rule="evenodd" fill="#A4774E" cx="1674" cy="999.7" rx="10.8" ry="12.1"/>
				</g>
			</g>
			<g>
				<g>
					<g>
						<path fill="#964144" d="M814.6,1167.1H682.4l63.4-55.1l-33.4-28.9h71.6l-33.2,28.9L814.6,1167.1z M691.3,1163.7h114.3
							l-57.4-49.5L691.3,1163.7z M721.3,1086.5l27,23.3l26.8-23.3H721.3z"/>
						<path fill="#964144" d="M838,1247.5c-1.6,0-3.1-1.1-3.8-2.8L743,1001.5c-0.9-2.3,0.1-5,2.2-6c2.1-1,4.5,0.1,5.3,2.4
							l91.3,243.2c0.9,2.3-0.1,5-2.2,6C839.1,1247.4,838.6,1247.5,838,1247.5z"/>
						<path fill="#964144" d="M657.6,1247.5c-0.5,0-1.1-0.1-1.6-0.4c-2.1-1-3.1-3.6-2.2-6l91.3-243.2c0.9-2.3,3.3-3.4,5.3-2.4
							c2.1,1,3.1,3.6,2.2,6l-91.3,243.2C660.7,1246.4,659.2,1247.5,657.6,1247.5z"/>
					</g>
				</g>
				<g>
					<polygon fill-rule="evenodd" clip-rule="evenodd" fill="#A4774E" points="748,999.1 748,888.9 779.3,875.2 779.3,911.7 					
						"/>
					<polygon fill-rule="evenodd" clip-rule="evenodd" fill="#926A44" points="779.3,875.2 756.5,902.8 748,999.1 748,888.9 					
						"/>
					<polygon fill-rule="evenodd" clip-rule="evenodd" fill="#A4774E" points="747.5,999.2 661.9,944.1 667,907 695.3,925.3 					
						"/>
					<polygon fill-rule="evenodd" clip-rule="evenodd" fill="#926A44" points="667,907 677,942.8 747.5,999.2 661.9,944.1 					"/>
					<polygon fill-rule="evenodd" clip-rule="evenodd" fill="#A4774E" points="747.3,999.8 661.8,1054.9 635.5,1031.5 663.8,1013.2 
											"/>
					<polygon fill-rule="evenodd" clip-rule="evenodd" fill="#926A44" points="635.5,1031.5 668.3,1039.8 747.3,999.8 661.8,1054.9 
											"/>
					<polygon fill-rule="evenodd" clip-rule="evenodd" fill="#A4774E" points="747.6,1000.3 747.6,1110.5 716.3,1124.2 
						716.3,1087.7 					"/>
					<polygon fill-rule="evenodd" clip-rule="evenodd" fill="#926A44" points="716.3,1124.2 739.1,1096.6 747.6,1000.3 
						747.6,1110.5 					"/>
					<polygon fill-rule="evenodd" clip-rule="evenodd" fill="#A4774E" points="748.2,1000.1 833.7,1055.3 828.6,1092.4 
						800.3,1074.1 					"/>
					<polygon fill-rule="evenodd" clip-rule="evenodd" fill="#926A44" points="828.6,1092.4 818.7,1056.5 748.2,1000.1 
						833.7,1055.3 					"/>
					<polygon fill-rule="evenodd" clip-rule="evenodd" fill="#A4774E" points="748.3,999.6 833.9,944.5 860.1,967.9 831.8,986.1 
											"/>
					<polygon fill-rule="evenodd" clip-rule="evenodd" fill="#926A44" points="860.1,967.9 827.3,959.6 748.3,999.6 833.9,944.5 
											"/>
				</g>
				<g>
					<ellipse fill-rule="evenodd" clip-rule="evenodd" fill="#8B3B3E" cx="747.8" cy="999.7" rx="17.9" ry="20"/>
					<ellipse fill-rule="evenodd" clip-rule="evenodd" fill="#A4774E" cx="747.8" cy="999.7" rx="10.8" ry="12.1"/>
				</g>
			</g>
		</g>
		<g>
			<rect x="830" y="916.1" fill-rule="evenodd" clip-rule="evenodd" fill="#6D6E71" width="114.6" height="336.1"/>
			<rect x="830" y="929.6" fill-rule="evenodd" clip-rule="evenodd" fill="#705865" width="114.6" height="6.7"/>
			<rect x="830" y="991.3" fill-rule="evenodd" clip-rule="evenodd" fill="#705865" width="114.6" height="6.7"/>
			<rect x="830" y="1052.9" fill-rule="evenodd" clip-rule="evenodd" fill="#705865" width="114.6" height="6.7"/>
			<rect x="830" y="1114.5" fill-rule="evenodd" clip-rule="evenodd" fill="#705865" width="114.6" height="6.7"/>
			<rect x="830" y="1176.1" fill-rule="evenodd" clip-rule="evenodd" fill="#705865" width="114.6" height="6.7"/>
			<rect x="830" y="1237.8" fill-rule="evenodd" clip-rule="evenodd" fill="#705865" width="114.6" height="6.7"/>
			<path fill-rule="evenodd" clip-rule="evenodd" fill="#333333" d="M948.8,917.1c-1-33.1-28.2-59.7-61.6-59.7s-60.6,26.6-61.6,59.7
				H948.8z"/>
		</g>
		<path fill="#B0D380" d="M1970.7,1330.2H578.6V1316c0-42.1,34.1-76.2,76.2-76.2h1239.8c42.1,0,76.2,34.1,76.2,76.2V1330.2z"/>
		<path fill="#86B23F" d="M1233.6,1319.8c0,0-2.9-16.9,13.8-10.8c0,0-2.4-30.4,27-14.8c0,0-0.5-10.6,8-4.5c0,0,14.5-34.1,38.6-1.6
			c0,0,5.2-7,8.9,1.6c0,0,9.1-8.9,13.3,2.8c0,0,31.4-5.3,18.8,24.4c0,0,4.4-6.4,7.2,3.7L1233.6,1319.8z"/>
		<path fill="#86B23F" d="M717,1319.8c0,0-2.9-16.9,13.8-10.8c0,0-2.4-30.4,27-14.8c0,0-0.5-10.6,8-4.5c0,0,14.5-34.1,38.6-1.6
			c0,0,5.2-7,8.9,1.6c0,0,9.1-8.9,13.3,2.8c0,0,31.4-5.3,18.8,24.4c0,0,4.4-6.4,7.2,3.7L717,1319.8z"/>
		<path fill="#D0DC59" d="M2018.8,1386.7H248.2l0,0c0-43.7,35.4-79.1,79.1-79.1h1612.4C1983.4,1307.6,2018.8,1343,2018.8,1386.7
			L2018.8,1386.7z"/>
		<g>
			<polygon fill-rule="evenodd" clip-rule="evenodd" fill="#B92025" points="1513.7,1111.9 1183.4,1111.9 1183.4,1239 1513.7,1239 
				1513.7,1111.9 			"/>
			<polygon fill-rule="evenodd" clip-rule="evenodd" fill="#CDCCCC" points="1183.4,1111.9 1194.4,1111.9 1194.4,1239 1183.4,1239 
				1183.4,1111.9 			"/>
			<polygon fill-rule="evenodd" clip-rule="evenodd" fill="#ED2224" points="1183.4,1239 917.3,1239 917.3,1111.9 1183.4,1111.9 
				1183.4,1239 			"/>
			<polygon fill-rule="evenodd" clip-rule="evenodd" fill="#B4B4B4" points="1123,1239 955.6,1239 955.6,1146.5 1123,1146.5 
				1123,1239 			"/>
			<polygon fill-rule="evenodd" clip-rule="evenodd" fill="#010101" points="1115.4,1239 962.5,1239 962.5,1153.4 1115.4,1153.4 
				1115.4,1239 			"/>
			<path fill-rule="evenodd" clip-rule="evenodd" fill="#333333" d="M1249.4,1111.9H1385h135.6l0,0c0-100.3-60.7-181.5-135.6-181.5
				h-342v181.5H1249.4L1249.4,1111.9z"/>
			<path fill-rule="evenodd" clip-rule="evenodd" fill="#484848" d="M1439.1,945.3c-16.6-9.6-34.8-15-54-15h-342v15H1439.1
				L1439.1,945.3z"/>
			<path fill-rule="evenodd" clip-rule="evenodd" fill="#292929" d="M1249.4,1111.9H1385h135.6l0,0c0-24.4-3.6-47.7-10.2-69H1043v69
				H1249.4L1249.4,1111.9z"/>
			<path fill-rule="evenodd" clip-rule="evenodd" fill="#1E1E1E" d="M1249.4,1111.9H1385h135.6l0,0c0-7.4-0.3-14.7-1-21.8h-429.3
				v21.8H1249.4L1249.4,1111.9z"/>
			<path fill-rule="evenodd" clip-rule="evenodd" fill="#989898" d="M1047.8,930.3c-74.9,0-135.6,81.3-135.6,181.5l0,0h271.2l0,0
				C1183.4,1011.6,1122.6,930.3,1047.8,930.3L1047.8,930.3z"/>
			<path fill-rule="evenodd" clip-rule="evenodd" fill="#ED2224" d="M1047.8,940.3c-66.7,0-120.7,72.4-120.7,161.6l0,0h241.5l0,0
				C1168.5,1012.6,1114.4,940.3,1047.8,940.3L1047.8,940.3z"/>
			<polygon fill-rule="evenodd" clip-rule="evenodd" fill="#E6E6E5" points="1068.3,1010.1 1010.1,1010.1 1010.1,1088.8 
				1068.3,1088.8 1068.3,1010.1 			"/>
			<polygon fill-rule="evenodd" clip-rule="evenodd" fill="#010101" points="1064.1,1015.8 1014.3,1015.8 1014.3,1083.1 
				1064.1,1083.1 1064.1,1015.8 			"/>
			<polygon fill-rule="evenodd" clip-rule="evenodd" fill="#E6E6E5" points="1043,1010.1 1036.1,1010.1 1036.1,1088.8 1043,1088.8 
				1043,1010.1 			"/>
			<polygon fill-rule="evenodd" clip-rule="evenodd" fill="#E6E6E5" points="1068.3,1041.7 1010.1,1041.7 1010.1,1046 1068.3,1046 
				1068.3,1041.7 			"/>
			<polygon fill-rule="evenodd" clip-rule="evenodd" fill="#ED2224" points="1168.5,1101.9 927.1,1101.9 927.1,1124 1168.5,1124 
				1168.5,1101.9 			"/>
			<polygon fill-rule="evenodd" clip-rule="evenodd" fill="#E6E6E5" points="1454.8,1164.8 1255.4,1164.8 1255.4,1209.9 
				1454.8,1209.9 1454.8,1164.8 			"/>
			<polygon fill-rule="evenodd" clip-rule="evenodd" fill="#010101" points="1451.7,1166.4 1258.5,1166.4 1258.5,1208.3 
				1451.7,1208.3 1451.7,1166.4 			"/>
			<polygon fill-rule="evenodd" clip-rule="evenodd" fill="#B4B4B4" points="1416,1166.4 1410.3,1166.4 1410.3,1208.3 1416,1208.3 
				1416,1166.4 			"/>
			<polygon fill-rule="evenodd" clip-rule="evenodd" fill="#B4B4B4" points="1377.7,1166.4 1372,1166.4 1372,1208.3 1377.7,1208.3 
				1377.7,1166.4 			"/>
			<polygon fill-rule="evenodd" clip-rule="evenodd" fill="#B4B4B4" points="1337.2,1166.4 1331.5,1166.4 1331.5,1208.3 
				1337.2,1208.3 1337.2,1166.4 			"/>
			<polygon fill-rule="evenodd" clip-rule="evenodd" fill="#B4B4B4" points="1297.6,1166.4 1291.9,1166.4 1291.9,1208.3 
				1297.6,1208.3 1297.6,1166.4 			"/>
		</g>
		<g>
			<rect x="1615.9" y="1180.9" fill="#9C6332" width="266.9" height="5.3"/>
			<rect x="1615.9" y="1195.3" fill="#9C6332" width="266.9" height="5.3"/>
			<rect x="1615.9" y="1209.7" fill="#9C6332" width="266.9" height="5.3"/>
			<rect x="1615.9" y="1224.1" fill="#9C6332" width="266.9" height="5.3"/>
			<rect x="1612.7" y="1175.7" fill="#865528" width="6.5" height="68"/>
			<rect x="1701" y="1175.7" fill="#865528" width="6.5" height="68"/>
			<rect x="1789.3" y="1175.7" fill="#865528" width="6.5" height="68"/>
			<rect x="1877.5" y="1175.7" fill="#865528" width="6.5" height="68"/>
		</g>
		<g>
			<rect x="704.4" y="1180.9" fill="#9C6332" width="445.1" height="5.3"/>
			<rect x="704.4" y="1195.3" fill="#9C6332" width="445.1" height="5.3"/>
			<rect x="704.4" y="1209.7" fill="#9C6332" width="445.1" height="5.3"/>
			<rect x="704.4" y="1224.1" fill="#9C6332" width="445.1" height="5.3"/>
			<rect x="701.2" y="1175.7" fill="#865528" width="6.5" height="68"/>
			<rect x="789.4" y="1175.7" fill="#865528" width="6.5" height="68"/>
			<rect x="877.7" y="1175.7" fill="#865528" width="6.5" height="68"/>
			<rect x="966" y="1175.7" fill="#865528" width="6.5" height="68"/>
			<rect x="1054.3" y="1175.7" fill="#865528" width="6.5" height="68"/>
		</g>
		<g>
			<rect x="1146.8" y="1180.9" fill="#9C6332" width="392.1" height="5.3"/>
			<rect x="1146.8" y="1195.3" fill="#9C6332" width="392.1" height="5.3"/>
			<rect x="1146.8" y="1209.7" fill="#9C6332" width="392.1" height="5.3"/>
			<rect x="1146.8" y="1224.1" fill="#9C6332" width="392.1" height="5.3"/>
			<rect x="1143.5" y="1175.7" fill="#865528" width="6.5" height="68"/>
			<rect x="1231.8" y="1175.7" fill="#865528" width="6.5" height="68"/>
			<rect x="1320.1" y="1175.7" fill="#865528" width="6.5" height="68"/>
			<rect x="1408.3" y="1175.7" fill="#865528" width="6.5" height="68"/>
			<rect x="1496.6" y="1175.7" fill="#865528" width="6.5" height="68"/>
		</g>
		<g>
			<path fill="#AD492D" d="M533.9,1190.7c-1.1,0-8.4-3.2-8.4-3.2s-7.4,3.2-8.4,3.2l-2.1,146.2h10.6H536L533.9,1190.7z"/>
			<g>
				<path fill="#86A037" d="M534.2,961.6c-3.2-8.2-14.3-8.2-17.5,0c-25.9,67.1-54.6,163.1-54.6,228.9c0,36.7,15.8,55.4,31.7,65
					c19.5,11.8,43.8,11.8,63.4,0c15.8-9.6,31.7-28.4,31.7-65C588.8,1124.7,560.1,1028.7,534.2,961.6z"/>
				<path fill="#92AE3D" d="M522.2,971.4c-1.3-3.4-4.1-5.3-7-5.6c-25.4,66.8-53,160.3-53,224.7c0,16.8,3.3,29.9,8.5,40
					c4.4,5.2,9.3,9.2,14.3,12.2c18,10.9,40.5,10.9,58.5,0c14.6-8.9,29.2-26.2,29.2-60C572.6,1121.9,546,1033.3,522.2,971.4z"/>
			</g>
		</g>
		<g>
			<path fill="#AD492D" d="M1579.5,1150.8c-1.3,0-10.5-4.1-10.5-4.1s-9.2,4.1-10.5,4.1l-2.6,182.4h13.2h13.2L1579.5,1150.8z"/>
			<g>
				<path fill="#86A037" d="M1579.8,865c-4-10.3-17.8-10.3-21.8,0c-32.3,83.7-68.1,203.4-68.1,285.5c0,45.7,19.8,69.1,39.5,81.1
					c24.4,14.8,54.7,14.8,79,0c19.8-12,39.5-35.4,39.5-81.1C1648,1068.4,1612.1,948.7,1579.8,865z"/>
				<path fill="#92AE3D" d="M1564.8,877.2c-1.6-4.2-5.1-6.6-8.7-7c-31.7,83.4-66.2,199.9-66.2,280.3c0,21,4.2,37.3,10.6,49.9
					c5.5,6.5,11.6,11.5,17.8,15.2c22.5,13.6,50.5,13.6,73,0c18.2-11,36.5-32.6,36.5-74.9C1627.7,1065,1594.6,954.4,1564.8,877.2z"/>
			</g>
		</g>
		<g>
			<path fill="#AD492D" d="M1772.2,1180.2c-1.1,0-8.4-3.2-8.4-3.2s-7.4,3.2-8.4,3.2l-2.1,145.5h10.5h10.5L1772.2,1180.2z"/>
			<g>
				<path fill="#86A037" d="M1772.4,952.3c-3.2-8.2-14.2-8.2-17.4,0c-25.7,66.7-54.3,162.2-54.3,227.7c0,36.5,15.8,55.1,31.5,64.7
					c19.4,11.8,43.6,11.8,63,0c15.8-9.5,31.5-28.2,31.5-64.7C1826.8,1114.5,1798.2,1019,1772.4,952.3z"/>
				<path fill="#92AE3D" d="M1760.5,962c-1.3-3.4-4.1-5.2-7-5.6c-25.3,66.5-52.8,159.4-52.8,223.5c0,16.7,3.3,29.7,8.4,39.8
					c4.4,5.2,9.3,9.2,14.2,12.1c17.9,10.9,40.2,10.9,58.2,0c14.5-8.8,29.1-26,29.1-59.7C1810.6,1111.7,1784.2,1023.6,1760.5,962z"/>
			</g>
		</g>
		<g>
			<path fill="#AD492D" d="M1474.7,1177.8c-1.2,0-10-3.8-10-3.8s-8.7,3.8-10,3.8l-2.5,172.3h12.4h12.4L1474.7,1177.8z"/>
			<g>
				<path fill="#86A037" d="M1475.1,907.9c-3.7-9.7-16.8-9.7-20.6,0c-30.5,79-64.4,192.1-64.4,269.7c0,43.2,18.7,65.3,37.3,76.6
					c23,13.9,51.6,13.9,74.7,0c18.7-11.3,37.3-33.4,37.3-76.6C1539.4,1100,1505.6,986.9,1475.1,907.9z"/>
				<path fill="#92AE3D" d="M1460.9,919.4c-1.5-4-4.8-6.2-8.3-6.6c-30,78.8-62.5,188.8-62.5,264.8c0,19.8,3.9,35.2,10,47.1
					c5.2,6.2,11,10.9,16.8,14.4c21.3,12.9,47.7,12.9,68.9,0c17.2-10.4,34.5-30.8,34.5-70.7C1520.3,1096.8,1489,992.4,1460.9,919.4z"
					/>
			</g>
		</g>
		<g>
			<path fill="#AD492D" d="M409.3,1179.7c-1.2,0-10-3.8-10-3.8s-8.7,3.8-10,3.8l-2.5,172.3h12.4h12.4L409.3,1179.7z"/>
			<g>
				<path fill="#86A037" d="M409.7,909.8c-3.7-9.7-16.8-9.7-20.6,0c-30.5,79-64.4,192.1-64.4,269.7c0,43.2,18.7,65.3,37.3,76.6
					c23,13.9,51.6,13.9,74.7,0c18.7-11.3,37.3-33.4,37.3-76.6C474,1101.9,440.1,988.8,409.7,909.8z"/>
				<path fill="#92AE3D" d="M395.5,921.3c-1.5-4-4.8-6.2-8.3-6.6c-30,78.8-62.5,188.8-62.5,264.8c0,19.8,3.9,35.2,10,47.1
					c5.2,6.2,11,10.9,16.8,14.4c21.3,12.9,47.7,12.9,68.9,0c17.2-10.4,34.5-30.8,34.5-70.7C454.9,1098.6,423.6,994.2,395.5,921.3z"
					/>
			</g>
		</g>
		<path fill="#6C923D" d="M1353.2,1373.5c0,0-8.5-49,40.2-31.2c0,0-7-88.2,78.5-42.9c0,0-1.5-30.8,23.1-13.1
			c0,0,42.2-98.9,112.1-4.7c0,0,15.1-20.5,25.8,4.6c0,0,26.5-25.9,38.6,8c0,0,91.2-15.4,54.6,70.8c0,0,12.7-18.5,20.9,10.7
			L1353.2,1373.5z"/>
		<path fill="#6C923D" d="M515.1,1381.9c0,0-7.3-42.3,34.7-27c0,0-6-76.3,67.9-37.1c0,0-1.3-26.6,20-11.4c0,0,36.5-85.5,96.9-4.1
			c0,0,13-17.7,22.3,4c0,0,22.9-22.4,33.4,7c0,0,78.9-13.4,47.2,61.3c0,0,11-16,18.1,9.3L515.1,1381.9z"/>
		<path fill="#6C923D" d="M257.5,1394.7c0,0-24.2-48.3,28.5-45.8c0,0,5.5-37.5,40.1-11.3c0,0,5.3-73.3,81-37.8c0,0,16.7-35.1,34-0.3
			c0,0,38.7-62.4,71.7-0.5c0,0,10.8-29.7,30.5-6.1c0,0,94.2-37.1,81.7,69.8c0,0,30.6-9.9,25.2,25.7L257.5,1394.7z"/>
		<path fill="#86B23F" d="M413.3,1384.8c0,0-7.3-42.3,34.7-27c0,0-6-76.3,67.9-37.1c0,0-1.3-26.6,20-11.4c0,0,36.5-85.5,96.9-4.1
			c0,0,13-17.7,22.3,4c0,0,22.9-22.4,33.4,7c0,0,78.9-13.4,47.2,61.3c0,0,11-16,18.1,9.3L413.3,1384.8z"/>
		<path fill="#86B23F" d="M1237,1384.8c0,0-5.9-34.1,28-21.7c0,0-4.9-61.4,54.6-29.9c0,0-1-21.4,16.1-9.1c0,0,29.4-68.8,78-3.3
			c0,0,10.5-14.2,18,3.2c0,0,18.5-18.1,26.9,5.6c0,0,63.5-10.8,38,49.3c0,0,8.8-12.9,14.5,7.5L1237,1384.8z"/>
		<path fill="#86B23F" d="M1508.5,1384.8c0,0-8.1-46.6,38.2-29.7c0,0-6.6-84,74.7-40.8c0,0-1.4-29.3,22-12.5
			c0,0,40.2-94.1,106.7-4.5c0,0,14.3-19.5,24.6,4.4c0,0,25.3-24.7,36.8,7.6c0,0,86.8-14.7,51.9,67.4c0,0,12.1-17.6,19.9,10.2
			L1508.5,1384.8z"/>
		<path fill="#86B23F" d="M1717,1384.8c0,0-6.1-35.3,29-22.5c0,0-5-63.7,56.6-31c0,0-1.1-22.2,16.7-9.5c0,0,30.4-71.4,80.9-3.4
			c0,0,10.9-14.8,18.6,3.3c0,0,19.1-18.7,27.9,5.8c0,0,65.8-11.1,39.4,51.1c0,0,9.2-13.3,15.1,7.7L1717,1384.8z"/>
		<path fill="#AFD04A" d="M2026,1414.9H244.1c-9.4,0-16.9-7.6-16.9-16.9l0,0c0-9.4,7.6-16.9,16.9-16.9H2026
			c9.4,0,16.9,7.6,16.9,16.9l0,0C2042.9,1407.4,2035.3,1414.9,2026,1414.9z"/>
		<path fill="#67B8E7" d="M1985,1429.2H302.1c-23.9,0-43.3,19.4-43.3,43.3l0,0c0,23.9,19.4,43.3,43.3,43.3h176.9
			c7.3,0,13.2,5.9,13.2,13.2l0,0c0,7.3-5.9,13.2-13.2,13.2h-41.4c-23.9,0-43.3,19.4-43.3,43.3l0,0c0,23.9,19.4,43.3,43.3,43.3h542.1
			c6.2,0,11.3,5.1,11.3,11.3l0,0c0,6.2-5.1,11.3-11.3,11.3h-43.3c-14.6,0-26.4,11.8-26.4,26.4l0,0c0,14.6,11.8,26.4,26.4,26.4h707.8
			c14.6,0,26.4-11.8,26.4-26.4l0,0c0-14.6-11.8-26.4-26.4-26.4h-43.3c-6.2,0-11.3-5.1-11.3-11.3l0,0c0-6.2,5.1-11.3,11.3-11.3h161.9
			c23.9,0,43.3-19.4,43.3-43.3l0,0c0-23.9-19.4-43.3-43.3-43.3h-33.9c-7.3,0-13.2-5.9-13.2-13.2l0,0c0-7.3,5.9-13.2,13.2-13.2h256
			c23.9,0,43.3-19.4,43.3-43.3l0,0C2028.2,1448.6,2008.9,1429.2,1985,1429.2z"/>
		<path fill="#E9F7FE" d="M1459,518.5h299.6c0,0-5.1-18.3-19.3-9.1c0,0,2-38.6-27.4-19.3c0,0,13.2-35.5-35.5-35.5
			c0,0-20.3,6.1-20.3,28.4c0,0-19.3-24.4-37.6,1c0,0-20.3-12.2-33.5,14.2c0,0-14.2-17.3-33.5,0s-3,4.1-3,4.1s-24.4-18.3-39.6,6.1
			C1508.8,508.4,1480.4,489.1,1459,518.5z"/>
		<path fill="#E9F7FE" d="M948.6,779.5H516.9c0,0,7.3-26.3,27.8-13.2c0,0-2.9-55.6,39.5-27.8c0,0-19-51.2,51.2-51.2
			c0,0,29.3,8.8,29.3,41c0,0,27.8-35.1,54.1,1.5c0,0,29.3-17.6,48.3,20.5c0,0,20.5-24.9,48.3,0c27.8,24.9,4.4,5.9,4.4,5.9
			s35.1-26.3,57.1,8.8C876.9,764.9,917.9,737.1,948.6,779.5z"/>
		<path fill="#B1782C" d="M2057.4,1436.7H212.7c-10.4,0-18.8-8.4-18.8-18.8v0c0-10.4,8.4-18.8,18.8-18.8h1844.7
			c10.4,0,18.8,8.4,18.8,18.8v0C2076.2,1428.3,2067.8,1436.7,2057.4,1436.7z"/>
		<path fill="#67B8E7" d="M862.1,1702.1h-79.1c-14,0-25.4-11.4-25.4-25.4v0c0-14,11.4-25.4,25.4-25.4h79.1c14,0,25.4,11.4,25.4,25.4
			v0C887.5,1690.7,876.1,1702.1,862.1,1702.1z"/>
		<path fill="#67B8E7" d="M1876.7,1630.6h-43.3c-9.9,0-17.9-8-17.9-17.9l0,0c0-9.9,8-17.9,17.9-17.9h43.3c9.9,0,17.9,8,17.9,17.9
			l0,0C1894.6,1622.6,1886.6,1630.6,1876.7,1630.6z"/>
		<path fill="#A3C7EA" d="M989.2,1587.3H885.6c-5.2,0-9.4-4.2-9.4-9.4l0,0c0-5.2,4.2-9.4,9.4-9.4h103.5c5.2,0,9.4,4.2,9.4,9.4l0,0
			C998.6,1583.1,994.4,1587.3,989.2,1587.3z"/>
		<path fill="#A3C7EA" d="M1024.3,1587.3h-6.3c-5.2,0-9.4-4.2-9.4-9.4l0,0c0-5.2,4.2-9.4,9.4-9.4h6.3c5.2,0,9.4,4.2,9.4,9.4l0,0
			C1033.7,1583.1,1029.5,1587.3,1024.3,1587.3z"/>
		<path fill="#A3C7EA" d="M1290.4,1481.3h-59.6c-5.2,0-9.4-4.2-9.4-9.4l0,0c0-5.2,4.2-9.4,9.4-9.4h59.6c5.2,0,9.4,4.2,9.4,9.4l0,0
			C1299.8,1477,1295.6,1481.3,1290.4,1481.3z"/>
		<path fill="#A3C7EA" d="M1206.3,1481.3h-6.3c-5.2,0-9.4-4.2-9.4-9.4l0,0c0-5.2,4.2-9.4,9.4-9.4h6.3c5.2,0,9.4,4.2,9.4,9.4l0,0
			C1215.7,1477,1211.5,1481.3,1206.3,1481.3z"/>
		<path fill="#A3C7EA" d="M639.5,1517.5h-59.6c-5.2,0-9.4-4.2-9.4-9.4l0,0c0-5.2,4.2-9.4,9.4-9.4h59.6c5.2,0,9.4,4.2,9.4,9.4l0,0
			C648.9,1513.3,644.7,1517.5,639.5,1517.5z"/>
		<path fill="#A3C7EA" d="M1484.9,1592.3h-1.3c-5.2,0-9.4-4.2-9.4-9.4l0,0c0-5.2,4.2-9.4,9.4-9.4h1.3c5.2,0,9.4,4.2,9.4,9.4l0,0
			C1494.3,1588.1,1490.1,1592.3,1484.9,1592.3z"/>
		<g>
			<g>
				<path fill="#2E6A7F" d="M981,490.7l-16.3-29.6h-11.6v29.6h-13.4V415h25.6c3.9,0,7.6,0.4,11,1.2c3.4,0.8,6.3,2,8.8,3.8
					c2.5,1.7,4.4,4,5.8,6.9c1.4,2.9,2.1,6.4,2.1,10.7c0,5.8-1.4,10.5-4.1,14c-2.7,3.6-6.4,6.1-10.9,7.6l18.1,31.6H981z M953.1,450.4
					h10.8c5.2,0,9.1-1.1,11.9-3.2c2.7-2.2,4.1-5.4,4.1-9.7c0-4.4-1.4-7.4-4.1-9.1c-2.7-1.7-6.7-2.5-11.9-2.5h-10.8V450.4z"/>
				<path fill="#2E6A7F" d="M1054.6,470.2h-25.5l-5.9,20.5h-13.7l24.7-75.7h15.7l24.7,75.7h-14.1L1054.6,470.2z M1051.6,459.7
					l-2.7-9.3c-1.2-4-2.4-8.1-3.5-12.4c-1.1-4.2-2.2-8.5-3.3-12.6h-0.5c-1.1,4.2-2.2,8.5-3.2,12.7c-1.1,4.2-2.2,8.3-3.5,12.3
					l-2.7,9.3H1051.6z"/>
				<path fill="#2E6A7F" d="M1095.6,415h13.8l23.6,42.6l7.8,16.1h0.5c-0.3-3.9-0.7-8.2-1.1-12.7c-0.4-4.5-0.6-8.9-0.6-13.1V415h12.9
					v75.7h-13.8l-23.6-42.6l-7.8-16.1h-0.5c0.3,4,0.7,8.2,1.1,12.6c0.4,4.4,0.6,8.7,0.6,13v33.1h-12.9V415z"/>
				<path fill="#2E6A7F" d="M1179.2,453.1c0-6.2,0.9-11.7,2.7-16.6c1.8-4.9,4.3-9,7.5-12.4c3.2-3.4,6.9-6,11.1-7.8
					c4.2-1.8,8.8-2.7,13.7-2.7c4.6,0,8.8,1,12.4,2.9c3.7,1.9,6.7,4.2,9.1,6.7l-7.5,8.3c-1.9-1.9-4-3.5-6.2-4.6
					c-2.2-1.1-4.8-1.7-7.7-1.7c-3.2,0-6,0.6-8.6,1.9c-2.6,1.3-4.8,3.1-6.7,5.4c-1.9,2.4-3.4,5.2-4.4,8.6c-1,3.4-1.6,7.2-1.6,11.5
					c0,8.6,1.9,15.4,5.6,20.3c3.7,4.9,8.8,7.4,15.2,7.4c3.4,0,6.3-0.7,8.9-2c2.5-1.3,4.8-3.2,7-5.6l7.5,8.2
					c-3.1,3.6-6.6,6.3-10.5,8.2c-3.9,1.9-8.3,2.8-13.1,2.8c-4.9,0-9.4-0.9-13.5-2.5c-4.2-1.7-7.8-4.2-10.9-7.5
					c-3.1-3.3-5.5-7.4-7.3-12.3C1180.1,464.9,1179.2,459.4,1179.2,453.1z"/>
				<path fill="#2E6A7F" d="M1261.4,415h13.4v30.4h30.7V415h13.4v75.7h-13.4v-33.6h-30.7v33.6h-13.4V415z"/>
			</g>
		</g>
		<g>
			<g>
				<path fill="#2E6A7F" d="M840.7,517.9h0.9v11.7h5.7v0.8h-6.6V517.9z"/>
				<path fill="#2E6A7F" d="M850.3,525.8c0-0.8,0.1-1.4,0.3-2c0.2-0.6,0.5-1.1,0.9-1.5c0.4-0.4,0.8-0.7,1.3-0.9
					c0.5-0.2,1-0.3,1.5-0.3c0.5,0,1.1,0.1,1.6,0.3c0.5,0.2,0.9,0.5,1.3,0.9c0.4,0.4,0.7,0.9,0.9,1.5c0.2,0.6,0.3,1.3,0.3,2
					c0,0.8-0.1,1.4-0.3,2c-0.2,0.6-0.5,1.1-0.9,1.5c-0.4,0.4-0.8,0.7-1.3,0.9c-0.5,0.2-1,0.3-1.6,0.3c-0.5,0-1.1-0.1-1.5-0.3
					c-0.5-0.2-0.9-0.5-1.3-0.9c-0.4-0.4-0.7-0.9-0.9-1.5C850.4,527.3,850.3,526.6,850.3,525.8z M851.2,525.8c0,0.6,0.1,1.1,0.2,1.6
					c0.2,0.5,0.4,0.9,0.7,1.3c0.3,0.4,0.6,0.6,1,0.8c0.4,0.2,0.8,0.3,1.3,0.3c0.5,0,0.9-0.1,1.3-0.3c0.4-0.2,0.7-0.5,1-0.8
					c0.3-0.4,0.5-0.8,0.7-1.3c0.2-0.5,0.2-1,0.2-1.6c0-0.6-0.1-1.1-0.2-1.6c-0.2-0.5-0.4-0.9-0.7-1.3s-0.6-0.6-1-0.8
					c-0.4-0.2-0.8-0.3-1.3-0.3c-0.5,0-0.9,0.1-1.3,0.3c-0.4,0.2-0.7,0.5-1,0.8c-0.3,0.4-0.5,0.8-0.7,1.3
					C851.3,524.7,851.2,525.2,851.2,525.8z"/>
				<path fill="#2E6A7F" d="M863,521.3h0.7l0.1,1.7h0.1c0.3-0.6,0.7-1,1.1-1.4c0.4-0.4,0.9-0.5,1.5-0.5c0.2,0,0.3,0,0.5,0
					c0.1,0,0.3,0.1,0.4,0.2l-0.2,0.8c-0.2-0.1-0.3-0.1-0.4-0.1c-0.1,0-0.3,0-0.4,0c-0.4,0-0.8,0.2-1.3,0.5c-0.4,0.3-0.8,0.9-1.2,1.8
					v6.2H863V521.3z"/>
				<path fill="#2E6A7F" d="M869.9,525.8c0-0.7,0.1-1.4,0.3-2c0.2-0.6,0.5-1.1,0.9-1.5c0.4-0.4,0.8-0.7,1.3-0.9
					c0.5-0.2,1-0.3,1.5-0.3c1.1,0,1.9,0.4,2.5,1.1c0.6,0.7,0.9,1.8,0.9,3.1c0,0.1,0,0.2,0,0.3c0,0.1,0,0.2,0,0.3h-6.5
					c0,0.6,0.1,1.1,0.3,1.6c0.2,0.5,0.4,0.9,0.7,1.2c0.3,0.3,0.6,0.6,1.1,0.8c0.4,0.2,0.9,0.3,1.4,0.3c0.5,0,0.9-0.1,1.3-0.2
					c0.4-0.1,0.8-0.3,1.1-0.6l0.3,0.6c-0.4,0.2-0.8,0.4-1.2,0.6c-0.4,0.2-1,0.3-1.6,0.3c-0.6,0-1.1-0.1-1.6-0.3
					c-0.5-0.2-1-0.5-1.3-0.9c-0.4-0.4-0.7-0.9-0.9-1.5C870.1,527.2,869.9,526.6,869.9,525.8z M876.6,525.3c0-1.2-0.2-2-0.7-2.6
					c-0.5-0.6-1.1-0.9-1.9-0.9c-0.4,0-0.8,0.1-1.1,0.2c-0.4,0.2-0.7,0.4-1,0.7c-0.3,0.3-0.5,0.7-0.7,1.1c-0.2,0.4-0.3,0.9-0.3,1.5
					H876.6z"/>
				<path fill="#2E6A7F" d="M881.7,521.3h0.7l0.1,1.4h0.1c0.4-0.5,0.8-0.8,1.3-1.2c0.5-0.3,1-0.5,1.5-0.5c0.7,0,1.3,0.2,1.7,0.5
					c0.4,0.3,0.7,0.8,0.8,1.3c0.5-0.6,1-1,1.5-1.3c0.5-0.3,1-0.5,1.5-0.5c1.8,0,2.7,1.2,2.7,3.5v5.8h-0.8v-5.7c0-1-0.2-1.7-0.5-2.1
					c-0.3-0.5-0.8-0.7-1.5-0.7c-0.8,0-1.7,0.6-2.7,1.7v6.8h-0.8v-5.7c0-1-0.2-1.7-0.5-2.1c-0.3-0.5-0.8-0.7-1.5-0.7
					c-0.8,0-1.7,0.6-2.7,1.7v6.8h-0.8V521.3z"/>
				<path fill="#2E6A7F" d="M904.9,519.1c-0.2,0-0.4-0.1-0.5-0.2c-0.1-0.1-0.2-0.3-0.2-0.5c0-0.2,0.1-0.4,0.2-0.6
					c0.1-0.1,0.3-0.2,0.5-0.2c0.2,0,0.4,0.1,0.5,0.2c0.1,0.1,0.2,0.3,0.2,0.6c0,0.2-0.1,0.4-0.2,0.5
					C905.3,519,905.1,519.1,904.9,519.1z M904.5,521.3h0.8v9h-0.8V521.3z"/>
				<path fill="#2E6A7F" d="M911.5,531.1v3.3h-0.8v-13.1h0.7l0.1,1.1h0.1c0.4-0.4,0.9-0.7,1.4-0.9c0.5-0.3,1.1-0.4,1.6-0.4
					c1.2,0,2.1,0.4,2.7,1.3c0.6,0.8,0.9,2,0.9,3.4c0,0.8-0.1,1.4-0.3,2.1c-0.2,0.6-0.5,1.1-0.9,1.5c-0.4,0.4-0.8,0.7-1.3,1
					c-0.5,0.2-1,0.3-1.5,0.3c-0.4,0-0.9-0.1-1.3-0.3c-0.5-0.2-0.9-0.5-1.4-0.8V531.1z M911.5,528.7c0.5,0.4,1,0.7,1.5,0.9
					c0.5,0.2,0.9,0.3,1.2,0.3c0.5,0,0.9-0.1,1.3-0.3c0.4-0.2,0.7-0.5,1-0.8c0.3-0.4,0.5-0.8,0.6-1.3c0.2-0.5,0.2-1.1,0.2-1.7
					c0-0.6-0.1-1.1-0.2-1.5c-0.1-0.5-0.3-0.9-0.5-1.2c-0.2-0.3-0.5-0.6-0.9-0.8c-0.4-0.2-0.8-0.3-1.3-0.3c-0.5,0-0.9,0.1-1.4,0.4
					c-0.5,0.3-1,0.6-1.6,1.1V528.7z"/>
				<path fill="#2E6A7F" d="M922.1,528.7c0.4,0.3,0.8,0.6,1.2,0.8c0.4,0.2,1,0.3,1.6,0.3c0.7,0,1.3-0.2,1.6-0.5
					c0.4-0.4,0.5-0.8,0.5-1.3c0-0.3-0.1-0.5-0.2-0.7c-0.1-0.2-0.3-0.4-0.5-0.5c-0.2-0.2-0.4-0.3-0.7-0.4c-0.3-0.1-0.5-0.2-0.8-0.3
					c-0.3-0.1-0.7-0.3-1-0.4c-0.3-0.1-0.7-0.3-0.9-0.5c-0.3-0.2-0.5-0.4-0.7-0.7c-0.2-0.3-0.3-0.6-0.3-1c0-0.3,0.1-0.6,0.2-0.9
					c0.1-0.3,0.3-0.6,0.6-0.8s0.6-0.4,0.9-0.5c0.4-0.1,0.8-0.2,1.3-0.2c0.5,0,0.9,0.1,1.4,0.3c0.5,0.2,0.9,0.4,1.2,0.7l-0.5,0.6
					c-0.3-0.2-0.6-0.4-1-0.6c-0.3-0.2-0.7-0.2-1.2-0.2c-0.4,0-0.7,0-0.9,0.1c-0.3,0.1-0.5,0.2-0.6,0.4c-0.2,0.2-0.3,0.3-0.4,0.5
					c-0.1,0.2-0.1,0.4-0.1,0.6c0,0.3,0.1,0.5,0.2,0.7c0.1,0.2,0.3,0.3,0.5,0.5c0.2,0.1,0.4,0.3,0.7,0.4c0.3,0.1,0.5,0.2,0.8,0.3
					c0.4,0.1,0.7,0.3,1.1,0.4c0.4,0.1,0.7,0.3,1,0.5c0.3,0.2,0.5,0.4,0.7,0.7c0.2,0.3,0.3,0.7,0.3,1.1c0,0.3-0.1,0.7-0.2,1
					c-0.1,0.3-0.3,0.6-0.6,0.8c-0.3,0.2-0.6,0.4-1,0.6c-0.4,0.1-0.8,0.2-1.3,0.2c-0.7,0-1.3-0.1-1.9-0.4c-0.6-0.2-1-0.5-1.4-0.9
					L922.1,528.7z"/>
				<path fill="#2E6A7F" d="M932.2,521.3h0.8v5.7c0,1,0.2,1.7,0.5,2.1c0.3,0.5,0.8,0.7,1.6,0.7c0.5,0,1-0.1,1.5-0.4
					c0.4-0.3,0.9-0.8,1.4-1.4v-6.7h0.8v9h-0.7l-0.1-1.5h0c-0.4,0.5-0.9,0.9-1.4,1.3c-0.5,0.3-1,0.5-1.7,0.5c-0.9,0-1.6-0.3-2.1-0.8
					c-0.4-0.6-0.7-1.4-0.7-2.6V521.3z"/>
				<path fill="#2E6A7F" d="M944.1,521.3h0.7l0.1,1.4h0.1c0.4-0.5,0.8-0.8,1.3-1.2c0.5-0.3,1-0.5,1.5-0.5c0.7,0,1.3,0.2,1.7,0.5
					c0.4,0.3,0.7,0.8,0.8,1.3c0.5-0.6,1-1,1.5-1.3c0.5-0.3,1-0.5,1.5-0.5c1.8,0,2.7,1.2,2.7,3.5v5.8h-0.8v-5.7c0-1-0.2-1.7-0.5-2.1
					c-0.3-0.5-0.8-0.7-1.5-0.7c-0.8,0-1.7,0.6-2.7,1.7v6.8h-0.8v-5.7c0-1-0.2-1.7-0.5-2.1c-0.3-0.5-0.8-0.7-1.5-0.7
					c-0.8,0-1.7,0.6-2.7,1.7v6.8h-0.8V521.3z"/>
				<path fill="#2E6A7F" d="M966.2,525.8c0-0.7,0.1-1.4,0.3-2c0.2-0.6,0.5-1.1,0.9-1.5c0.4-0.4,0.8-0.7,1.3-1c0.5-0.2,1-0.3,1.5-0.3
					c0.6,0,1,0.1,1.4,0.3c0.4,0.2,0.8,0.5,1.3,0.8l0-1.7v-3.7h0.8v13.5H973l-0.1-1.2h-0.1c-0.4,0.4-0.8,0.7-1.3,1
					c-0.5,0.3-1,0.4-1.6,0.4c-1.1,0-2.1-0.4-2.7-1.2C966.5,528.5,966.2,527.4,966.2,525.8z M967.1,525.8c0,0.6,0.1,1.1,0.2,1.6
					s0.3,0.9,0.6,1.3c0.3,0.3,0.6,0.6,0.9,0.8c0.4,0.2,0.8,0.3,1.3,0.3c0.5,0,1-0.1,1.4-0.4c0.5-0.3,0.9-0.6,1.4-1.1V523
					c-0.5-0.4-0.9-0.7-1.3-0.9c-0.4-0.2-0.9-0.3-1.3-0.3c-0.5,0-0.9,0.1-1.3,0.3c-0.4,0.2-0.7,0.5-1,0.8c-0.3,0.4-0.5,0.8-0.7,1.3
					C967.1,524.7,967.1,525.3,967.1,525.8z"/>
				<path fill="#2E6A7F" d="M978.3,525.8c0-0.8,0.1-1.4,0.3-2c0.2-0.6,0.5-1.1,0.9-1.5c0.4-0.4,0.8-0.7,1.3-0.9
					c0.5-0.2,1-0.3,1.5-0.3s1.1,0.1,1.6,0.3c0.5,0.2,0.9,0.5,1.3,0.9c0.4,0.4,0.7,0.9,0.9,1.5c0.2,0.6,0.3,1.3,0.3,2
					c0,0.8-0.1,1.4-0.3,2c-0.2,0.6-0.5,1.1-0.9,1.5c-0.4,0.4-0.8,0.7-1.3,0.9c-0.5,0.2-1,0.3-1.6,0.3s-1.1-0.1-1.5-0.3
					c-0.5-0.2-0.9-0.5-1.3-0.9c-0.4-0.4-0.7-0.9-0.9-1.5C978.4,527.3,978.3,526.6,978.3,525.8z M979.2,525.8c0,0.6,0.1,1.1,0.2,1.6
					c0.2,0.5,0.4,0.9,0.7,1.3c0.3,0.4,0.6,0.6,1,0.8c0.4,0.2,0.8,0.3,1.3,0.3s0.9-0.1,1.3-0.3c0.4-0.2,0.7-0.5,1-0.8
					c0.3-0.4,0.5-0.8,0.7-1.3c0.2-0.5,0.2-1,0.2-1.6c0-0.6-0.1-1.1-0.2-1.6c-0.2-0.5-0.4-0.9-0.7-1.3s-0.6-0.6-1-0.8
					c-0.4-0.2-0.8-0.3-1.3-0.3s-0.9,0.1-1.3,0.3c-0.4,0.2-0.7,0.5-1,0.8c-0.3,0.4-0.5,0.8-0.7,1.3
					C979.2,524.7,979.2,525.2,979.2,525.8z"/>
				<path fill="#2E6A7F" d="M991,516.8h0.8v12.4c0,0.2,0,0.3,0.1,0.4c0.1,0.1,0.2,0.1,0.3,0.1c0,0,0.1,0,0.1,0c0,0,0.1,0,0.2,0
					l0.2,0.7c-0.1,0-0.2,0-0.3,0.1c-0.1,0-0.2,0-0.3,0c-0.7,0-1.1-0.5-1.1-1.4V516.8z"/>
				<path fill="#2E6A7F" d="M996.6,525.8c0-0.8,0.1-1.4,0.3-2c0.2-0.6,0.5-1.1,0.9-1.5c0.4-0.4,0.8-0.7,1.3-0.9
					c0.5-0.2,1-0.3,1.5-0.3c0.5,0,1.1,0.1,1.6,0.3c0.5,0.2,0.9,0.5,1.3,0.9c0.4,0.4,0.7,0.9,0.9,1.5c0.2,0.6,0.3,1.3,0.3,2
					c0,0.8-0.1,1.4-0.3,2c-0.2,0.6-0.5,1.1-0.9,1.5c-0.4,0.4-0.8,0.7-1.3,0.9c-0.5,0.2-1,0.3-1.6,0.3c-0.5,0-1.1-0.1-1.5-0.3
					c-0.5-0.2-0.9-0.5-1.3-0.9c-0.4-0.4-0.7-0.9-0.9-1.5C996.7,527.3,996.6,526.6,996.6,525.8z M997.5,525.8c0,0.6,0.1,1.1,0.2,1.6
					c0.2,0.5,0.4,0.9,0.7,1.3c0.3,0.4,0.6,0.6,1,0.8c0.4,0.2,0.8,0.3,1.3,0.3c0.5,0,0.9-0.1,1.3-0.3c0.4-0.2,0.7-0.5,1-0.8
					c0.3-0.4,0.5-0.8,0.7-1.3c0.2-0.5,0.2-1,0.2-1.6c0-0.6-0.1-1.1-0.2-1.6c-0.2-0.5-0.4-0.9-0.7-1.3s-0.6-0.6-1-0.8
					c-0.4-0.2-0.8-0.3-1.3-0.3c-0.5,0-0.9,0.1-1.3,0.3c-0.4,0.2-0.7,0.5-1,0.8c-0.3,0.4-0.5,0.8-0.7,1.3
					C997.5,524.7,997.5,525.2,997.5,525.8z"/>
				<path fill="#2E6A7F" d="M1009.3,521.3h0.7l0.1,1.7h0.1c0.3-0.6,0.7-1,1.1-1.4c0.4-0.4,0.9-0.5,1.5-0.5c0.2,0,0.3,0,0.5,0
					c0.1,0,0.3,0.1,0.4,0.2l-0.2,0.8c-0.2-0.1-0.3-0.1-0.4-0.1c-0.1,0-0.3,0-0.4,0c-0.4,0-0.8,0.2-1.3,0.5c-0.4,0.3-0.8,0.9-1.2,1.8
					v6.2h-0.8V521.3z"/>
				<path fill="#2E6A7F" d="M1022.1,528.7c0.4,0.3,0.8,0.6,1.2,0.8c0.4,0.2,1,0.3,1.6,0.3c0.7,0,1.3-0.2,1.6-0.5
					c0.4-0.4,0.5-0.8,0.5-1.3c0-0.3-0.1-0.5-0.2-0.7c-0.1-0.2-0.3-0.4-0.5-0.5c-0.2-0.2-0.4-0.3-0.7-0.4c-0.3-0.1-0.5-0.2-0.8-0.3
					c-0.3-0.1-0.7-0.3-1-0.4c-0.3-0.1-0.7-0.3-0.9-0.5c-0.3-0.2-0.5-0.4-0.7-0.7c-0.2-0.3-0.3-0.6-0.3-1c0-0.3,0.1-0.6,0.2-0.9
					c0.1-0.3,0.3-0.6,0.6-0.8s0.6-0.4,0.9-0.5c0.4-0.1,0.8-0.2,1.3-0.2c0.5,0,0.9,0.1,1.4,0.3c0.5,0.2,0.9,0.4,1.2,0.7l-0.5,0.6
					c-0.3-0.2-0.6-0.4-1-0.6c-0.3-0.2-0.7-0.2-1.2-0.2c-0.4,0-0.7,0-0.9,0.1c-0.3,0.1-0.5,0.2-0.6,0.4c-0.2,0.2-0.3,0.3-0.4,0.5
					c-0.1,0.2-0.1,0.4-0.1,0.6c0,0.3,0.1,0.5,0.2,0.7c0.1,0.2,0.3,0.3,0.5,0.5c0.2,0.1,0.4,0.3,0.7,0.4c0.3,0.1,0.5,0.2,0.8,0.3
					c0.4,0.1,0.7,0.3,1.1,0.4c0.4,0.1,0.7,0.3,1,0.5c0.3,0.2,0.5,0.4,0.7,0.7c0.2,0.3,0.3,0.7,0.3,1.1c0,0.3-0.1,0.7-0.2,1
					c-0.1,0.3-0.3,0.6-0.6,0.8c-0.3,0.2-0.6,0.4-1,0.6c-0.4,0.1-0.8,0.2-1.3,0.2c-0.7,0-1.3-0.1-1.9-0.4c-0.6-0.2-1-0.5-1.4-0.9
					L1022.1,528.7z"/>
				<path fill="#2E6A7F" d="M1032.7,519.1c-0.2,0-0.4-0.1-0.5-0.2c-0.1-0.1-0.2-0.3-0.2-0.5c0-0.2,0.1-0.4,0.2-0.6s0.3-0.2,0.5-0.2
					s0.4,0.1,0.5,0.2c0.1,0.1,0.2,0.3,0.2,0.6c0,0.2-0.1,0.4-0.2,0.5C1033.1,519,1032.9,519.1,1032.7,519.1z M1032.3,521.3h0.8v9
					h-0.8V521.3z"/>
				<path fill="#2E6A7F" d="M1038.7,522h-1.4v-0.6l1.4-0.1l0.1-2.6h0.7v2.6h2.6v0.7h-2.6v5.9c0,0.3,0,0.5,0.1,0.8
					c0,0.2,0.1,0.4,0.2,0.6c0.1,0.2,0.3,0.3,0.5,0.4c0.2,0.1,0.4,0.1,0.8,0.1c0.2,0,0.4,0,0.6-0.1c0.2-0.1,0.4-0.1,0.6-0.2l0.2,0.7
					c-0.3,0.1-0.5,0.2-0.8,0.2c-0.3,0.1-0.5,0.1-0.7,0.1c-0.4,0-0.8-0.1-1.1-0.2c-0.3-0.1-0.5-0.3-0.7-0.6c-0.2-0.2-0.3-0.5-0.4-0.9
					s-0.1-0.7-0.1-1.1V522z"/>
				<path fill="#2E6A7F" d="M1051.3,528.1c0-1,0.5-1.8,1.4-2.3c0.9-0.5,2.4-0.9,4.4-1.1c0-0.3,0-0.7-0.1-1c-0.1-0.3-0.2-0.7-0.3-0.9
					c-0.2-0.3-0.4-0.5-0.7-0.7c-0.3-0.2-0.6-0.3-1.1-0.3c-0.6,0-1.2,0.1-1.7,0.4c-0.5,0.2-0.9,0.5-1.2,0.7l-0.4-0.6
					c0.2-0.1,0.4-0.2,0.6-0.4c0.2-0.1,0.5-0.3,0.8-0.4c0.3-0.1,0.6-0.2,0.9-0.3c0.3-0.1,0.7-0.1,1.1-0.1c0.5,0,1,0.1,1.4,0.3
					s0.7,0.4,0.9,0.7c0.2,0.3,0.4,0.7,0.5,1.1c0.1,0.4,0.1,0.9,0.1,1.4v5.8h-0.7l-0.1-1.2h0c-0.5,0.4-1,0.7-1.5,1
					c-0.5,0.3-1.1,0.4-1.7,0.4c-0.4,0-0.7-0.1-1-0.2c-0.3-0.1-0.6-0.3-0.8-0.5c-0.2-0.2-0.4-0.5-0.6-0.8
					C1051.4,528.9,1051.3,528.5,1051.3,528.1z M1052.2,528c0,0.7,0.2,1.1,0.6,1.4c0.4,0.3,0.8,0.4,1.3,0.4c0.5,0,1-0.1,1.5-0.4
					s1-0.6,1.6-1.1v-3.1c-0.9,0.1-1.7,0.3-2.3,0.4c-0.6,0.2-1.1,0.4-1.5,0.6c-0.4,0.2-0.7,0.5-0.8,0.8
					C1052.3,527.4,1052.2,527.7,1052.2,528z"/>
				<path fill="#2E6A7F" d="M1063.1,521.3h0.7l0.1,1.4h0.1c0.4-0.5,0.8-0.8,1.3-1.2c0.5-0.3,1-0.5,1.5-0.5c0.7,0,1.3,0.2,1.7,0.5
					c0.4,0.3,0.7,0.8,0.8,1.3c0.5-0.6,1-1,1.5-1.3c0.5-0.3,1-0.5,1.5-0.5c1.8,0,2.7,1.2,2.7,3.5v5.8h-0.8v-5.7c0-1-0.2-1.7-0.5-2.1
					c-0.3-0.5-0.8-0.7-1.5-0.7c-0.8,0-1.7,0.6-2.7,1.7v6.8h-0.8v-5.7c0-1-0.2-1.7-0.5-2.1c-0.3-0.5-0.8-0.7-1.5-0.7
					c-0.8,0-1.7,0.6-2.7,1.7v6.8h-0.8V521.3z"/>
				<path fill="#2E6A7F" d="M1079.5,525.8c0-0.7,0.1-1.4,0.3-2c0.2-0.6,0.5-1.1,0.9-1.5c0.4-0.4,0.8-0.7,1.3-0.9
					c0.5-0.2,1-0.3,1.5-0.3c1.1,0,1.9,0.4,2.5,1.1c0.6,0.7,0.9,1.8,0.9,3.1c0,0.1,0,0.2,0,0.3c0,0.1,0,0.2,0,0.3h-6.5
					c0,0.6,0.1,1.1,0.3,1.6c0.2,0.5,0.4,0.9,0.7,1.2c0.3,0.3,0.6,0.6,1.1,0.8c0.4,0.2,0.9,0.3,1.4,0.3c0.5,0,0.9-0.1,1.3-0.2
					c0.4-0.1,0.8-0.3,1.1-0.6l0.3,0.6c-0.4,0.2-0.8,0.4-1.2,0.6c-0.4,0.2-1,0.3-1.6,0.3c-0.6,0-1.1-0.1-1.6-0.3
					c-0.5-0.2-1-0.5-1.3-0.9c-0.4-0.4-0.7-0.9-0.9-1.5C1079.7,527.2,1079.5,526.6,1079.5,525.8z M1086.2,525.3c0-1.2-0.2-2-0.7-2.6
					c-0.5-0.6-1.1-0.9-1.9-0.9c-0.4,0-0.8,0.1-1.1,0.2c-0.4,0.2-0.7,0.4-1,0.7c-0.3,0.3-0.5,0.7-0.7,1.1c-0.2,0.4-0.3,0.9-0.3,1.5
					H1086.2z"/>
				<path fill="#2E6A7F" d="M1091.3,522h-1.4v-0.6l1.4-0.1l0.1-2.6h0.7v2.6h2.6v0.7h-2.6v5.9c0,0.3,0,0.5,0.1,0.8
					c0,0.2,0.1,0.4,0.2,0.6c0.1,0.2,0.3,0.3,0.5,0.4c0.2,0.1,0.4,0.1,0.8,0.1c0.2,0,0.4,0,0.6-0.1c0.2-0.1,0.4-0.1,0.6-0.2l0.2,0.7
					c-0.3,0.1-0.5,0.2-0.8,0.2c-0.3,0.1-0.5,0.1-0.7,0.1c-0.4,0-0.8-0.1-1.1-0.2c-0.3-0.1-0.5-0.3-0.7-0.6c-0.2-0.2-0.3-0.5-0.4-0.9
					s-0.1-0.7-0.1-1.1V522z"/>
				<path fill="#2E6A7F" d="M1098.4,532.7c0.4-0.2,0.8-0.5,1-0.9c0.3-0.4,0.4-0.8,0.4-1.4c-0.1,0-0.1,0-0.2,0
					c-0.2,0-0.4-0.1-0.6-0.2c-0.2-0.1-0.2-0.3-0.2-0.6c0-0.3,0.1-0.4,0.2-0.6c0.2-0.1,0.4-0.2,0.6-0.2c0.3,0,0.5,0.1,0.7,0.4
					c0.2,0.2,0.3,0.6,0.3,1c0,0.7-0.2,1.3-0.5,1.8c-0.4,0.5-0.8,0.9-1.4,1.2L1098.4,532.7z"/>
				<path fill="#2E6A7F" d="M1110.1,525.8c0-0.8,0.1-1.4,0.3-2c0.2-0.6,0.5-1.1,0.9-1.5c0.4-0.4,0.8-0.7,1.3-0.9
					c0.5-0.2,1-0.3,1.6-0.3c0.6,0,1.2,0.1,1.6,0.3c0.4,0.2,0.8,0.5,1.1,0.8l-0.5,0.6c-0.3-0.3-0.6-0.5-1-0.7
					c-0.4-0.2-0.7-0.3-1.2-0.3c-0.5,0-0.9,0.1-1.3,0.3c-0.4,0.2-0.7,0.5-1,0.8c-0.3,0.4-0.5,0.8-0.7,1.3c-0.2,0.5-0.3,1-0.3,1.6
					c0,0.6,0.1,1.1,0.2,1.6c0.2,0.5,0.4,0.9,0.7,1.3c0.3,0.4,0.6,0.6,1,0.8c0.4,0.2,0.9,0.3,1.3,0.3c0.5,0,0.9-0.1,1.3-0.3
					c0.4-0.2,0.8-0.4,1.1-0.7l0.4,0.6c-0.4,0.4-0.8,0.6-1.3,0.9c-0.5,0.2-1,0.3-1.6,0.3c-0.6,0-1.1-0.1-1.6-0.3
					c-0.5-0.2-0.9-0.5-1.3-0.9c-0.4-0.4-0.7-0.9-0.9-1.5C1110.2,527.3,1110.1,526.6,1110.1,525.8z"/>
				<path fill="#2E6A7F" d="M1120.1,525.8c0-0.8,0.1-1.4,0.3-2c0.2-0.6,0.5-1.1,0.9-1.5c0.4-0.4,0.8-0.7,1.3-0.9
					c0.5-0.2,1-0.3,1.5-0.3c0.5,0,1.1,0.1,1.6,0.3c0.5,0.2,0.9,0.5,1.3,0.9c0.4,0.4,0.7,0.9,0.9,1.5c0.2,0.6,0.3,1.3,0.3,2
					c0,0.8-0.1,1.4-0.3,2c-0.2,0.6-0.5,1.1-0.9,1.5c-0.4,0.4-0.8,0.7-1.3,0.9c-0.5,0.2-1,0.3-1.6,0.3c-0.5,0-1.1-0.1-1.5-0.3
					c-0.5-0.2-0.9-0.5-1.3-0.9c-0.4-0.4-0.7-0.9-0.9-1.5C1120.2,527.3,1120.1,526.6,1120.1,525.8z M1121,525.8
					c0,0.6,0.1,1.1,0.2,1.6c0.2,0.5,0.4,0.9,0.7,1.3c0.3,0.4,0.6,0.6,1,0.8c0.4,0.2,0.8,0.3,1.3,0.3c0.5,0,0.9-0.1,1.3-0.3
					c0.4-0.2,0.7-0.5,1-0.8c0.3-0.4,0.5-0.8,0.7-1.3c0.2-0.5,0.2-1,0.2-1.6c0-0.6-0.1-1.1-0.2-1.6c-0.2-0.5-0.4-0.9-0.7-1.3
					s-0.6-0.6-1-0.8c-0.4-0.2-0.8-0.3-1.3-0.3c-0.5,0-0.9,0.1-1.3,0.3c-0.4,0.2-0.7,0.5-1,0.8c-0.3,0.4-0.5,0.8-0.7,1.3
					C1121,524.7,1121,525.2,1121,525.8z"/>
				<path fill="#2E6A7F" d="M1132.8,521.3h0.7l0.1,1.4h0.1c0.5-0.5,0.9-0.8,1.4-1.2c0.5-0.3,1-0.5,1.7-0.5c0.9,0,1.6,0.3,2.1,0.8
					s0.7,1.4,0.7,2.6v5.8h-0.8v-5.7c0-1-0.2-1.7-0.5-2.1c-0.3-0.5-0.9-0.7-1.6-0.7c-0.5,0-1,0.1-1.5,0.4c-0.4,0.3-0.9,0.7-1.5,1.3
					v6.8h-0.8V521.3z"/>
				<path fill="#2E6A7F" d="M1144.1,528.7c0.4,0.3,0.8,0.6,1.2,0.8c0.4,0.2,1,0.3,1.6,0.3c0.7,0,1.3-0.2,1.6-0.5
					c0.4-0.4,0.5-0.8,0.5-1.3c0-0.3-0.1-0.5-0.2-0.7c-0.1-0.2-0.3-0.4-0.5-0.5c-0.2-0.2-0.4-0.3-0.7-0.4c-0.3-0.1-0.5-0.2-0.8-0.3
					c-0.3-0.1-0.7-0.3-1-0.4c-0.3-0.1-0.7-0.3-0.9-0.5c-0.3-0.2-0.5-0.4-0.7-0.7c-0.2-0.3-0.3-0.6-0.3-1c0-0.3,0.1-0.6,0.2-0.9
					c0.1-0.3,0.3-0.6,0.6-0.8c0.3-0.2,0.6-0.4,0.9-0.5c0.4-0.1,0.8-0.2,1.3-0.2c0.5,0,0.9,0.1,1.4,0.3c0.5,0.2,0.8,0.4,1.2,0.7
					l-0.5,0.6c-0.3-0.2-0.6-0.4-1-0.6c-0.3-0.2-0.7-0.2-1.2-0.2c-0.4,0-0.7,0-0.9,0.1c-0.3,0.1-0.5,0.2-0.6,0.4
					c-0.2,0.2-0.3,0.3-0.4,0.5c-0.1,0.2-0.1,0.4-0.1,0.6c0,0.3,0.1,0.5,0.2,0.7c0.1,0.2,0.3,0.3,0.5,0.5c0.2,0.1,0.4,0.3,0.7,0.4
					s0.5,0.2,0.8,0.3c0.4,0.1,0.7,0.3,1.1,0.4c0.4,0.1,0.7,0.3,1,0.5c0.3,0.2,0.5,0.4,0.7,0.7s0.3,0.7,0.3,1.1c0,0.3-0.1,0.7-0.2,1
					c-0.1,0.3-0.3,0.6-0.6,0.8c-0.3,0.2-0.6,0.4-1,0.6c-0.4,0.1-0.8,0.2-1.3,0.2c-0.7,0-1.3-0.1-1.9-0.4c-0.6-0.2-1-0.5-1.4-0.9
					L1144.1,528.7z"/>
				<path fill="#2E6A7F" d="M1153.4,525.8c0-0.7,0.1-1.4,0.3-2c0.2-0.6,0.5-1.1,0.9-1.5c0.4-0.4,0.8-0.7,1.3-0.9
					c0.5-0.2,1-0.3,1.5-0.3c1.1,0,1.9,0.4,2.5,1.1c0.6,0.7,0.9,1.8,0.9,3.1c0,0.1,0,0.2,0,0.3c0,0.1,0,0.2,0,0.3h-6.5
					c0,0.6,0.1,1.1,0.3,1.6c0.2,0.5,0.4,0.9,0.7,1.2c0.3,0.3,0.6,0.6,1.1,0.8c0.4,0.2,0.9,0.3,1.4,0.3c0.5,0,0.9-0.1,1.3-0.2
					c0.4-0.1,0.8-0.3,1.1-0.6l0.3,0.6c-0.4,0.2-0.8,0.4-1.2,0.6c-0.4,0.2-1,0.3-1.6,0.3c-0.6,0-1.1-0.1-1.6-0.3
					c-0.5-0.2-1-0.5-1.3-0.9c-0.4-0.4-0.7-0.9-0.9-1.5C1153.6,527.2,1153.4,526.6,1153.4,525.8z M1160.1,525.3c0-1.2-0.2-2-0.7-2.6
					c-0.5-0.6-1.1-0.9-1.9-0.9c-0.4,0-0.8,0.1-1.1,0.2c-0.4,0.2-0.7,0.4-1,0.7c-0.3,0.3-0.5,0.7-0.7,1.1c-0.2,0.4-0.3,0.9-0.3,1.5
					H1160.1z"/>
				<path fill="#2E6A7F" d="M1164.4,525.8c0-0.8,0.1-1.4,0.3-2c0.2-0.6,0.5-1.1,0.9-1.5c0.4-0.4,0.8-0.7,1.3-0.9
					c0.5-0.2,1-0.3,1.6-0.3c0.6,0,1.2,0.1,1.6,0.3c0.4,0.2,0.8,0.5,1.1,0.8l-0.5,0.6c-0.3-0.3-0.6-0.5-1-0.7
					c-0.4-0.2-0.7-0.3-1.2-0.3c-0.5,0-0.9,0.1-1.3,0.3c-0.4,0.2-0.7,0.5-1,0.8s-0.5,0.8-0.7,1.3c-0.2,0.5-0.3,1-0.3,1.6
					c0,0.6,0.1,1.1,0.2,1.6c0.2,0.5,0.4,0.9,0.7,1.3c0.3,0.4,0.6,0.6,1,0.8c0.4,0.2,0.9,0.3,1.3,0.3c0.5,0,0.9-0.1,1.3-0.3
					c0.4-0.2,0.8-0.4,1.1-0.7l0.4,0.6c-0.4,0.4-0.8,0.6-1.3,0.9c-0.5,0.2-1,0.3-1.6,0.3c-0.6,0-1.1-0.1-1.6-0.3
					c-0.5-0.2-0.9-0.5-1.3-0.9c-0.4-0.4-0.7-0.9-0.9-1.5C1164.5,527.3,1164.4,526.6,1164.4,525.8z"/>
				<path fill="#2E6A7F" d="M1175.7,522h-1.4v-0.6l1.4-0.1l0.1-2.6h0.7v2.6h2.6v0.7h-2.6v5.9c0,0.3,0,0.5,0.1,0.8
					c0,0.2,0.1,0.4,0.2,0.6c0.1,0.2,0.3,0.3,0.5,0.4c0.2,0.1,0.4,0.1,0.8,0.1c0.2,0,0.4,0,0.6-0.1c0.2-0.1,0.4-0.1,0.6-0.2l0.2,0.7
					c-0.3,0.1-0.5,0.2-0.8,0.2c-0.3,0.1-0.5,0.1-0.7,0.1c-0.4,0-0.8-0.1-1.1-0.2c-0.3-0.1-0.5-0.3-0.7-0.6c-0.2-0.2-0.3-0.5-0.4-0.9
					c-0.1-0.3-0.1-0.7-0.1-1.1V522z"/>
				<path fill="#2E6A7F" d="M1182.3,525.8c0-0.7,0.1-1.4,0.3-2c0.2-0.6,0.5-1.1,0.9-1.5c0.4-0.4,0.8-0.7,1.3-0.9
					c0.5-0.2,1-0.3,1.5-0.3c1.1,0,1.9,0.4,2.5,1.1c0.6,0.7,0.9,1.8,0.9,3.1c0,0.1,0,0.2,0,0.3c0,0.1,0,0.2,0,0.3h-6.5
					c0,0.6,0.1,1.1,0.3,1.6c0.2,0.5,0.4,0.9,0.7,1.2c0.3,0.3,0.6,0.6,1.1,0.8c0.4,0.2,0.9,0.3,1.4,0.3c0.5,0,0.9-0.1,1.3-0.2
					c0.4-0.1,0.8-0.3,1.1-0.6l0.3,0.6c-0.4,0.2-0.8,0.4-1.2,0.6c-0.4,0.2-1,0.3-1.6,0.3c-0.6,0-1.1-0.1-1.6-0.3
					c-0.5-0.2-1-0.5-1.3-0.9c-0.4-0.4-0.7-0.9-0.9-1.5C1182.4,527.2,1182.3,526.6,1182.3,525.8z M1188.9,525.3c0-1.2-0.2-2-0.7-2.6
					c-0.5-0.6-1.1-0.9-1.9-0.9c-0.4,0-0.8,0.1-1.1,0.2c-0.4,0.2-0.7,0.4-1,0.7c-0.3,0.3-0.5,0.7-0.7,1.1c-0.2,0.4-0.3,0.9-0.3,1.5
					H1188.9z"/>
				<path fill="#2E6A7F" d="M1194.1,522h-1.4v-0.6l1.4-0.1l0.1-2.6h0.7v2.6h2.6v0.7h-2.6v5.9c0,0.3,0,0.5,0.1,0.8
					c0,0.2,0.1,0.4,0.2,0.6c0.1,0.2,0.3,0.3,0.5,0.4c0.2,0.1,0.4,0.1,0.8,0.1c0.2,0,0.4,0,0.6-0.1c0.2-0.1,0.4-0.1,0.6-0.2l0.2,0.7
					c-0.3,0.1-0.5,0.2-0.8,0.2c-0.3,0.1-0.5,0.1-0.7,0.1c-0.4,0-0.8-0.1-1.1-0.2c-0.3-0.1-0.5-0.3-0.7-0.6c-0.2-0.2-0.3-0.5-0.4-0.9
					s-0.1-0.7-0.1-1.1V522z"/>
				<path fill="#2E6A7F" d="M1201.3,521.3h0.8v5.7c0,1,0.2,1.7,0.5,2.1c0.3,0.5,0.8,0.7,1.6,0.7c0.5,0,1-0.1,1.5-0.4
					c0.4-0.3,0.9-0.8,1.4-1.4v-6.7h0.8v9h-0.7l-0.1-1.5h0c-0.4,0.5-0.9,0.9-1.4,1.3c-0.5,0.3-1,0.5-1.7,0.5c-0.9,0-1.6-0.3-2.1-0.8
					c-0.4-0.6-0.7-1.4-0.7-2.6V521.3z"/>
				<path fill="#2E6A7F" d="M1213.3,521.3h0.7l0.1,1.7h0.1c0.3-0.6,0.7-1,1.1-1.4c0.4-0.4,0.9-0.5,1.5-0.5c0.2,0,0.3,0,0.5,0
					c0.1,0,0.3,0.1,0.4,0.2l-0.2,0.8c-0.2-0.1-0.3-0.1-0.4-0.1c-0.1,0-0.3,0-0.4,0c-0.4,0-0.8,0.2-1.3,0.5c-0.4,0.3-0.8,0.9-1.2,1.8
					v6.2h-0.8V521.3z"/>
				<path fill="#2E6A7F" d="M1226.2,528.1c0-1,0.5-1.8,1.4-2.3c0.9-0.5,2.4-0.9,4.4-1.1c0-0.3,0-0.7-0.1-1c-0.1-0.3-0.2-0.7-0.3-0.9
					c-0.2-0.3-0.4-0.5-0.7-0.7c-0.3-0.2-0.6-0.3-1.1-0.3c-0.6,0-1.2,0.1-1.7,0.4c-0.5,0.2-0.9,0.5-1.2,0.7l-0.4-0.6
					c0.2-0.1,0.4-0.2,0.6-0.4c0.2-0.1,0.5-0.3,0.8-0.4c0.3-0.1,0.6-0.2,0.9-0.3c0.3-0.1,0.7-0.1,1.1-0.1c0.5,0,1,0.1,1.4,0.3
					c0.4,0.2,0.7,0.4,0.9,0.7c0.2,0.3,0.4,0.7,0.5,1.1c0.1,0.4,0.1,0.9,0.1,1.4v5.8h-0.7l-0.1-1.2h0c-0.5,0.4-1,0.7-1.5,1
					c-0.5,0.3-1.1,0.4-1.7,0.4c-0.4,0-0.7-0.1-1-0.2c-0.3-0.1-0.6-0.3-0.8-0.5c-0.2-0.2-0.4-0.5-0.6-0.8
					C1226.3,528.9,1226.2,528.5,1226.2,528.1z M1227.1,528c0,0.7,0.2,1.1,0.6,1.4c0.4,0.3,0.8,0.4,1.3,0.4c0.5,0,1-0.1,1.5-0.4
					s1-0.6,1.6-1.1v-3.1c-0.9,0.1-1.7,0.3-2.3,0.4c-0.6,0.2-1.1,0.4-1.5,0.6c-0.4,0.2-0.7,0.5-0.8,0.8
					C1227.2,527.4,1227.1,527.7,1227.1,528z"/>
				<path fill="#2E6A7F" d="M1237.3,525.8c0-0.7,0.1-1.4,0.3-2c0.2-0.6,0.5-1.1,0.9-1.5c0.4-0.4,0.8-0.7,1.3-1
					c0.5-0.2,1-0.3,1.5-0.3c0.6,0,1,0.1,1.4,0.3c0.4,0.2,0.8,0.5,1.3,0.8l0-1.7v-3.7h0.8v13.5h-0.7l-0.1-1.2h-0.1
					c-0.4,0.4-0.8,0.7-1.3,1c-0.5,0.3-1,0.4-1.6,0.4c-1.1,0-2.1-0.4-2.7-1.2C1237.6,528.5,1237.3,527.4,1237.3,525.8z M1238.2,525.8
					c0,0.6,0.1,1.1,0.2,1.6c0.1,0.5,0.3,0.9,0.6,1.3c0.3,0.3,0.6,0.6,0.9,0.8c0.4,0.2,0.8,0.3,1.3,0.3c0.5,0,1-0.1,1.4-0.4
					c0.5-0.3,0.9-0.6,1.4-1.1V523c-0.5-0.4-0.9-0.7-1.3-0.9c-0.4-0.2-0.9-0.3-1.3-0.3c-0.5,0-0.9,0.1-1.3,0.3
					c-0.4,0.2-0.7,0.5-1,0.8c-0.3,0.4-0.5,0.8-0.7,1.3C1238.2,524.7,1238.2,525.3,1238.2,525.8z"/>
				<path fill="#2E6A7F" d="M1250.6,519.1c-0.2,0-0.4-0.1-0.5-0.2c-0.1-0.1-0.2-0.3-0.2-0.5c0-0.2,0.1-0.4,0.2-0.6
					c0.1-0.1,0.3-0.2,0.5-0.2c0.2,0,0.4,0.1,0.5,0.2s0.2,0.3,0.2,0.6c0,0.2-0.1,0.4-0.2,0.5C1251,519,1250.8,519.1,1250.6,519.1z
					 M1250.1,521.3h0.8v9h-0.8V521.3z"/>
				<path fill="#2E6A7F" d="M1257.2,531.1v3.3h-0.8v-13.1h0.7l0.1,1.1h0.1c0.4-0.4,0.9-0.7,1.4-0.9c0.5-0.3,1.1-0.4,1.6-0.4
					c1.2,0,2.1,0.4,2.7,1.3c0.6,0.8,0.9,2,0.9,3.4c0,0.8-0.1,1.4-0.3,2.1c-0.2,0.6-0.5,1.1-0.9,1.5c-0.4,0.4-0.8,0.7-1.3,1
					c-0.5,0.2-1,0.3-1.5,0.3c-0.4,0-0.9-0.1-1.3-0.3c-0.5-0.2-0.9-0.5-1.4-0.8V531.1z M1257.2,528.7c0.5,0.4,1,0.7,1.5,0.9
					c0.5,0.2,0.9,0.3,1.2,0.3c0.5,0,0.9-0.1,1.3-0.3c0.4-0.2,0.7-0.5,1-0.8c0.3-0.4,0.5-0.8,0.6-1.3c0.2-0.5,0.2-1.1,0.2-1.7
					c0-0.6-0.1-1.1-0.2-1.5c-0.1-0.5-0.3-0.9-0.5-1.2c-0.2-0.3-0.5-0.6-0.9-0.8c-0.4-0.2-0.8-0.3-1.3-0.3c-0.5,0-0.9,0.1-1.4,0.4
					c-0.5,0.3-1,0.6-1.6,1.1V528.7z"/>
				<path fill="#2E6A7F" d="M1268.9,519.1c-0.2,0-0.4-0.1-0.5-0.2c-0.1-0.1-0.2-0.3-0.2-0.5c0-0.2,0.1-0.4,0.2-0.6
					c0.1-0.1,0.3-0.2,0.5-0.2s0.4,0.1,0.5,0.2s0.2,0.3,0.2,0.6c0,0.2-0.1,0.4-0.2,0.5C1269.3,519,1269.1,519.1,1268.9,519.1z
					 M1268.5,521.3h0.8v9h-0.8V521.3z"/>
				<path fill="#2E6A7F" d="M1274,528.7c0.4,0.3,0.8,0.6,1.2,0.8c0.4,0.2,1,0.3,1.6,0.3c0.7,0,1.3-0.2,1.6-0.5
					c0.4-0.4,0.5-0.8,0.5-1.3c0-0.3-0.1-0.5-0.2-0.7c-0.1-0.2-0.3-0.4-0.5-0.5c-0.2-0.2-0.4-0.3-0.7-0.4c-0.3-0.1-0.5-0.2-0.8-0.3
					c-0.3-0.1-0.7-0.3-1-0.4c-0.3-0.1-0.7-0.3-0.9-0.5c-0.3-0.2-0.5-0.4-0.7-0.7c-0.2-0.3-0.3-0.6-0.3-1c0-0.3,0.1-0.6,0.2-0.9
					c0.1-0.3,0.3-0.6,0.6-0.8c0.3-0.2,0.6-0.4,0.9-0.5c0.4-0.1,0.8-0.2,1.3-0.2s0.9,0.1,1.4,0.3c0.5,0.2,0.8,0.4,1.2,0.7l-0.5,0.6
					c-0.3-0.2-0.6-0.4-1-0.6c-0.3-0.2-0.7-0.2-1.2-0.2c-0.4,0-0.7,0-0.9,0.1c-0.3,0.1-0.5,0.2-0.6,0.4c-0.2,0.2-0.3,0.3-0.4,0.5
					c-0.1,0.2-0.1,0.4-0.1,0.6c0,0.3,0.1,0.5,0.2,0.7c0.1,0.2,0.3,0.3,0.5,0.5c0.2,0.1,0.4,0.3,0.7,0.4c0.3,0.1,0.5,0.2,0.8,0.3
					c0.4,0.1,0.7,0.3,1.1,0.4c0.4,0.1,0.7,0.3,1,0.5c0.3,0.2,0.5,0.4,0.7,0.7s0.3,0.7,0.3,1.1c0,0.3-0.1,0.7-0.2,1
					c-0.1,0.3-0.3,0.6-0.6,0.8c-0.3,0.2-0.6,0.4-1,0.6c-0.4,0.1-0.8,0.2-1.3,0.2c-0.7,0-1.3-0.1-1.9-0.4c-0.6-0.2-1-0.5-1.4-0.9
					L1274,528.7z"/>
				<path fill="#2E6A7F" d="M1283.4,525.8c0-0.8,0.1-1.4,0.3-2c0.2-0.6,0.5-1.1,0.9-1.5c0.4-0.4,0.8-0.7,1.3-0.9
					c0.5-0.2,1-0.3,1.6-0.3c0.6,0,1.2,0.1,1.6,0.3c0.4,0.2,0.8,0.5,1.1,0.8l-0.5,0.6c-0.3-0.3-0.6-0.5-1-0.7
					c-0.4-0.2-0.7-0.3-1.2-0.3c-0.5,0-0.9,0.1-1.3,0.3c-0.4,0.2-0.7,0.5-1,0.8s-0.5,0.8-0.7,1.3c-0.2,0.5-0.3,1-0.3,1.6
					c0,0.6,0.1,1.1,0.2,1.6c0.2,0.5,0.4,0.9,0.7,1.3c0.3,0.4,0.6,0.6,1,0.8c0.4,0.2,0.9,0.3,1.3,0.3c0.5,0,0.9-0.1,1.3-0.3
					c0.4-0.2,0.8-0.4,1.1-0.7l0.4,0.6c-0.4,0.4-0.8,0.6-1.3,0.9c-0.5,0.2-1,0.3-1.6,0.3c-0.6,0-1.1-0.1-1.6-0.3
					c-0.5-0.2-0.9-0.5-1.3-0.9c-0.4-0.4-0.7-0.9-0.9-1.5C1283.5,527.3,1283.4,526.6,1283.4,525.8z"/>
				<path fill="#2E6A7F" d="M1294.9,519.1c-0.2,0-0.4-0.1-0.5-0.2c-0.1-0.1-0.2-0.3-0.2-0.5c0-0.2,0.1-0.4,0.2-0.6
					c0.1-0.1,0.3-0.2,0.5-0.2s0.4,0.1,0.5,0.2s0.2,0.3,0.2,0.6c0,0.2-0.1,0.4-0.2,0.5C1295.3,519,1295.1,519.1,1294.9,519.1z
					 M1294.5,521.3h0.8v9h-0.8V521.3z"/>
				<path fill="#2E6A7F" d="M1300.7,521.3h0.7l0.1,1.4h0.1c0.5-0.5,0.9-0.8,1.4-1.2c0.5-0.3,1-0.5,1.7-0.5c0.9,0,1.6,0.3,2.1,0.8
					s0.7,1.4,0.7,2.6v5.8h-0.8v-5.7c0-1-0.2-1.7-0.5-2.1c-0.3-0.5-0.9-0.7-1.6-0.7c-0.5,0-1,0.1-1.5,0.4c-0.4,0.3-0.9,0.7-1.5,1.3
					v6.8h-0.8V521.3z"/>
				<path fill="#2E6A7F" d="M1311.8,532.2c0-0.4,0.1-0.8,0.4-1.2c0.2-0.4,0.6-0.7,1-1v-0.1c-0.2-0.1-0.4-0.3-0.6-0.6
					c-0.2-0.2-0.2-0.5-0.2-0.9c0-0.4,0.1-0.7,0.3-1c0.2-0.3,0.4-0.5,0.6-0.6v-0.1c-0.3-0.3-0.5-0.6-0.8-1c-0.2-0.4-0.3-0.9-0.3-1.5
					c0-0.5,0.1-0.9,0.2-1.3c0.2-0.4,0.4-0.7,0.7-1c0.3-0.3,0.6-0.5,1-0.7c0.4-0.2,0.8-0.2,1.2-0.2c0.3,0,0.5,0,0.7,0.1
					c0.2,0,0.4,0.1,0.5,0.2h3.1v0.7h-2.1c0.3,0.3,0.5,0.6,0.7,1c0.2,0.4,0.3,0.8,0.3,1.3c0,0.5-0.1,0.9-0.2,1.3
					c-0.2,0.4-0.4,0.7-0.7,1c-0.3,0.3-0.6,0.5-1,0.7c-0.4,0.2-0.8,0.2-1.2,0.2c-0.3,0-0.5,0-0.8-0.1c-0.3-0.1-0.5-0.2-0.7-0.3
					c-0.2,0.2-0.4,0.3-0.5,0.5c-0.1,0.2-0.2,0.5-0.2,0.8c0,0.3,0.1,0.6,0.4,0.8c0.2,0.2,0.7,0.3,1.4,0.3h1.9c1,0,1.8,0.2,2.2,0.5
					c0.5,0.3,0.7,0.9,0.7,1.6c0,0.4-0.1,0.8-0.3,1.1c-0.2,0.4-0.5,0.7-0.9,1c-0.4,0.3-0.8,0.5-1.3,0.7c-0.5,0.2-1.1,0.3-1.8,0.3
					c-1.1,0-2-0.2-2.7-0.7C1312.2,533.6,1311.8,532.9,1311.8,532.2z M1312.6,532.1c0,0.6,0.3,1,0.8,1.4c0.5,0.4,1.3,0.5,2.2,0.5
					c0.5,0,1-0.1,1.4-0.2c0.4-0.1,0.8-0.3,1.1-0.5c0.3-0.2,0.5-0.5,0.7-0.7c0.2-0.3,0.2-0.5,0.2-0.8c0-0.5-0.2-0.9-0.5-1.1
					c-0.4-0.2-0.9-0.3-1.6-0.3h-1.9c-0.1,0-0.3,0-0.5,0c-0.2,0-0.4-0.1-0.7-0.1c-0.4,0.3-0.7,0.6-0.9,0.9
					C1312.7,531.5,1312.6,531.8,1312.6,532.1z M1315.4,526.8c0.3,0,0.6-0.1,0.9-0.2c0.3-0.1,0.5-0.3,0.7-0.5s0.4-0.5,0.5-0.8
					c0.1-0.3,0.2-0.7,0.2-1c0-0.4-0.1-0.7-0.2-1c-0.1-0.3-0.3-0.6-0.5-0.8c-0.2-0.2-0.5-0.4-0.7-0.5c-0.3-0.1-0.6-0.2-0.9-0.2
					c-0.3,0-0.6,0.1-0.9,0.2c-0.3,0.1-0.5,0.3-0.7,0.5s-0.4,0.5-0.5,0.8c-0.1,0.3-0.2,0.7-0.2,1c0,0.4,0.1,0.7,0.2,1
					c0.1,0.3,0.3,0.6,0.5,0.8c0.2,0.2,0.5,0.4,0.8,0.5C1314.8,526.7,1315.1,526.8,1315.4,526.8z"/>
				<path fill="#2E6A7F" d="M1328.5,525.8c0-0.7,0.1-1.4,0.3-2c0.2-0.6,0.5-1.1,0.9-1.5c0.4-0.4,0.8-0.7,1.3-0.9
					c0.5-0.2,1-0.3,1.5-0.3c1.1,0,1.9,0.4,2.5,1.1c0.6,0.7,0.9,1.8,0.9,3.1c0,0.1,0,0.2,0,0.3c0,0.1,0,0.2,0,0.3h-6.5
					c0,0.6,0.1,1.1,0.3,1.6c0.2,0.5,0.4,0.9,0.7,1.2c0.3,0.3,0.6,0.6,1.1,0.8c0.4,0.2,0.9,0.3,1.4,0.3c0.5,0,0.9-0.1,1.3-0.2
					c0.4-0.1,0.8-0.3,1.1-0.6l0.3,0.6c-0.4,0.2-0.8,0.4-1.2,0.6c-0.4,0.2-1,0.3-1.6,0.3c-0.6,0-1.1-0.1-1.6-0.3
					c-0.5-0.2-1-0.5-1.3-0.9c-0.4-0.4-0.7-0.9-0.9-1.5C1328.6,527.2,1328.5,526.6,1328.5,525.8z M1335.1,525.3c0-1.2-0.2-2-0.7-2.6
					c-0.5-0.6-1.1-0.9-1.9-0.9c-0.4,0-0.8,0.1-1.1,0.2c-0.4,0.2-0.7,0.4-1,0.7c-0.3,0.3-0.5,0.7-0.7,1.1c-0.2,0.4-0.3,0.9-0.3,1.5
					H1335.1z"/>
				<path fill="#2E6A7F" d="M1340.2,516.8h0.8v12.4c0,0.2,0,0.3,0.1,0.4c0.1,0.1,0.2,0.1,0.3,0.1c0,0,0.1,0,0.1,0c0,0,0.1,0,0.2,0
					l0.2,0.7c-0.1,0-0.2,0-0.3,0.1c-0.1,0-0.2,0-0.3,0c-0.7,0-1.1-0.5-1.1-1.4V516.8z"/>
				<path fill="#2E6A7F" d="M1347,519.1c-0.2,0-0.4-0.1-0.5-0.2c-0.1-0.1-0.2-0.3-0.2-0.5c0-0.2,0.1-0.4,0.2-0.6
					c0.1-0.1,0.3-0.2,0.5-0.2s0.4,0.1,0.5,0.2s0.2,0.3,0.2,0.6c0,0.2-0.1,0.4-0.2,0.5C1347.4,519,1347.2,519.1,1347,519.1z
					 M1346.6,521.3h0.8v9h-0.8V521.3z"/>
				<path fill="#2E6A7F" d="M1353,522h-1.4v-0.6l1.4-0.1l0.1-2.6h0.7v2.6h2.6v0.7h-2.6v5.9c0,0.3,0,0.5,0.1,0.8
					c0,0.2,0.1,0.4,0.2,0.6c0.1,0.2,0.3,0.3,0.5,0.4c0.2,0.1,0.4,0.1,0.8,0.1c0.2,0,0.4,0,0.6-0.1c0.2-0.1,0.4-0.1,0.6-0.2l0.2,0.7
					c-0.3,0.1-0.5,0.2-0.8,0.2c-0.3,0.1-0.5,0.1-0.7,0.1c-0.4,0-0.8-0.1-1.1-0.2c-0.3-0.1-0.5-0.3-0.7-0.6c-0.2-0.2-0.3-0.5-0.4-0.9
					c-0.1-0.3-0.1-0.7-0.1-1.1V522z"/>
				<path fill="#2E6A7F" d="M1360.1,532.7c0.4-0.2,0.8-0.5,1-0.9c0.3-0.4,0.4-0.8,0.4-1.4c-0.1,0-0.1,0-0.2,0
					c-0.2,0-0.4-0.1-0.6-0.2c-0.2-0.1-0.2-0.3-0.2-0.6c0-0.3,0.1-0.4,0.2-0.6c0.2-0.1,0.4-0.2,0.6-0.2c0.3,0,0.5,0.1,0.7,0.4
					c0.2,0.2,0.3,0.6,0.3,1c0,0.7-0.2,1.3-0.5,1.8c-0.4,0.5-0.8,0.9-1.4,1.2L1360.1,532.7z"/>
				<path fill="#2E6A7F" d="M1371.9,528.7c0.4,0.3,0.8,0.6,1.2,0.8c0.4,0.2,1,0.3,1.6,0.3c0.7,0,1.3-0.2,1.6-0.5
					c0.4-0.4,0.5-0.8,0.5-1.3c0-0.3-0.1-0.5-0.2-0.7c-0.1-0.2-0.3-0.4-0.5-0.5c-0.2-0.2-0.4-0.3-0.7-0.4c-0.3-0.1-0.5-0.2-0.8-0.3
					c-0.3-0.1-0.7-0.3-1-0.4c-0.3-0.1-0.7-0.3-0.9-0.5c-0.3-0.2-0.5-0.4-0.7-0.7c-0.2-0.3-0.3-0.6-0.3-1c0-0.3,0.1-0.6,0.2-0.9
					c0.1-0.3,0.3-0.6,0.6-0.8c0.3-0.2,0.6-0.4,0.9-0.5c0.4-0.1,0.8-0.2,1.3-0.2s0.9,0.1,1.4,0.3c0.5,0.2,0.8,0.4,1.2,0.7l-0.5,0.6
					c-0.3-0.2-0.6-0.4-1-0.6c-0.3-0.2-0.7-0.2-1.2-0.2c-0.4,0-0.7,0-0.9,0.1c-0.3,0.1-0.5,0.2-0.6,0.4c-0.2,0.2-0.3,0.3-0.4,0.5
					c-0.1,0.2-0.1,0.4-0.1,0.6c0,0.3,0.1,0.5,0.2,0.7c0.1,0.2,0.3,0.3,0.5,0.5c0.2,0.1,0.4,0.3,0.7,0.4c0.3,0.1,0.5,0.2,0.8,0.3
					c0.4,0.1,0.7,0.3,1.1,0.4c0.4,0.1,0.7,0.3,1,0.5c0.3,0.2,0.5,0.4,0.7,0.7c0.2,0.3,0.3,0.7,0.3,1.1c0,0.3-0.1,0.7-0.2,1
					c-0.1,0.3-0.3,0.6-0.6,0.8c-0.3,0.2-0.6,0.4-1,0.6c-0.4,0.1-0.8,0.2-1.3,0.2c-0.7,0-1.3-0.1-1.9-0.4c-0.6-0.2-1-0.5-1.4-0.9
					L1371.9,528.7z"/>
				<path fill="#2E6A7F" d="M1381.3,525.8c0-0.7,0.1-1.4,0.3-2c0.2-0.6,0.5-1.1,0.9-1.5c0.4-0.4,0.8-0.7,1.3-0.9
					c0.5-0.2,1-0.3,1.5-0.3c1.1,0,1.9,0.4,2.5,1.1c0.6,0.7,0.9,1.8,0.9,3.1c0,0.1,0,0.2,0,0.3c0,0.1,0,0.2,0,0.3h-6.5
					c0,0.6,0.1,1.1,0.3,1.6c0.2,0.5,0.4,0.9,0.7,1.2c0.3,0.3,0.6,0.6,1.1,0.8c0.4,0.2,0.9,0.3,1.4,0.3c0.5,0,0.9-0.1,1.3-0.2
					c0.4-0.1,0.8-0.3,1.1-0.6l0.3,0.6c-0.4,0.2-0.8,0.4-1.2,0.6c-0.4,0.2-1,0.3-1.6,0.3c-0.6,0-1.1-0.1-1.6-0.3
					c-0.5-0.2-1-0.5-1.3-0.9c-0.4-0.4-0.7-0.9-0.9-1.5C1381.4,527.2,1381.3,526.6,1381.3,525.8z M1387.9,525.3c0-1.2-0.2-2-0.7-2.6
					c-0.5-0.6-1.1-0.9-1.9-0.9c-0.4,0-0.8,0.1-1.1,0.2c-0.4,0.2-0.7,0.4-1,0.7c-0.3,0.3-0.5,0.7-0.7,1.1c-0.2,0.4-0.3,0.9-0.3,1.5
					H1387.9z"/>
				<path fill="#2E6A7F" d="M1392.3,525.8c0-0.7,0.1-1.4,0.3-2c0.2-0.6,0.5-1.1,0.9-1.5c0.4-0.4,0.8-0.7,1.3-1
					c0.5-0.2,1-0.3,1.5-0.3c0.6,0,1,0.1,1.4,0.3c0.4,0.2,0.8,0.5,1.3,0.8l0-1.7v-3.7h0.8v13.5h-0.7l-0.1-1.2h-0.1
					c-0.4,0.4-0.8,0.7-1.3,1c-0.5,0.3-1,0.4-1.6,0.4c-1.1,0-2.1-0.4-2.7-1.2C1392.6,528.5,1392.3,527.4,1392.3,525.8z M1393.1,525.8
					c0,0.6,0.1,1.1,0.2,1.6c0.1,0.5,0.3,0.9,0.6,1.3c0.3,0.3,0.6,0.6,0.9,0.8c0.4,0.2,0.8,0.3,1.3,0.3c0.5,0,1-0.1,1.4-0.4
					c0.5-0.3,0.9-0.6,1.4-1.1V523c-0.5-0.4-0.9-0.7-1.3-0.9c-0.4-0.2-0.9-0.3-1.3-0.3c-0.5,0-0.9,0.1-1.3,0.3
					c-0.4,0.2-0.7,0.5-1,0.8s-0.5,0.8-0.7,1.3C1393.2,524.7,1393.1,525.3,1393.1,525.8z"/>
				<path fill="#2E6A7F" d="M1410,525.8c0-0.7,0.1-1.4,0.3-2c0.2-0.6,0.5-1.1,0.9-1.5c0.4-0.4,0.8-0.7,1.3-1c0.5-0.2,1-0.3,1.5-0.3
					c0.6,0,1,0.1,1.4,0.3c0.4,0.2,0.8,0.5,1.3,0.8l0-1.7v-3.7h0.8v13.5h-0.7l-0.1-1.2h-0.1c-0.4,0.4-0.8,0.7-1.3,1
					c-0.5,0.3-1,0.4-1.6,0.4c-1.1,0-2.1-0.4-2.7-1.2C1410.4,528.5,1410,527.4,1410,525.8z M1410.9,525.8c0,0.6,0.1,1.1,0.2,1.6
					c0.1,0.5,0.3,0.9,0.6,1.3c0.3,0.3,0.6,0.6,0.9,0.8c0.4,0.2,0.8,0.3,1.3,0.3c0.5,0,1-0.1,1.4-0.4c0.5-0.3,0.9-0.6,1.4-1.1V523
					c-0.5-0.4-0.9-0.7-1.3-0.9c-0.4-0.2-0.9-0.3-1.3-0.3c-0.5,0-0.9,0.1-1.3,0.3c-0.4,0.2-0.7,0.5-1,0.8c-0.3,0.4-0.5,0.8-0.7,1.3
					C1411,524.7,1410.9,525.3,1410.9,525.8z"/>
				<path fill="#2E6A7F" d="M1422.1,525.8c0-0.8,0.1-1.4,0.3-2c0.2-0.6,0.5-1.1,0.9-1.5c0.4-0.4,0.8-0.7,1.3-0.9
					c0.5-0.2,1-0.3,1.5-0.3s1.1,0.1,1.6,0.3c0.5,0.2,0.9,0.5,1.3,0.9c0.4,0.4,0.7,0.9,0.9,1.5c0.2,0.6,0.3,1.3,0.3,2
					c0,0.8-0.1,1.4-0.3,2c-0.2,0.6-0.5,1.1-0.9,1.5c-0.4,0.4-0.8,0.7-1.3,0.9c-0.5,0.2-1,0.3-1.6,0.3s-1.1-0.1-1.5-0.3
					c-0.5-0.2-0.9-0.5-1.3-0.9c-0.4-0.4-0.7-0.9-0.9-1.5C1422.2,527.3,1422.1,526.6,1422.1,525.8z M1423,525.8
					c0,0.6,0.1,1.1,0.2,1.6c0.2,0.5,0.4,0.9,0.7,1.3c0.3,0.4,0.6,0.6,1,0.8c0.4,0.2,0.8,0.3,1.3,0.3c0.5,0,0.9-0.1,1.3-0.3
					c0.4-0.2,0.7-0.5,1-0.8c0.3-0.4,0.5-0.8,0.7-1.3c0.2-0.5,0.2-1,0.2-1.6c0-0.6-0.1-1.1-0.2-1.6c-0.2-0.5-0.4-0.9-0.7-1.3
					c-0.3-0.4-0.6-0.6-1-0.8c-0.4-0.2-0.8-0.3-1.3-0.3c-0.5,0-0.9,0.1-1.3,0.3c-0.4,0.2-0.7,0.5-1,0.8c-0.3,0.4-0.5,0.8-0.7,1.3
					C1423.1,524.7,1423,525.2,1423,525.8z"/>
				<path fill="#2E6A7F" d="M849,548.4c0-0.7,0.1-1.4,0.3-2c0.2-0.6,0.5-1.1,0.9-1.5c0.4-0.4,0.8-0.7,1.3-0.9c0.5-0.2,1-0.3,1.5-0.3
					c1.1,0,1.9,0.4,2.5,1.1c0.6,0.7,0.9,1.8,0.9,3.1c0,0.1,0,0.2,0,0.3c0,0.1,0,0.2,0,0.3h-6.5c0,0.6,0.1,1.1,0.3,1.6
					c0.2,0.5,0.4,0.9,0.7,1.2c0.3,0.3,0.6,0.6,1.1,0.8c0.4,0.2,0.9,0.3,1.4,0.3c0.5,0,0.9-0.1,1.3-0.2c0.4-0.1,0.8-0.3,1.1-0.6
					l0.3,0.6c-0.4,0.2-0.8,0.4-1.2,0.6c-0.4,0.2-1,0.3-1.6,0.3c-0.6,0-1.1-0.1-1.6-0.3c-0.5-0.2-1-0.5-1.3-0.9
					c-0.4-0.4-0.7-0.9-0.9-1.5C849.1,549.8,849,549.2,849,548.4z M855.6,547.9c0-1.2-0.2-2-0.7-2.6c-0.5-0.6-1.1-0.9-1.9-0.9
					c-0.4,0-0.8,0.1-1.1,0.2c-0.4,0.2-0.7,0.4-1,0.7c-0.3,0.3-0.5,0.7-0.7,1.1c-0.2,0.4-0.3,0.9-0.3,1.5H855.6z"/>
				<path fill="#2E6A7F" d="M861.1,541.7c-0.2,0-0.4-0.1-0.5-0.2c-0.1-0.1-0.2-0.3-0.2-0.5c0-0.2,0.1-0.4,0.2-0.6
					c0.1-0.1,0.3-0.2,0.5-0.2c0.2,0,0.4,0.1,0.5,0.2c0.1,0.1,0.2,0.3,0.2,0.6c0,0.2-0.1,0.4-0.2,0.5
					C861.5,541.6,861.4,541.7,861.1,541.7z M860.7,543.9h0.8v9h-0.8V543.9z"/>
				<path fill="#2E6A7F" d="M866.8,543.9h0.8v5.7c0,1,0.2,1.7,0.5,2.1c0.3,0.5,0.8,0.7,1.6,0.7c0.5,0,1-0.1,1.5-0.4
					c0.4-0.3,0.9-0.8,1.4-1.4v-6.7h0.8v9h-0.7l-0.1-1.5h0c-0.4,0.5-0.9,0.9-1.4,1.3c-0.5,0.3-1,0.5-1.7,0.5c-0.9,0-1.6-0.3-2.1-0.8
					c-0.4-0.6-0.7-1.4-0.7-2.6V543.9z"/>
				<path fill="#2E6A7F" d="M878.1,551.3c0.4,0.3,0.8,0.6,1.2,0.8c0.4,0.2,1,0.3,1.6,0.3c0.7,0,1.3-0.2,1.6-0.5
					c0.4-0.4,0.5-0.8,0.5-1.3c0-0.3-0.1-0.5-0.2-0.7c-0.1-0.2-0.3-0.4-0.5-0.5c-0.2-0.2-0.4-0.3-0.7-0.4c-0.3-0.1-0.5-0.2-0.8-0.3
					c-0.3-0.1-0.7-0.3-1-0.4c-0.3-0.1-0.7-0.3-0.9-0.5c-0.3-0.2-0.5-0.4-0.7-0.7c-0.2-0.3-0.3-0.6-0.3-1c0-0.3,0.1-0.6,0.2-0.9
					c0.1-0.3,0.3-0.6,0.6-0.8s0.6-0.4,0.9-0.5c0.4-0.1,0.8-0.2,1.3-0.2c0.5,0,0.9,0.1,1.4,0.3c0.5,0.2,0.9,0.4,1.2,0.7l-0.5,0.6
					c-0.3-0.2-0.6-0.4-1-0.6c-0.3-0.2-0.7-0.2-1.2-0.2c-0.4,0-0.7,0-0.9,0.1c-0.3,0.1-0.5,0.2-0.6,0.4c-0.2,0.2-0.3,0.3-0.4,0.5
					c-0.1,0.2-0.1,0.4-0.1,0.6c0,0.3,0.1,0.5,0.2,0.7c0.1,0.2,0.3,0.3,0.5,0.5c0.2,0.1,0.4,0.3,0.7,0.4c0.3,0.1,0.5,0.2,0.8,0.3
					c0.4,0.1,0.7,0.3,1.1,0.4c0.4,0.1,0.7,0.3,1,0.5c0.3,0.2,0.5,0.4,0.7,0.7c0.2,0.3,0.3,0.7,0.3,1.1c0,0.3-0.1,0.7-0.2,1
					c-0.1,0.3-0.3,0.6-0.6,0.8c-0.3,0.2-0.6,0.4-1,0.6c-0.4,0.1-0.8,0.2-1.3,0.2c-0.7,0-1.3-0.1-1.9-0.4c-0.6-0.2-1-0.5-1.4-0.9
					L878.1,551.3z"/>
				<path fill="#2E6A7F" d="M888.2,543.9h0.7l0.1,1.4h0.1c0.4-0.5,0.8-0.8,1.3-1.2c0.5-0.3,1-0.5,1.5-0.5c0.7,0,1.3,0.2,1.7,0.5
					c0.4,0.3,0.7,0.8,0.8,1.3c0.5-0.6,1-1,1.5-1.3c0.5-0.3,1-0.5,1.5-0.5c1.8,0,2.7,1.2,2.7,3.5v5.8h-0.8v-5.7c0-1-0.2-1.7-0.5-2.1
					c-0.3-0.5-0.8-0.7-1.5-0.7c-0.8,0-1.7,0.6-2.7,1.7v6.8h-0.8v-5.7c0-1-0.2-1.7-0.5-2.1c-0.3-0.5-0.8-0.7-1.5-0.7
					c-0.8,0-1.7,0.6-2.7,1.7v6.8h-0.8V543.9z"/>
				<path fill="#2E6A7F" d="M904.7,548.4c0-0.8,0.1-1.4,0.3-2c0.2-0.6,0.5-1.1,0.9-1.5c0.4-0.4,0.8-0.7,1.3-0.9
					c0.5-0.2,1-0.3,1.5-0.3c0.5,0,1.1,0.1,1.6,0.3c0.5,0.2,0.9,0.5,1.3,0.9c0.4,0.4,0.7,0.9,0.9,1.5c0.2,0.6,0.3,1.3,0.3,2
					c0,0.8-0.1,1.4-0.3,2c-0.2,0.6-0.5,1.1-0.9,1.5c-0.4,0.4-0.8,0.7-1.3,0.9c-0.5,0.2-1,0.3-1.6,0.3c-0.5,0-1.1-0.1-1.5-0.3
					c-0.5-0.2-0.9-0.5-1.3-0.9c-0.4-0.4-0.7-0.9-0.9-1.5C904.8,549.8,904.7,549.2,904.7,548.4z M905.5,548.4c0,0.6,0.1,1.1,0.2,1.6
					c0.2,0.5,0.4,0.9,0.7,1.3c0.3,0.4,0.6,0.6,1,0.8c0.4,0.2,0.8,0.3,1.3,0.3c0.5,0,0.9-0.1,1.3-0.3c0.4-0.2,0.7-0.5,1-0.8
					c0.3-0.4,0.5-0.8,0.7-1.3s0.2-1,0.2-1.6c0-0.6-0.1-1.1-0.2-1.6s-0.4-0.9-0.7-1.3s-0.6-0.6-1-0.8c-0.4-0.2-0.8-0.3-1.3-0.3
					c-0.5,0-0.9,0.1-1.3,0.3c-0.4,0.2-0.7,0.5-1,0.8c-0.3,0.4-0.5,0.8-0.7,1.3C905.6,547.3,905.5,547.8,905.5,548.4z"/>
				<path fill="#2E6A7F" d="M916.6,548.4c0-0.7,0.1-1.4,0.3-2c0.2-0.6,0.5-1.1,0.9-1.5c0.4-0.4,0.8-0.7,1.3-1c0.5-0.2,1-0.3,1.5-0.3
					c0.6,0,1,0.1,1.4,0.3c0.4,0.2,0.8,0.5,1.3,0.8l0-1.7v-3.7h0.8v13.5h-0.7l-0.1-1.2h-0.1c-0.4,0.4-0.8,0.7-1.3,1
					c-0.5,0.3-1,0.4-1.6,0.4c-1.1,0-2.1-0.4-2.7-1.2C916.9,551.1,916.6,550,916.6,548.4z M917.5,548.4c0,0.6,0.1,1.1,0.2,1.6
					c0.1,0.5,0.3,0.9,0.6,1.3s0.6,0.6,0.9,0.8c0.4,0.2,0.8,0.3,1.3,0.3c0.5,0,1-0.1,1.4-0.4c0.5-0.3,0.9-0.6,1.4-1.1v-5.4
					c-0.5-0.4-0.9-0.7-1.3-0.9c-0.4-0.2-0.9-0.3-1.3-0.3c-0.5,0-0.9,0.1-1.3,0.3c-0.4,0.2-0.7,0.5-1,0.8c-0.3,0.4-0.5,0.8-0.7,1.3
					C917.6,547.3,917.5,547.9,917.5,548.4z"/>
				<path fill="#2E6A7F" d="M935.3,544.6h-1.4V544l1.4-0.1l0.1-2.6h0.7v2.6h2.6v0.7h-2.6v5.9c0,0.3,0,0.5,0.1,0.8
					c0,0.2,0.1,0.4,0.2,0.6c0.1,0.2,0.3,0.3,0.5,0.4c0.2,0.1,0.4,0.1,0.8,0.1c0.2,0,0.4,0,0.6-0.1c0.2-0.1,0.4-0.1,0.6-0.2l0.2,0.7
					c-0.3,0.1-0.5,0.2-0.8,0.2c-0.3,0.1-0.5,0.1-0.7,0.1c-0.4,0-0.8-0.1-1.1-0.2c-0.3-0.1-0.5-0.3-0.7-0.6c-0.2-0.2-0.3-0.5-0.4-0.9
					c-0.1-0.3-0.1-0.7-0.1-1.1V544.6z"/>
				<path fill="#2E6A7F" d="M941.9,548.4c0-0.7,0.1-1.4,0.3-2c0.2-0.6,0.5-1.1,0.9-1.5c0.4-0.4,0.8-0.7,1.3-0.9
					c0.5-0.2,1-0.3,1.5-0.3c1.1,0,1.9,0.4,2.5,1.1c0.6,0.7,0.9,1.8,0.9,3.1c0,0.1,0,0.2,0,0.3c0,0.1,0,0.2,0,0.3h-6.5
					c0,0.6,0.1,1.1,0.3,1.6c0.2,0.5,0.4,0.9,0.7,1.2c0.3,0.3,0.6,0.6,1.1,0.8c0.4,0.2,0.9,0.3,1.4,0.3c0.5,0,0.9-0.1,1.3-0.2
					c0.4-0.1,0.8-0.3,1.1-0.6l0.3,0.6c-0.4,0.2-0.8,0.4-1.2,0.6c-0.4,0.2-1,0.3-1.6,0.3c-0.6,0-1.1-0.1-1.6-0.3
					c-0.5-0.2-1-0.5-1.3-0.9c-0.4-0.4-0.7-0.9-0.9-1.5C942,549.8,941.9,549.2,941.9,548.4z M948.5,547.9c0-1.2-0.2-2-0.7-2.6
					c-0.5-0.6-1.1-0.9-1.9-0.9c-0.4,0-0.8,0.1-1.1,0.2c-0.4,0.2-0.7,0.4-1,0.7c-0.3,0.3-0.5,0.7-0.7,1.1c-0.2,0.4-0.3,0.9-0.3,1.5
					H948.5z"/>
				<path fill="#2E6A7F" d="M953.7,543.9h0.7l0.1,1.4h0.1c0.4-0.5,0.8-0.8,1.3-1.2c0.5-0.3,1-0.5,1.5-0.5c0.7,0,1.3,0.2,1.7,0.5
					c0.4,0.3,0.7,0.8,0.8,1.3c0.5-0.6,1-1,1.5-1.3c0.5-0.3,1-0.5,1.5-0.5c1.8,0,2.7,1.2,2.7,3.5v5.8h-0.8v-5.7c0-1-0.2-1.7-0.5-2.1
					c-0.3-0.5-0.8-0.7-1.5-0.7c-0.8,0-1.7,0.6-2.7,1.7v6.8h-0.8v-5.7c0-1-0.2-1.7-0.5-2.1c-0.3-0.5-0.8-0.7-1.5-0.7
					c-0.8,0-1.7,0.6-2.7,1.7v6.8h-0.8V543.9z"/>
				<path fill="#2E6A7F" d="M971.7,553.7v3.3h-0.8v-13.1h0.7l0.1,1.1h0.1c0.4-0.4,0.9-0.7,1.4-0.9c0.5-0.3,1.1-0.4,1.6-0.4
					c1.2,0,2.1,0.4,2.7,1.3c0.6,0.8,0.9,2,0.9,3.4c0,0.8-0.1,1.4-0.3,2.1c-0.2,0.6-0.5,1.1-0.9,1.5c-0.4,0.4-0.8,0.7-1.3,1
					c-0.5,0.2-1,0.3-1.5,0.3c-0.4,0-0.9-0.1-1.3-0.3c-0.5-0.2-0.9-0.5-1.4-0.8V553.7z M971.7,551.2c0.5,0.4,1,0.7,1.5,0.9
					c0.5,0.2,0.9,0.3,1.2,0.3c0.5,0,0.9-0.1,1.3-0.3c0.4-0.2,0.7-0.5,1-0.8c0.3-0.4,0.5-0.8,0.6-1.3c0.2-0.5,0.2-1.1,0.2-1.7
					c0-0.6-0.1-1.1-0.2-1.5c-0.1-0.5-0.3-0.9-0.5-1.2c-0.2-0.3-0.5-0.6-0.9-0.8c-0.4-0.2-0.8-0.3-1.3-0.3c-0.5,0-0.9,0.1-1.4,0.4
					c-0.5,0.3-1,0.6-1.6,1.1V551.2z"/>
				<path fill="#2E6A7F" d="M982.2,548.4c0-0.8,0.1-1.4,0.3-2c0.2-0.6,0.5-1.1,0.9-1.5c0.4-0.4,0.8-0.7,1.3-0.9
					c0.5-0.2,1-0.3,1.5-0.3c0.5,0,1.1,0.1,1.6,0.3c0.5,0.2,0.9,0.5,1.3,0.9c0.4,0.4,0.7,0.9,0.9,1.5c0.2,0.6,0.3,1.3,0.3,2
					c0,0.8-0.1,1.4-0.3,2c-0.2,0.6-0.5,1.1-0.9,1.5c-0.4,0.4-0.8,0.7-1.3,0.9c-0.5,0.2-1,0.3-1.6,0.3c-0.5,0-1.1-0.1-1.5-0.3
					c-0.5-0.2-0.9-0.5-1.3-0.9c-0.4-0.4-0.7-0.9-0.9-1.5C982.3,549.8,982.2,549.2,982.2,548.4z M983.1,548.4c0,0.6,0.1,1.1,0.2,1.6
					c0.2,0.5,0.4,0.9,0.7,1.3c0.3,0.4,0.6,0.6,1,0.8c0.4,0.2,0.8,0.3,1.3,0.3c0.5,0,0.9-0.1,1.3-0.3c0.4-0.2,0.7-0.5,1-0.8
					c0.3-0.4,0.5-0.8,0.7-1.3s0.2-1,0.2-1.6c0-0.6-0.1-1.1-0.2-1.6s-0.4-0.9-0.7-1.3s-0.6-0.6-1-0.8c-0.4-0.2-0.8-0.3-1.3-0.3
					c-0.5,0-0.9,0.1-1.3,0.3c-0.4,0.2-0.7,0.5-1,0.8c-0.3,0.4-0.5,0.8-0.7,1.3C983.1,547.3,983.1,547.8,983.1,548.4z"/>
				<path fill="#2E6A7F" d="M994.9,543.9h0.7l0.1,1.7h0.1c0.3-0.6,0.7-1,1.1-1.4c0.4-0.4,0.9-0.5,1.5-0.5c0.2,0,0.3,0,0.5,0
					c0.1,0,0.3,0.1,0.4,0.2l-0.2,0.8c-0.2-0.1-0.3-0.1-0.4-0.1c-0.1,0-0.3,0-0.4,0c-0.4,0-0.8,0.2-1.3,0.5c-0.4,0.3-0.8,0.9-1.2,1.8
					v6.2h-0.8V543.9z"/>
				<path fill="#2E6A7F" d="M1008.8,541.7c-0.2,0-0.4-0.1-0.5-0.2c-0.1-0.1-0.2-0.3-0.2-0.5c0-0.2,0.1-0.4,0.2-0.6
					c0.1-0.1,0.3-0.2,0.5-0.2c0.2,0,0.4,0.1,0.5,0.2c0.1,0.1,0.2,0.3,0.2,0.6c0,0.2-0.1,0.4-0.2,0.5
					C1009.2,541.6,1009,541.7,1008.8,541.7z M1008.4,543.9h0.8v9h-0.8V543.9z"/>
				<path fill="#2E6A7F" d="M1014.6,543.9h0.7l0.1,1.4h0.1c0.5-0.5,0.9-0.8,1.4-1.2c0.5-0.3,1-0.5,1.7-0.5c0.9,0,1.6,0.3,2.1,0.8
					c0.4,0.6,0.7,1.4,0.7,2.6v5.8h-0.8v-5.7c0-1-0.2-1.7-0.5-2.1c-0.3-0.5-0.9-0.7-1.6-0.7c-0.5,0-1,0.1-1.5,0.4
					c-0.4,0.3-0.9,0.7-1.5,1.3v6.8h-0.8V543.9z"/>
				<path fill="#2E6A7F" d="M1025.7,548.4c0-0.8,0.1-1.4,0.3-2c0.2-0.6,0.5-1.1,0.9-1.5s0.8-0.7,1.3-0.9c0.5-0.2,1-0.3,1.6-0.3
					c0.6,0,1.2,0.1,1.6,0.3c0.4,0.2,0.8,0.5,1.1,0.8l-0.5,0.6c-0.3-0.3-0.6-0.5-1-0.7c-0.4-0.2-0.7-0.3-1.2-0.3
					c-0.5,0-0.9,0.1-1.3,0.3c-0.4,0.2-0.7,0.5-1,0.8c-0.3,0.4-0.5,0.8-0.7,1.3c-0.2,0.5-0.3,1-0.3,1.6c0,0.6,0.1,1.1,0.2,1.6
					c0.2,0.5,0.4,0.9,0.7,1.3c0.3,0.4,0.6,0.6,1,0.8c0.4,0.2,0.9,0.3,1.3,0.3c0.5,0,0.9-0.1,1.3-0.3c0.4-0.2,0.8-0.4,1.1-0.7
					l0.4,0.6c-0.4,0.4-0.8,0.6-1.3,0.9c-0.5,0.2-1,0.3-1.6,0.3c-0.6,0-1.1-0.1-1.6-0.3c-0.5-0.2-0.9-0.5-1.3-0.9
					c-0.4-0.4-0.7-0.9-0.9-1.5C1025.8,549.8,1025.7,549.2,1025.7,548.4z"/>
				<path fill="#2E6A7F" d="M1037.2,541.7c-0.2,0-0.4-0.1-0.5-0.2c-0.1-0.1-0.2-0.3-0.2-0.5c0-0.2,0.1-0.4,0.2-0.6
					c0.1-0.1,0.3-0.2,0.5-0.2s0.4,0.1,0.5,0.2c0.1,0.1,0.2,0.3,0.2,0.6c0,0.2-0.1,0.4-0.2,0.5
					C1037.6,541.6,1037.4,541.7,1037.2,541.7z M1036.8,543.9h0.8v9h-0.8V543.9z"/>
				<path fill="#2E6A7F" d="M1042.2,548.4c0-0.7,0.1-1.4,0.3-2c0.2-0.6,0.5-1.1,0.9-1.5c0.4-0.4,0.8-0.7,1.3-1
					c0.5-0.2,1-0.3,1.5-0.3c0.6,0,1,0.1,1.4,0.3c0.4,0.2,0.8,0.5,1.3,0.8l0-1.7v-3.7h0.8v13.5h-0.7l-0.1-1.2h-0.1
					c-0.4,0.4-0.8,0.7-1.3,1c-0.5,0.3-1,0.4-1.6,0.4c-1.1,0-2.1-0.4-2.7-1.2C1042.6,551.1,1042.2,550,1042.2,548.4z M1043.1,548.4
					c0,0.6,0.1,1.1,0.2,1.6c0.1,0.5,0.3,0.9,0.6,1.3c0.3,0.3,0.6,0.6,0.9,0.8c0.4,0.2,0.8,0.3,1.3,0.3c0.5,0,1-0.1,1.4-0.4
					c0.5-0.3,0.9-0.6,1.4-1.1v-5.4c-0.5-0.4-0.9-0.7-1.3-0.9c-0.4-0.2-0.9-0.3-1.3-0.3c-0.5,0-0.9,0.1-1.3,0.3
					c-0.4,0.2-0.7,0.5-1,0.8c-0.3,0.4-0.5,0.8-0.7,1.3C1043.2,547.3,1043.1,547.9,1043.1,548.4z"/>
				<path fill="#2E6A7F" d="M1055.5,541.7c-0.2,0-0.4-0.1-0.5-0.2c-0.1-0.1-0.2-0.3-0.2-0.5c0-0.2,0.1-0.4,0.2-0.6s0.3-0.2,0.5-0.2
					s0.4,0.1,0.5,0.2c0.1,0.1,0.2,0.3,0.2,0.6c0,0.2-0.1,0.4-0.2,0.5C1055.9,541.6,1055.8,541.7,1055.5,541.7z M1055.1,543.9h0.8v9
					h-0.8V543.9z"/>
				<path fill="#2E6A7F" d="M1060.6,548.4c0-0.7,0.1-1.4,0.3-2c0.2-0.6,0.5-1.1,0.9-1.5c0.4-0.4,0.8-0.7,1.3-1
					c0.5-0.2,1-0.3,1.5-0.3c0.6,0,1,0.1,1.4,0.3c0.4,0.2,0.8,0.5,1.3,0.8l0-1.7v-3.7h0.8v13.5h-0.7l-0.1-1.2h-0.1
					c-0.4,0.4-0.8,0.7-1.3,1c-0.5,0.3-1,0.4-1.6,0.4c-1.1,0-2.1-0.4-2.7-1.2C1060.9,551.1,1060.6,550,1060.6,548.4z M1061.4,548.4
					c0,0.6,0.1,1.1,0.2,1.6c0.1,0.5,0.3,0.9,0.6,1.3c0.3,0.3,0.6,0.6,0.9,0.8c0.4,0.2,0.8,0.3,1.3,0.3c0.5,0,1-0.1,1.4-0.4
					c0.5-0.3,0.9-0.6,1.4-1.1v-5.4c-0.5-0.4-0.9-0.7-1.3-0.9c-0.4-0.2-0.9-0.3-1.3-0.3c-0.5,0-0.9,0.1-1.3,0.3
					c-0.4,0.2-0.7,0.5-1,0.8c-0.3,0.4-0.5,0.8-0.7,1.3C1061.5,547.3,1061.4,547.9,1061.4,548.4z"/>
				<path fill="#2E6A7F" d="M1073.3,543.9h0.8v5.7c0,1,0.2,1.7,0.5,2.1c0.3,0.5,0.8,0.7,1.6,0.7c0.5,0,1-0.1,1.5-0.4
					c0.4-0.3,0.9-0.8,1.4-1.4v-6.7h0.8v9h-0.7l-0.1-1.5h0c-0.4,0.5-0.9,0.9-1.4,1.3c-0.5,0.3-1,0.5-1.7,0.5c-0.9,0-1.6-0.3-2.1-0.8
					c-0.4-0.6-0.7-1.4-0.7-2.6V543.9z"/>
				<path fill="#2E6A7F" d="M1085.3,543.9h0.7l0.1,1.4h0.1c0.5-0.5,0.9-0.8,1.4-1.2c0.5-0.3,1-0.5,1.7-0.5c0.9,0,1.6,0.3,2.1,0.8
					c0.4,0.6,0.7,1.4,0.7,2.6v5.8h-0.8v-5.7c0-1-0.2-1.7-0.5-2.1c-0.3-0.5-0.9-0.7-1.6-0.7c-0.5,0-1,0.1-1.5,0.4
					c-0.4,0.3-0.9,0.7-1.5,1.3v6.8h-0.8V543.9z"/>
				<path fill="#2E6A7F" d="M1097.4,544.6h-1.4V544l1.4-0.1l0.1-2.6h0.7v2.6h2.6v0.7h-2.6v5.9c0,0.3,0,0.5,0.1,0.8
					c0,0.2,0.1,0.4,0.2,0.6c0.1,0.2,0.3,0.3,0.5,0.4c0.2,0.1,0.4,0.1,0.8,0.1c0.2,0,0.4,0,0.6-0.1c0.2-0.1,0.4-0.1,0.6-0.2l0.2,0.7
					c-0.3,0.1-0.5,0.2-0.8,0.2c-0.3,0.1-0.5,0.1-0.7,0.1c-0.4,0-0.8-0.1-1.1-0.2c-0.3-0.1-0.5-0.3-0.7-0.6c-0.2-0.2-0.3-0.5-0.4-0.9
					c-0.1-0.3-0.1-0.7-0.1-1.1V544.6z"/>
				<path fill="#2E6A7F" d="M1110.4,543.9h0.8v5.7c0,1,0.2,1.7,0.5,2.1c0.3,0.5,0.8,0.7,1.6,0.7c0.5,0,1-0.1,1.5-0.4
					c0.4-0.3,0.9-0.8,1.4-1.4v-6.7h0.8v9h-0.7l-0.1-1.5h0c-0.4,0.5-0.9,0.9-1.4,1.3c-0.5,0.3-1,0.5-1.7,0.5c-0.9,0-1.6-0.3-2.1-0.8
					c-0.4-0.6-0.7-1.4-0.7-2.6V543.9z"/>
				<path fill="#2E6A7F" d="M1122.6,544.6h-1.4V544l1.4-0.1l0.1-2.6h0.7v2.6h2.6v0.7h-2.6v5.9c0,0.3,0,0.5,0.1,0.8
					c0,0.2,0.1,0.4,0.2,0.6c0.1,0.2,0.3,0.3,0.5,0.4c0.2,0.1,0.4,0.1,0.8,0.1c0.2,0,0.4,0,0.6-0.1c0.2-0.1,0.4-0.1,0.6-0.2l0.2,0.7
					c-0.3,0.1-0.5,0.2-0.8,0.2c-0.3,0.1-0.5,0.1-0.7,0.1c-0.4,0-0.8-0.1-1.1-0.2c-0.3-0.1-0.5-0.3-0.7-0.6c-0.2-0.2-0.3-0.5-0.4-0.9
					c-0.1-0.3-0.1-0.7-0.1-1.1V544.6z"/>
				<path fill="#2E6A7F" d="M1135.8,539.4h0.8v12.4c0,0.2,0,0.3,0.1,0.4c0.1,0.1,0.2,0.1,0.3,0.1c0,0,0.1,0,0.1,0c0,0,0.1,0,0.2,0
					l0.2,0.7c-0.1,0-0.2,0-0.3,0.1c-0.1,0-0.2,0-0.3,0c-0.7,0-1.1-0.5-1.1-1.4V539.4z"/>
				<path fill="#2E6A7F" d="M1141.6,550.7c0-1,0.5-1.8,1.4-2.3c0.9-0.5,2.4-0.9,4.4-1.1c0-0.3,0-0.7-0.1-1c-0.1-0.3-0.2-0.7-0.3-0.9
					c-0.2-0.3-0.4-0.5-0.7-0.7c-0.3-0.2-0.6-0.3-1.1-0.3c-0.6,0-1.2,0.1-1.7,0.4c-0.5,0.2-0.9,0.5-1.2,0.7l-0.4-0.6
					c0.2-0.1,0.4-0.2,0.6-0.4c0.2-0.1,0.5-0.3,0.8-0.4c0.3-0.1,0.6-0.2,0.9-0.3c0.3-0.1,0.7-0.1,1.1-0.1c0.5,0,1,0.1,1.4,0.3
					s0.7,0.4,0.9,0.7c0.2,0.3,0.4,0.7,0.5,1.1c0.1,0.4,0.1,0.9,0.1,1.4v5.8h-0.7l-0.1-1.2h0c-0.5,0.4-1,0.7-1.5,1
					c-0.5,0.3-1.1,0.4-1.7,0.4c-0.4,0-0.7-0.1-1-0.2c-0.3-0.1-0.6-0.3-0.8-0.5c-0.2-0.2-0.4-0.5-0.6-0.8
					C1141.7,551.5,1141.6,551.1,1141.6,550.7z M1142.5,550.6c0,0.7,0.2,1.1,0.6,1.4c0.4,0.3,0.8,0.4,1.3,0.4c0.5,0,1-0.1,1.5-0.4
					s1-0.6,1.6-1.1v-3.1c-0.9,0.1-1.7,0.3-2.3,0.4c-0.6,0.2-1.1,0.4-1.5,0.6c-0.4,0.2-0.7,0.5-0.8,0.8
					C1142.6,550,1142.5,550.3,1142.5,550.6z"/>
				<path fill="#2E6A7F" d="M1153.4,539.4h0.8v3.9l0,1.8c0.5-0.4,1-0.7,1.5-1c0.5-0.3,1.1-0.4,1.6-0.4c1.2,0,2.1,0.4,2.7,1.3
					s0.9,2,0.9,3.4c0,0.8-0.1,1.4-0.3,2.1c-0.2,0.6-0.5,1.1-0.9,1.5c-0.4,0.4-0.8,0.7-1.3,1c-0.5,0.2-1,0.3-1.5,0.3
					c-0.4,0-0.9-0.1-1.4-0.3c-0.5-0.2-0.9-0.5-1.3-0.8h0l-0.1,0.8h-0.7V539.4z M1154.2,551.2c0.5,0.4,1,0.7,1.4,0.9
					c0.5,0.2,0.9,0.3,1.2,0.3c0.5,0,0.9-0.1,1.3-0.3c0.4-0.2,0.7-0.5,1-0.8c0.3-0.4,0.5-0.8,0.6-1.3c0.2-0.5,0.2-1.1,0.2-1.7
					c0-0.6-0.1-1.1-0.2-1.5c-0.1-0.5-0.3-0.9-0.5-1.2c-0.2-0.3-0.5-0.6-0.9-0.8c-0.4-0.2-0.8-0.3-1.3-0.3c-0.5,0-0.9,0.1-1.4,0.4
					c-0.5,0.3-1,0.6-1.5,1.1V551.2z"/>
				<path fill="#2E6A7F" d="M1164.8,548.4c0-0.8,0.1-1.4,0.3-2c0.2-0.6,0.5-1.1,0.9-1.5c0.4-0.4,0.8-0.7,1.3-0.9
					c0.5-0.2,1-0.3,1.5-0.3s1.1,0.1,1.6,0.3c0.5,0.2,0.9,0.5,1.3,0.9c0.4,0.4,0.7,0.9,0.9,1.5c0.2,0.6,0.3,1.3,0.3,2
					c0,0.8-0.1,1.4-0.3,2c-0.2,0.6-0.5,1.1-0.9,1.5c-0.4,0.4-0.8,0.7-1.3,0.9c-0.5,0.2-1,0.3-1.6,0.3s-1.1-0.1-1.5-0.3
					c-0.5-0.2-0.9-0.5-1.3-0.9c-0.4-0.4-0.7-0.9-0.9-1.5C1164.9,549.8,1164.8,549.2,1164.8,548.4z M1165.6,548.4
					c0,0.6,0.1,1.1,0.2,1.6c0.2,0.5,0.4,0.9,0.7,1.3c0.3,0.4,0.6,0.6,1,0.8c0.4,0.2,0.8,0.3,1.3,0.3c0.5,0,0.9-0.1,1.3-0.3
					c0.4-0.2,0.7-0.5,1-0.8c0.3-0.4,0.5-0.8,0.7-1.3c0.2-0.5,0.2-1,0.2-1.6c0-0.6-0.1-1.1-0.2-1.6c-0.2-0.5-0.4-0.9-0.7-1.3
					c-0.3-0.4-0.6-0.6-1-0.8c-0.4-0.2-0.8-0.3-1.3-0.3c-0.5,0-0.9,0.1-1.3,0.3c-0.4,0.2-0.7,0.5-1,0.8c-0.3,0.4-0.5,0.8-0.7,1.3
					C1165.7,547.3,1165.6,547.8,1165.6,548.4z"/>
				<path fill="#2E6A7F" d="M1177.5,543.9h0.7l0.1,1.7h0.1c0.3-0.6,0.7-1,1.1-1.4c0.4-0.4,0.9-0.5,1.5-0.5c0.2,0,0.3,0,0.5,0
					c0.1,0,0.3,0.1,0.4,0.2l-0.2,0.8c-0.2-0.1-0.3-0.1-0.4-0.1c-0.1,0-0.3,0-0.4,0c-0.4,0-0.8,0.2-1.3,0.5c-0.4,0.3-0.8,0.9-1.2,1.8
					v6.2h-0.8V543.9z"/>
				<path fill="#2E6A7F" d="M1184.4,548.4c0-0.7,0.1-1.4,0.3-2c0.2-0.6,0.5-1.1,0.9-1.5c0.4-0.4,0.8-0.7,1.3-0.9
					c0.5-0.2,1-0.3,1.5-0.3c1.1,0,1.9,0.4,2.5,1.1c0.6,0.7,0.9,1.8,0.9,3.1c0,0.1,0,0.2,0,0.3c0,0.1,0,0.2,0,0.3h-6.5
					c0,0.6,0.1,1.1,0.3,1.6c0.2,0.5,0.4,0.9,0.7,1.2c0.3,0.3,0.6,0.6,1.1,0.8c0.4,0.2,0.9,0.3,1.4,0.3c0.5,0,0.9-0.1,1.3-0.2
					c0.4-0.1,0.8-0.3,1.1-0.6l0.3,0.6c-0.4,0.2-0.8,0.4-1.2,0.6c-0.4,0.2-1,0.3-1.6,0.3c-0.6,0-1.1-0.1-1.6-0.3
					c-0.5-0.2-1-0.5-1.3-0.9c-0.4-0.4-0.7-0.9-0.9-1.5C1184.5,549.8,1184.4,549.2,1184.4,548.4z M1191,547.9c0-1.2-0.2-2-0.7-2.6
					c-0.5-0.6-1.1-0.9-1.9-0.9c-0.4,0-0.8,0.1-1.1,0.2c-0.4,0.2-0.7,0.4-1,0.7c-0.3,0.3-0.5,0.7-0.7,1.1c-0.2,0.4-0.3,0.9-0.3,1.5
					H1191z"/>
				<path fill="#2E6A7F" d="M1201,548.4c0-0.7,0.1-1.4,0.3-2c0.2-0.6,0.5-1.1,0.9-1.5c0.4-0.4,0.8-0.7,1.3-0.9
					c0.5-0.2,1-0.3,1.5-0.3c1.1,0,1.9,0.4,2.5,1.1c0.6,0.7,0.9,1.8,0.9,3.1c0,0.1,0,0.2,0,0.3c0,0.1,0,0.2,0,0.3h-6.5
					c0,0.6,0.1,1.1,0.3,1.6c0.2,0.5,0.4,0.9,0.7,1.2c0.3,0.3,0.6,0.6,1.1,0.8c0.4,0.2,0.9,0.3,1.4,0.3c0.5,0,0.9-0.1,1.3-0.2
					c0.4-0.1,0.8-0.3,1.1-0.6l0.3,0.6c-0.4,0.2-0.8,0.4-1.2,0.6c-0.4,0.2-1,0.3-1.6,0.3c-0.6,0-1.1-0.1-1.6-0.3
					c-0.5-0.2-1-0.5-1.3-0.9c-0.4-0.4-0.7-0.9-0.9-1.5C1201.1,549.8,1201,549.2,1201,548.4z M1207.6,547.9c0-1.2-0.2-2-0.7-2.6
					c-0.5-0.6-1.1-0.9-1.9-0.9c-0.4,0-0.8,0.1-1.1,0.2c-0.4,0.2-0.7,0.4-1,0.7c-0.3,0.3-0.5,0.7-0.7,1.1c-0.2,0.4-0.3,0.9-0.3,1.5
					H1207.6z"/>
				<path fill="#2E6A7F" d="M1212.7,544.6h-1.4V544l1.4-0.1l0.1-2.6h0.7v2.6h2.6v0.7h-2.6v5.9c0,0.3,0,0.5,0.1,0.8
					c0,0.2,0.1,0.4,0.2,0.6c0.1,0.2,0.3,0.3,0.5,0.4c0.2,0.1,0.4,0.1,0.8,0.1c0.2,0,0.4,0,0.6-0.1c0.2-0.1,0.4-0.1,0.6-0.2l0.2,0.7
					c-0.3,0.1-0.5,0.2-0.8,0.2c-0.3,0.1-0.5,0.1-0.7,0.1c-0.4,0-0.8-0.1-1.1-0.2c-0.3-0.1-0.5-0.3-0.7-0.6c-0.2-0.2-0.3-0.5-0.4-0.9
					c-0.1-0.3-0.1-0.7-0.1-1.1V544.6z"/>
				<path fill="#2E6A7F" d="M1225.1,548.4c0-0.7,0.1-1.4,0.3-2c0.2-0.6,0.5-1.1,0.9-1.5c0.4-0.4,0.8-0.7,1.3-1
					c0.5-0.2,1-0.3,1.5-0.3c0.6,0,1,0.1,1.4,0.3c0.4,0.2,0.8,0.5,1.3,0.8l0-1.7v-3.7h0.8v13.5h-0.7l-0.1-1.2h-0.1
					c-0.4,0.4-0.8,0.7-1.3,1c-0.5,0.3-1,0.4-1.6,0.4c-1.1,0-2.1-0.4-2.7-1.2C1225.5,551.1,1225.1,550,1225.1,548.4z M1226,548.4
					c0,0.6,0.1,1.1,0.2,1.6c0.1,0.5,0.3,0.9,0.6,1.3c0.3,0.3,0.6,0.6,0.9,0.8c0.4,0.2,0.8,0.3,1.3,0.3c0.5,0,1-0.1,1.4-0.4
					c0.5-0.3,0.9-0.6,1.4-1.1v-5.4c-0.5-0.4-0.9-0.7-1.3-0.9c-0.4-0.2-0.9-0.3-1.3-0.3c-0.5,0-0.9,0.1-1.3,0.3
					c-0.4,0.2-0.7,0.5-1,0.8c-0.3,0.4-0.5,0.8-0.7,1.3C1226.1,547.3,1226,547.9,1226,548.4z"/>
				<path fill="#2E6A7F" d="M1237.3,548.4c0-0.8,0.1-1.4,0.3-2c0.2-0.6,0.5-1.1,0.9-1.5c0.4-0.4,0.8-0.7,1.3-0.9
					c0.5-0.2,1-0.3,1.5-0.3s1.1,0.1,1.6,0.3c0.5,0.2,0.9,0.5,1.3,0.9c0.4,0.4,0.7,0.9,0.9,1.5c0.2,0.6,0.3,1.3,0.3,2
					c0,0.8-0.1,1.4-0.3,2c-0.2,0.6-0.5,1.1-0.9,1.5c-0.4,0.4-0.8,0.7-1.3,0.9c-0.5,0.2-1,0.3-1.6,0.3s-1.1-0.1-1.5-0.3
					c-0.5-0.2-0.9-0.5-1.3-0.9c-0.4-0.4-0.7-0.9-0.9-1.5C1237.4,549.8,1237.3,549.2,1237.3,548.4z M1238.1,548.4
					c0,0.6,0.1,1.1,0.2,1.6c0.2,0.5,0.4,0.9,0.7,1.3c0.3,0.4,0.6,0.6,1,0.8c0.4,0.2,0.8,0.3,1.3,0.3c0.5,0,0.9-0.1,1.3-0.3
					c0.4-0.2,0.7-0.5,1-0.8c0.3-0.4,0.5-0.8,0.7-1.3c0.2-0.5,0.2-1,0.2-1.6c0-0.6-0.1-1.1-0.2-1.6c-0.2-0.5-0.4-0.9-0.7-1.3
					c-0.3-0.4-0.6-0.6-1-0.8c-0.4-0.2-0.8-0.3-1.3-0.3c-0.5,0-0.9,0.1-1.3,0.3c-0.4,0.2-0.7,0.5-1,0.8c-0.3,0.4-0.5,0.8-0.7,1.3
					C1238.2,547.3,1238.1,547.8,1238.1,548.4z"/>
				<path fill="#2E6A7F" d="M1250,539.4h0.8v12.4c0,0.2,0,0.3,0.1,0.4c0.1,0.1,0.2,0.1,0.3,0.1c0,0,0.1,0,0.1,0c0,0,0.1,0,0.2,0
					l0.2,0.7c-0.1,0-0.2,0-0.3,0.1c-0.1,0-0.2,0-0.3,0c-0.7,0-1.1-0.5-1.1-1.4V539.4z"/>
				<path fill="#2E6A7F" d="M1255.5,548.4c0-0.8,0.1-1.4,0.3-2c0.2-0.6,0.5-1.1,0.9-1.5c0.4-0.4,0.8-0.7,1.3-0.9
					c0.5-0.2,1-0.3,1.5-0.3s1.1,0.1,1.6,0.3c0.5,0.2,0.9,0.5,1.3,0.9c0.4,0.4,0.7,0.9,0.9,1.5c0.2,0.6,0.3,1.3,0.3,2
					c0,0.8-0.1,1.4-0.3,2c-0.2,0.6-0.5,1.1-0.9,1.5c-0.4,0.4-0.8,0.7-1.3,0.9c-0.5,0.2-1,0.3-1.6,0.3s-1.1-0.1-1.5-0.3
					c-0.5-0.2-0.9-0.5-1.3-0.9c-0.4-0.4-0.7-0.9-0.9-1.5C1255.7,549.8,1255.5,549.2,1255.5,548.4z M1256.4,548.4
					c0,0.6,0.1,1.1,0.2,1.6c0.2,0.5,0.4,0.9,0.7,1.3c0.3,0.4,0.6,0.6,1,0.8c0.4,0.2,0.8,0.3,1.3,0.3c0.5,0,0.9-0.1,1.3-0.3
					c0.4-0.2,0.7-0.5,1-0.8c0.3-0.4,0.5-0.8,0.7-1.3c0.2-0.5,0.2-1,0.2-1.6c0-0.6-0.1-1.1-0.2-1.6c-0.2-0.5-0.4-0.9-0.7-1.3
					c-0.3-0.4-0.6-0.6-1-0.8c-0.4-0.2-0.8-0.3-1.3-0.3c-0.5,0-0.9,0.1-1.3,0.3c-0.4,0.2-0.7,0.5-1,0.8c-0.3,0.4-0.5,0.8-0.7,1.3
					C1256.5,547.3,1256.4,547.8,1256.4,548.4z"/>
				<path fill="#2E6A7F" d="M1268.3,543.9h0.7l0.1,1.7h0.1c0.3-0.6,0.7-1,1.1-1.4c0.4-0.4,0.9-0.5,1.5-0.5c0.2,0,0.3,0,0.5,0
					c0.1,0,0.3,0.1,0.4,0.2l-0.2,0.8c-0.2-0.1-0.3-0.1-0.4-0.1c-0.1,0-0.3,0-0.4,0c-0.4,0-0.8,0.2-1.3,0.5c-0.4,0.3-0.8,0.9-1.2,1.8
					v6.2h-0.8V543.9z"/>
				<path fill="#2E6A7F" d="M1275.2,548.4c0-0.7,0.1-1.4,0.3-2c0.2-0.6,0.5-1.1,0.9-1.5c0.4-0.4,0.8-0.7,1.3-0.9
					c0.5-0.2,1-0.3,1.5-0.3c1.1,0,1.9,0.4,2.5,1.1c0.6,0.7,0.9,1.8,0.9,3.1c0,0.1,0,0.2,0,0.3c0,0.1,0,0.2,0,0.3h-6.5
					c0,0.6,0.1,1.1,0.3,1.6c0.2,0.5,0.4,0.9,0.7,1.2c0.3,0.3,0.6,0.6,1.1,0.8c0.4,0.2,0.9,0.3,1.4,0.3c0.5,0,0.9-0.1,1.3-0.2
					c0.4-0.1,0.8-0.3,1.1-0.6l0.3,0.6c-0.4,0.2-0.8,0.4-1.2,0.6c-0.4,0.2-1,0.3-1.6,0.3c-0.6,0-1.1-0.1-1.6-0.3
					c-0.5-0.2-1-0.5-1.3-0.9c-0.4-0.4-0.7-0.9-0.9-1.5C1275.3,549.8,1275.2,549.2,1275.2,548.4z M1281.8,547.9c0-1.2-0.2-2-0.7-2.6
					c-0.5-0.6-1.1-0.9-1.9-0.9c-0.4,0-0.8,0.1-1.1,0.2c-0.4,0.2-0.7,0.4-1,0.7c-0.3,0.3-0.5,0.7-0.7,1.1c-0.2,0.4-0.3,0.9-0.3,1.5
					H1281.8z"/>
				<path fill="#2E6A7F" d="M1292.5,543.9h0.7l0.1,1.4h0.1c0.4-0.5,0.9-0.8,1.3-1.2c0.5-0.3,1-0.5,1.5-0.5c0.7,0,1.3,0.2,1.7,0.5
					c0.4,0.3,0.7,0.8,0.8,1.3c0.5-0.6,1-1,1.5-1.3c0.5-0.3,1-0.5,1.5-0.5c1.8,0,2.7,1.2,2.7,3.5v5.8h-0.8v-5.7c0-1-0.2-1.7-0.5-2.1
					c-0.3-0.5-0.8-0.7-1.5-0.7c-0.8,0-1.7,0.6-2.7,1.7v6.8h-0.8v-5.7c0-1-0.2-1.7-0.5-2.1c-0.3-0.5-0.8-0.7-1.5-0.7
					c-0.8,0-1.7,0.6-2.7,1.7v6.8h-0.8V543.9z"/>
				<path fill="#2E6A7F" d="M1309.2,550.7c0-1,0.5-1.8,1.4-2.3c0.9-0.5,2.4-0.9,4.4-1.1c0-0.3,0-0.7-0.1-1c-0.1-0.3-0.2-0.7-0.3-0.9
					c-0.2-0.3-0.4-0.5-0.7-0.7c-0.3-0.2-0.6-0.3-1.1-0.3c-0.6,0-1.2,0.1-1.7,0.4c-0.5,0.2-0.9,0.5-1.2,0.7l-0.4-0.6
					c0.2-0.1,0.4-0.2,0.6-0.4c0.2-0.1,0.5-0.3,0.8-0.4c0.3-0.1,0.6-0.2,0.9-0.3c0.3-0.1,0.7-0.1,1.1-0.1c0.5,0,1,0.1,1.4,0.3
					s0.7,0.4,0.9,0.7c0.2,0.3,0.4,0.7,0.5,1.1c0.1,0.4,0.1,0.9,0.1,1.4v5.8h-0.7l-0.1-1.2h0c-0.5,0.4-1,0.7-1.5,1
					c-0.5,0.3-1.1,0.4-1.7,0.4c-0.4,0-0.7-0.1-1-0.2c-0.3-0.1-0.6-0.3-0.8-0.5c-0.2-0.2-0.4-0.5-0.6-0.8
					C1309.2,551.5,1309.2,551.1,1309.2,550.7z M1310,550.6c0,0.7,0.2,1.1,0.6,1.4c0.4,0.3,0.8,0.4,1.3,0.4c0.5,0,1-0.1,1.5-0.4
					s1-0.6,1.6-1.1v-3.1c-0.9,0.1-1.7,0.3-2.3,0.4c-0.6,0.2-1.1,0.4-1.5,0.6c-0.4,0.2-0.7,0.5-0.8,0.8
					C1310.1,550,1310,550.3,1310,550.6z"/>
				<path fill="#2E6A7F" d="M1320.2,554.8c0-0.4,0.1-0.8,0.4-1.2c0.2-0.4,0.6-0.7,1-1v-0.1c-0.2-0.1-0.4-0.3-0.6-0.6
					c-0.2-0.2-0.2-0.5-0.2-0.9c0-0.4,0.1-0.7,0.3-1c0.2-0.3,0.4-0.5,0.6-0.6v-0.1c-0.3-0.3-0.5-0.6-0.8-1c-0.2-0.4-0.3-0.9-0.3-1.5
					c0-0.5,0.1-0.9,0.2-1.3c0.2-0.4,0.4-0.7,0.7-1c0.3-0.3,0.6-0.5,1-0.7c0.4-0.2,0.8-0.2,1.2-0.2c0.3,0,0.5,0,0.7,0.1
					c0.2,0,0.4,0.1,0.5,0.2h3.1v0.7h-2.1c0.3,0.3,0.5,0.6,0.7,1c0.2,0.4,0.3,0.8,0.3,1.3c0,0.5-0.1,0.9-0.2,1.3
					c-0.2,0.4-0.4,0.7-0.7,1c-0.3,0.3-0.6,0.5-1,0.7c-0.4,0.2-0.8,0.2-1.2,0.2c-0.3,0-0.5,0-0.8-0.1c-0.3-0.1-0.5-0.2-0.7-0.3
					c-0.2,0.2-0.4,0.3-0.5,0.5c-0.1,0.2-0.2,0.5-0.2,0.8c0,0.3,0.1,0.6,0.4,0.8c0.2,0.2,0.7,0.3,1.4,0.3h1.9c1,0,1.8,0.2,2.2,0.5
					c0.5,0.3,0.7,0.9,0.7,1.6c0,0.4-0.1,0.8-0.3,1.1c-0.2,0.4-0.5,0.7-0.9,1c-0.4,0.3-0.8,0.5-1.3,0.7c-0.5,0.2-1.1,0.3-1.8,0.3
					c-1.1,0-2-0.2-2.7-0.7C1320.5,556.1,1320.2,555.5,1320.2,554.8z M1321,554.7c0,0.6,0.3,1,0.8,1.4c0.5,0.4,1.3,0.5,2.2,0.5
					c0.5,0,1-0.1,1.4-0.2s0.8-0.3,1.1-0.5c0.3-0.2,0.5-0.5,0.7-0.7c0.2-0.3,0.2-0.5,0.2-0.8c0-0.5-0.2-0.9-0.5-1.1
					c-0.4-0.2-0.9-0.3-1.6-0.3h-1.9c-0.1,0-0.3,0-0.5,0c-0.2,0-0.4-0.1-0.7-0.1c-0.4,0.3-0.7,0.6-0.9,0.9
					C1321.1,554,1321,554.4,1321,554.7z M1323.8,549.4c0.3,0,0.6-0.1,0.9-0.2c0.3-0.1,0.5-0.3,0.7-0.5c0.2-0.2,0.4-0.5,0.5-0.8
					c0.1-0.3,0.2-0.7,0.2-1s-0.1-0.7-0.2-1c-0.1-0.3-0.3-0.6-0.5-0.8s-0.5-0.4-0.7-0.5c-0.3-0.1-0.6-0.2-0.9-0.2
					c-0.3,0-0.6,0.1-0.9,0.2c-0.3,0.1-0.5,0.3-0.7,0.5s-0.4,0.5-0.5,0.8c-0.1,0.3-0.2,0.7-0.2,1c0,0.4,0.1,0.7,0.2,1
					c0.1,0.3,0.3,0.6,0.5,0.8c0.2,0.2,0.5,0.4,0.8,0.5C1323.2,549.3,1323.5,549.4,1323.8,549.4z"/>
				<path fill="#2E6A7F" d="M1332,543.9h0.7l0.1,1.4h0.1c0.5-0.5,0.9-0.8,1.4-1.2c0.5-0.3,1-0.5,1.7-0.5c0.9,0,1.6,0.3,2.1,0.8
					c0.4,0.6,0.7,1.4,0.7,2.6v5.8h-0.8v-5.7c0-1-0.2-1.7-0.5-2.1c-0.3-0.5-0.9-0.7-1.6-0.7c-0.5,0-1,0.1-1.5,0.4
					c-0.4,0.3-0.9,0.7-1.5,1.3v6.8h-0.8V543.9z"/>
				<path fill="#2E6A7F" d="M1343.4,550.7c0-1,0.5-1.8,1.4-2.3c0.9-0.5,2.4-0.9,4.4-1.1c0-0.3,0-0.7-0.1-1c-0.1-0.3-0.2-0.7-0.3-0.9
					c-0.2-0.3-0.4-0.5-0.7-0.7c-0.3-0.2-0.6-0.3-1.1-0.3c-0.6,0-1.2,0.1-1.7,0.4c-0.5,0.2-0.9,0.5-1.2,0.7l-0.4-0.6
					c0.2-0.1,0.4-0.2,0.6-0.4c0.2-0.1,0.5-0.3,0.8-0.4c0.3-0.1,0.6-0.2,0.9-0.3c0.3-0.1,0.7-0.1,1.1-0.1c0.5,0,1,0.1,1.4,0.3
					c0.4,0.2,0.7,0.4,0.9,0.7c0.2,0.3,0.4,0.7,0.5,1.1c0.1,0.4,0.1,0.9,0.1,1.4v5.8h-0.7l-0.1-1.2h0c-0.5,0.4-1,0.7-1.5,1
					c-0.5,0.3-1.1,0.4-1.7,0.4c-0.4,0-0.7-0.1-1-0.2c-0.3-0.1-0.6-0.3-0.8-0.5c-0.2-0.2-0.4-0.5-0.6-0.8
					C1343.5,551.5,1343.4,551.1,1343.4,550.7z M1344.3,550.6c0,0.7,0.2,1.1,0.6,1.4c0.4,0.3,0.8,0.4,1.3,0.4c0.5,0,1-0.1,1.5-0.4
					s1-0.6,1.6-1.1v-3.1c-0.9,0.1-1.7,0.3-2.3,0.4c-0.6,0.2-1.1,0.4-1.5,0.6c-0.4,0.2-0.7,0.5-0.8,0.8
					C1344.3,550,1344.3,550.3,1344.3,550.6z"/>
				<path fill="#2E6A7F" d="M1360.3,550.7c0-1,0.5-1.8,1.4-2.3c0.9-0.5,2.4-0.9,4.4-1.1c0-0.3,0-0.7-0.1-1c-0.1-0.3-0.2-0.7-0.3-0.9
					c-0.2-0.3-0.4-0.5-0.7-0.7c-0.3-0.2-0.6-0.3-1.1-0.3c-0.6,0-1.2,0.1-1.7,0.4c-0.5,0.2-0.9,0.5-1.2,0.7l-0.4-0.6
					c0.2-0.1,0.4-0.2,0.6-0.4c0.2-0.1,0.5-0.3,0.8-0.4c0.3-0.1,0.6-0.2,0.9-0.3c0.3-0.1,0.7-0.1,1.1-0.1c0.5,0,1,0.1,1.4,0.3
					c0.4,0.2,0.7,0.4,0.9,0.7c0.2,0.3,0.4,0.7,0.5,1.1c0.1,0.4,0.1,0.9,0.1,1.4v5.8h-0.7l-0.1-1.2h0c-0.5,0.4-1,0.7-1.5,1
					c-0.5,0.3-1.1,0.4-1.7,0.4c-0.4,0-0.7-0.1-1-0.2c-0.3-0.1-0.6-0.3-0.8-0.5c-0.2-0.2-0.4-0.5-0.6-0.8
					C1360.4,551.5,1360.3,551.1,1360.3,550.7z M1361.2,550.6c0,0.7,0.2,1.1,0.6,1.4c0.4,0.3,0.8,0.4,1.3,0.4c0.5,0,1-0.1,1.5-0.4
					c0.5-0.3,1-0.6,1.6-1.1v-3.1c-0.9,0.1-1.7,0.3-2.3,0.4c-0.6,0.2-1.1,0.4-1.5,0.6c-0.4,0.2-0.7,0.5-0.8,0.8
					C1361.3,550,1361.2,550.3,1361.2,550.6z"/>
				<path fill="#2E6A7F" d="M1372.1,539.4h0.8v12.4c0,0.2,0,0.3,0.1,0.4c0.1,0.1,0.2,0.1,0.3,0.1c0,0,0.1,0,0.1,0c0,0,0.1,0,0.2,0
					l0.2,0.7c-0.1,0-0.2,0-0.3,0.1c-0.1,0-0.2,0-0.3,0c-0.7,0-1.1-0.5-1.1-1.4V539.4z"/>
				<path fill="#2E6A7F" d="M1378.9,541.7c-0.2,0-0.4-0.1-0.5-0.2c-0.1-0.1-0.2-0.3-0.2-0.5c0-0.2,0.1-0.4,0.2-0.6
					c0.1-0.1,0.3-0.2,0.5-0.2s0.4,0.1,0.5,0.2s0.2,0.3,0.2,0.6c0,0.2-0.1,0.4-0.2,0.5C1379.3,541.6,1379.1,541.7,1378.9,541.7z
					 M1378.4,543.9h0.8v9h-0.8V543.9z"/>
				<path fill="#2E6A7F" d="M1383.9,548.4c0-0.7,0.1-1.4,0.3-2c0.2-0.6,0.5-1.1,0.9-1.5c0.4-0.4,0.8-0.7,1.3-1
					c0.5-0.2,1-0.3,1.5-0.3c0.6,0,1,0.1,1.4,0.3c0.4,0.2,0.8,0.4,1.3,0.8h0l0.1-0.8h0.7V557h-0.8v-3.5l0-1.8c-0.4,0.4-0.9,0.7-1.3,1
					c-0.5,0.3-1,0.4-1.6,0.4c-1.1,0-2.1-0.4-2.7-1.2C1384.2,551.1,1383.9,550,1383.9,548.4z M1384.8,548.4c0,0.6,0.1,1.1,0.2,1.6
					c0.1,0.5,0.3,0.9,0.6,1.3c0.3,0.3,0.6,0.6,0.9,0.8c0.4,0.2,0.8,0.3,1.3,0.3c0.5,0,1-0.1,1.4-0.4c0.5-0.3,0.9-0.6,1.4-1.1v-5.4
					c-0.5-0.4-0.9-0.7-1.3-0.9c-0.4-0.2-0.9-0.3-1.3-0.3c-0.5,0-0.9,0.1-1.3,0.3c-0.4,0.2-0.7,0.5-1,0.8c-0.3,0.4-0.5,0.8-0.7,1.3
					C1384.8,547.3,1384.8,547.9,1384.8,548.4z"/>
				<path fill="#2E6A7F" d="M1396.5,543.9h0.8v5.7c0,1,0.2,1.7,0.5,2.1c0.3,0.5,0.8,0.7,1.6,0.7c0.5,0,1-0.1,1.5-0.4
					c0.4-0.3,0.9-0.8,1.4-1.4v-6.7h0.8v9h-0.7l-0.1-1.5h0c-0.4,0.5-0.9,0.9-1.4,1.3c-0.5,0.3-1,0.5-1.7,0.5c-0.9,0-1.6-0.3-2.1-0.8
					c-0.4-0.6-0.7-1.4-0.7-2.6V543.9z"/>
				<path fill="#2E6A7F" d="M1407.9,550.7c0-1,0.5-1.8,1.4-2.3c0.9-0.5,2.4-0.9,4.4-1.1c0-0.3,0-0.7-0.1-1c-0.1-0.3-0.2-0.7-0.3-0.9
					c-0.2-0.3-0.4-0.5-0.7-0.7c-0.3-0.2-0.6-0.3-1.1-0.3c-0.6,0-1.2,0.1-1.7,0.4c-0.5,0.2-0.9,0.5-1.2,0.7l-0.4-0.6
					c0.2-0.1,0.4-0.2,0.6-0.4c0.2-0.1,0.5-0.3,0.8-0.4c0.3-0.1,0.6-0.2,0.9-0.3c0.3-0.1,0.7-0.1,1.1-0.1c0.5,0,1,0.1,1.4,0.3
					c0.4,0.2,0.7,0.4,0.9,0.7c0.2,0.3,0.4,0.7,0.5,1.1c0.1,0.4,0.1,0.9,0.1,1.4v5.8h-0.7l-0.1-1.2h0c-0.5,0.4-1,0.7-1.5,1
					c-0.5,0.3-1.1,0.4-1.7,0.4c-0.4,0-0.7-0.1-1-0.2c-0.3-0.1-0.6-0.3-0.8-0.5c-0.2-0.2-0.4-0.5-0.6-0.8
					C1408,551.5,1407.9,551.1,1407.9,550.7z M1408.8,550.6c0,0.7,0.2,1.1,0.6,1.4c0.4,0.3,0.8,0.4,1.3,0.4c0.5,0,1-0.1,1.5-0.4
					s1-0.6,1.6-1.1v-3.1c-0.9,0.1-1.7,0.3-2.3,0.4c-0.6,0.2-1.1,0.4-1.5,0.6c-0.4,0.2-0.7,0.5-0.8,0.8
					C1408.9,550,1408.8,550.3,1408.8,550.6z"/>
				<path fill="#2E6A7F" d="M1419.3,552.3c0-0.3,0.1-0.5,0.2-0.6c0.2-0.2,0.4-0.2,0.6-0.2c0.2,0,0.4,0.1,0.6,0.2
					c0.2,0.2,0.2,0.4,0.2,0.6c0,0.3-0.1,0.5-0.2,0.6c-0.2,0.2-0.3,0.2-0.6,0.2c-0.2,0-0.4-0.1-0.6-0.2
					C1419.3,552.8,1419.3,552.6,1419.3,552.3z"/>
			</g>
		</g>
	</g>
</g>
</svg>
